
<svg width="236px" height="239px" viewBox="0 0 236 239" version="1.1" xmlns="http://www.w3.org/2000/svg" xmlns:xlink="http://www.w3.org/1999/xlink">
    <!-- Generator: Sketch 50.2 (55047) - http://www.bohemiancoding.com/sketch -->
    <desc>Created with Sketch.</desc>
    <defs>
        <polygon id="path-1" points="0.0595941176 0.353888889 32.5024765 0.353888889 32.5024765 34.4858889 0.0595941176 34.4858889"></polygon>
        <linearGradient x1="101.317598%" y1="50%" x2="0%" y2="50%" id="linearGradient-3">
            <stop stop-color="#FD6502" offset="0%"></stop>
            <stop stop-color="#DA4816" offset="100%"></stop>
        </linearGradient>
        <polygon id="path-4" points="0 0.939038462 62.3167364 0.939038462 62.3167364 124.839038 0 124.839038"></polygon>
    </defs>
    <g id="Symbols" stroke="none" stroke-width="1" fill="none" fill-rule="evenodd">
        <g id="icon-Type" transform="translate(-16.000000, -12.000000)">
            <path d="M134,251 C254.750348,251 252,198.1696 252,133 C252,67.8303995 239.790523,-2.35352475 134,15 C28.2094767,32.3535248 16,67.8303995 16,133 C16,198.1696 13.2496515,251 134,251 Z" id="Oval" fill-opacity="0.06" fill="#9BCDFF"></path>
            <g id="Page-1" transform="translate(73.000000, 69.000000)">
                <g id="Group-3" transform="translate(69.000000, 0.000000)">
                    <mask id="mask-2" fill="white">
                        <use xlink:href="#path-1"></use>
                    </mask>
                    <g id="Clip-2"></g>
                    <path d="M20.8554176,7.15866667 C23.5303588,7.15866667 25.7083588,9.34227778 25.7083588,12.0236667 C25.7083588,14.7050556 23.5303588,16.8886667 20.8554176,16.8886667 C18.1746529,16.8886667 15.9947118,14.7050556 15.9947118,12.0236667 C15.9947118,9.34227778 18.1746529,7.15866667 20.8554176,7.15866667 Z M0.0595941176,27.6803333 L0.0595941176,34.4858889 L1.82218235,34.4858889 C2.72482941,34.4858889 3.58671176,34.1261667 4.22535882,33.4883889 L15.3754765,22.3175556 C17.0118882,23.1945 18.8754176,23.6942222 20.8554176,23.6942222 C27.2787706,23.6942222 32.5024765,18.4597778 32.5024765,12.0236667 C32.5024765,5.58755556 27.2787706,0.353111111 20.8554176,0.353111111 C14.4281824,0.353111111 9.20059412,5.58755556 9.20059412,12.0236667 C9.20059412,14.0050556 9.69947647,15.8697778 10.5730059,17.5050556 L0.414829412,27.6803333 L0.0595941176,27.6803333 Z" id="Fill-1" fill="url(#linearGradient-3)" mask="url(#mask-2)"></path>
                </g>
                <path d="M102.573363,29.8097801 C105.197681,29.8097801 107.334462,31.9947467 107.334462,34.6778001 C107.334462,37.3608535 105.197681,39.5458201 102.573363,39.5458201 C99.9433323,39.5458201 97.8046468,37.3608535 97.8046468,34.6778001 C97.8046468,31.9947467 99.9433323,29.8097801 102.573363,29.8097801 M91.6380719,31.27291 L85.3286639,31.27291 C84.445004,31.27291 83.5975285,31.6328556 82.9728723,32.2710292 L69.3485124,46.1902199 L69,46.1902199 L69,53 L70.729231,53 C71.6147954,53 72.4603665,52.6400545 73.0869271,52.0018808 L86.7093825,38.0826902 L91.6380719,38.0826902 C93.0683059,42.8651015 97.4275678,46.3556002 102.573363,46.3556002 C108.875153,46.3556002 114,41.1179065 114,34.6778001 C114,28.2376938 108.875153,23 102.573363,23 C97.4275678,23 93.0683059,26.4885531 91.6380719,31.27291" id="Fill-4" fill="url(#linearGradient-3)"></path>
                <path d="M102.573363,94.1902199 C99.9433323,94.1902199 97.8046468,92.0052533 97.8046468,89.3221999 C97.8046468,86.6372009 99.9433323,84.4541799 102.573363,84.4541799 C105.197681,84.4541799 107.334462,86.6372009 107.334462,89.3221999 C107.334462,92.0052533 105.197681,94.1902199 102.573363,94.1902199 M102.573363,77.6443998 C97.4275678,77.6443998 93.0683059,81.1329529 91.6380719,85.9173098 L86.7093825,85.9173098 L73.0869271,71.9981192 C72.4603665,71.3599455 71.6147954,71 70.729231,71 L69,71 L69,77.8097801 L69.3485124,77.8097801 L82.9728723,91.7289708 C83.5975285,92.3671444 84.445004,92.72709 85.3286639,92.72709 L91.6380719,92.72709 C93.0683059,97.5095013 97.4275678,101 102.573363,101 C108.875153,101 114,95.7623062 114,89.3221999 C114,82.8820935 108.875153,77.6443998 102.573363,77.6443998" id="Fill-6" fill="url(#linearGradient-3)"></path>
                <g id="Group-10">
                    <mask id="mask-5" fill="white">
                        <use xlink:href="#path-4"></use>
                    </mask>
                    <g id="Clip-9"></g>
                    <path d="M62.3167364,91.2428846 L62.3167364,78.5582692 L62.3167364,71.8275 L62.3167364,66.0409615 L62.3167364,59.3101923 L62.3167364,53.5217308 L62.3167364,46.7909615 L62.3167364,34.1063462 L62.3167364,27.3755769 L62.3167364,20.3678846 C62.3167364,20.2986538 62.3014636,20.2351923 62.2957364,20.1678846 C62.3014636,20.0986538 62.3129182,20.0332692 62.3167364,19.9659615 L62.3167364,19.8717308 C62.3071909,16.6967308 61.5168273,13.7082692 60.1346455,11.0775 C59.9341909,10.6890385 59.7070091,10.3044231 59.4588273,9.91980769 C56.1274636,4.53903846 50.2150091,0.939038462 43.4682818,0.939038462 C33.0732818,0.939038462 24.6141,9.45826923 24.6141,19.9294231 C24.6141,24.7428846 26.4162818,29.1313462 29.3581909,32.4832692 C26.8821,34.0159615 24.9787364,36.4871154 24.2322818,39.5486538 C22.7260091,45.7255769 26.4907364,51.9871154 32.6265545,53.5063462 C32.8938273,53.5736538 33.1630091,53.6044231 33.4264636,53.6044231 C34.9289182,53.6044231 36.2939182,52.5775 36.6681,51.0428846 C37.1091,49.2371154 36.0132818,47.4140385 34.2225545,46.9717308 C31.6643727,46.3371154 30.0931909,43.7275 30.7212818,41.1544231 C31.3474636,38.5794231 33.9381,36.9986538 36.5020091,37.6332692 C36.6070091,37.6582692 36.7139182,37.6621154 36.8208273,37.6775 C38.8902818,38.4678846 41.1258273,38.9198077 43.4682818,38.9198077 C45.3124636,38.9198077 46.8091909,37.4121154 46.8091909,35.5544231 C46.8091909,33.6967308 45.3124636,32.1890385 43.4682818,32.1890385 C36.7559182,32.1890385 31.2959182,26.6890385 31.2959182,19.9294231 C31.2959182,13.1698077 36.7559182,7.66980769 43.4682818,7.66980769 C47.7503727,7.66980769 51.5151,9.91403846 53.6857364,13.2909615 C53.6952818,13.3063462 53.7010091,13.3236538 53.7124636,13.3409615 C53.7391909,13.3775 53.7525545,13.4082692 53.7773727,13.4428846 C53.9663727,13.7505769 54.1458273,14.0621154 54.3081,14.3851923 C54.9591,15.8275 54.5543727,16.7255769 54.3691909,17.1082692 C54.2431909,17.3775 54.0771,17.6428846 53.8728273,17.9025 C53.1721909,18.8005769 52.1603727,19.3698077 51.0206455,19.5063462 C49.8809182,19.6390385 48.7602818,19.3294231 47.8668273,18.6217308 C46.4178273,17.4755769 44.3178273,17.7255769 43.1761909,19.1890385 C42.0345545,20.6505769 42.2865545,22.7659615 43.7374636,23.9140385 C45.6828273,25.4544231 48.0386455,26.2698077 50.4841909,26.2698077 C50.9251909,26.2698077 51.3681,26.2428846 51.8129182,26.1890385 C53.1760091,26.0255769 54.4589182,25.5967308 55.6349182,24.9736538 L55.6349182,50.7659615 C54.4665545,50.4563462 53.2447364,50.3217308 51.9942818,50.3986538 C48.9340091,50.5851923 46.1333727,51.9582692 44.1097364,54.2601923 L43.8310091,54.6236538 C41.6909182,57.8563462 38.6879182,61.6775 35.5665545,64.9101923 C29.7762818,59.4659615 23.0123727,56.2159615 22.6954636,56.0659615 C21.0269182,55.2755769 19.0357364,55.9948077 18.2491909,57.6775 C17.4626455,59.3582692 18.1804636,61.3640385 19.8490091,62.1563462 C19.9158273,62.1871154 25.6354636,64.9275 30.5628273,69.4101923 C28.4761909,70.9582692 26.5193727,71.9294231 24.9310091,71.9294231 C23.0868273,71.9294231 21.5901,73.4371154 21.5901,75.2948077 C21.5901,77.1525 23.0868273,78.6601923 24.9310091,78.6601923 C35.2076455,78.6601923 46.6793727,62.4159615 49.2451909,58.5775 C50.0737364,57.7082692 51.1867364,57.1909615 52.4009182,57.1159615 C53.5845545,57.0371154 54.7185545,57.4178846 55.6349182,58.1448077 L55.6349182,97.7736538 C53.9740091,97.3063462 52.2138273,97.2986538 50.5166455,97.8101923 C48.1589182,98.5236538 46.2173727,100.114038 45.0509182,102.290962 C44.1746455,103.925577 44.7798273,105.967885 46.4044636,106.850577 C48.0291,107.733269 50.0546455,107.123654 50.9309182,105.487115 C51.2516455,104.892885 51.7842818,104.456346 52.4352818,104.260192 C53.0901,104.062115 53.7659182,104.131346 54.3577364,104.4525 C55.2301909,104.925577 55.5585545,105.785192 55.6043727,106.5275 C55.5871909,110.6025 53.5062818,114.194808 49.8828273,116.385192 C47.1547364,118.039038 43.9474636,118.519808 40.8585545,117.742885 C37.7696455,116.967885 35.1637364,115.025577 33.5238273,112.275577 C30.8205545,107.748654 31.4066455,101.865962 34.9461,97.9794231 L43.6210091,88.4717308 C44.8676455,87.1025 44.7798273,84.9717308 43.4205545,83.7140385 C42.0651,82.4563462 39.9517364,82.5486538 38.6993727,83.9159615 L34.6673727,88.3371154 L27.8461909,85.9755769 C26.0974636,85.3698077 24.2017364,86.3082692 23.6022818,88.0640385 C23.0009182,89.8217308 23.9306455,91.7371154 25.6755545,92.3390385 L29.7514636,93.7525 C27.5502818,96.2851923 26.1241909,99.3198077 25.5113727,102.504423 C22.0711909,101.8275 19.4786455,100.308269 17.6554636,97.8736538 C12.6097364,91.1217308 15.0190091,79.6621154 15.0419182,79.5525 C15.2939182,78.4140385 14.9426455,77.2275 14.1141,76.4121154 C9.04164545,71.4236538 6.54264545,66.0832692 6.68773636,60.5390385 C6.9531,50.4255769 15.7979182,42.4928846 15.8819182,42.4198077 C16.8307364,41.5890385 17.2354636,40.2909615 16.9319182,39.0640385 C15.5001,33.2948077 15.8532818,29.0351923 17.9838273,26.4025 C18.4133727,25.8698077 18.9097364,25.4294231 19.4328273,25.0525 C18.8448273,22.1967308 18.8371909,19.6371154 18.9956455,17.7082692 C16.8555545,18.5563462 14.6352818,19.9082692 12.8502818,22.0928846 C9.57046364,26.1025 8.61973636,31.7082692 10.0191,38.7755769 C6.9741,41.9351923 0.305645455,50.0044231 0.00973636364,60.3044231 C-0.190718182,67.3198077 2.56219091,73.9198077 8.19591818,79.9467308 C7.58882727,84.1467308 6.8061,94.5198077 12.2966455,101.892885 C15.3550091,105.998654 19.7745545,108.492885 25.4483727,109.329423 C25.8301909,111.556346 26.5995545,113.735192 27.7965545,115.742885 C30.3566455,120.033269 34.4211,123.064038 39.2415545,124.275577 C40.7459182,124.6525 42.2674636,124.839038 43.7775545,124.839038 C47.1108273,124.839038 50.3925545,123.929423 53.3249182,122.156346 C58.5596455,118.990962 61.7898273,113.669808 62.2041,107.758269 C62.2575545,107.542885 62.2919182,107.319808 62.3014636,107.087115 C62.3071909,106.942885 62.2900091,106.8025 62.2881,106.660192 C62.2976455,106.565962 62.3167364,106.4775 62.3167364,106.383269 L62.3167364,99.4486538 L62.3167364,97.9736538 L62.3167364,91.2428846 Z" id="Fill-8" fill="#6786AC" mask="url(#mask-5)"></path>
                </g>
                <path d="M89.5119368,118.220918 C86.8677676,118.220918 84.7175851,116.045802 84.7175851,113.374843 C84.7175851,110.703885 86.8677676,108.528768 89.5119368,108.528768 C92.150362,108.528768 94.2986298,110.703885 94.2986298,113.374843 C94.2986298,116.045802 92.150362,118.220918 89.5119368,118.220918 M89.5119368,101.749687 C87.5589661,101.749687 85.720876,102.249402 84.1068031,103.120998 L73.1088973,91.9936197 C72.4789685,91.3583229 71.6288518,91 70.7385269,91 L69,91 L69,97.7790817 L69.3503859,97.7790817 L79.3698917,107.914777 C78.508287,109.543694 78.0162149,111.401162 78.0162149,113.374843 C78.0162149,119.785918 83.1724406,125 89.5119368,125 C95.8476037,125 101,119.785918 101,113.374843 C101,106.963769 95.8476037,101.749687 89.5119368,101.749687" id="Fill-11" fill="url(#linearGradient-3)"></path>
                <path d="M92.3649289,62.4990419 C92.3649289,65.1414646 90.2379147,67.2933433 87.6236967,67.2933433 C85.0075829,67.2933433 82.878673,65.1414646 82.878673,62.4990419 C82.878673,59.8566192 85.0075829,57.7066567 87.6236967,57.7066567 C90.2379147,57.7066567 92.3649289,59.8566192 92.3649289,62.4990419 M76.7402844,59.1437974 L69,59.1437974 L69,65.8504541 L76.7402844,65.8504541 C78.1620853,70.5623594 82.5014218,74 87.6236967,74 C93.8966825,74 99,68.8416229 99,62.4990419 C99,56.1583771 93.8966825,51 87.6236967,51 C82.5033175,51 78.1658768,54.4357244 76.7402844,59.1437974" id="Fill-13" fill="url(#linearGradient-3)"></path>
            </g>
        </g>
    </g>
</svg>