
<svg width="1880px" height="588px" viewBox="0 0 1880 588" version="1.1" xmlns="http://www.w3.org/2000/svg" xmlns:xlink="http://www.w3.org/1999/xlink">
    <!-- Generator: Sketch 50.2 (55047) - http://www.bohemiancoding.com/sketch -->
    <desc>Created with Sketch.</desc>
    <defs></defs>
    <g id="Working" stroke="none" stroke-width="1" fill="none" fill-rule="evenodd">
        <g id="RevCycle_Site_RCM_Events_V2" transform="translate(0.000000, -152.000000)">
            <g id="Group-19" transform="translate(0.000000, 152.000000)">
                <g id="Group-3">
                    <g id="Group-4" transform="translate(0.000000, 22.000000)">
                        <path d="M488.868341,528.431661 C484.213505,528.431661 480.428959,532.218515 480.428959,536.87619 C480.428959,541.53165 484.213505,545.32072 488.868341,545.32072 C493.523177,545.32072 497.309937,541.53165 497.309937,536.87619 C497.309937,532.218515 493.523177,528.431661 488.868341,528.431661 M488.868341,549.752381 C481.773148,549.752381 476,543.975711 476,536.87619 C476,529.774454 481.773148,524 488.868341,524 C495.963533,524 501.738896,529.774454 501.738896,536.87619 C501.738896,543.975711 495.963533,549.752381 488.868341,549.752381" id="Fill-3" fill="#7BCCA8"></path>
                        <path d="M1601.86834,190.431661 C1597.2135,190.431661 1593.42896,194.218515 1593.42896,198.87619 C1593.42896,203.53165 1597.2135,207.32072 1601.86834,207.32072 C1606.52318,207.32072 1610.30994,203.53165 1610.30994,198.87619 C1610.30994,194.218515 1606.52318,190.431661 1601.86834,190.431661 M1601.86834,211.752381 C1594.77315,211.752381 1589,205.975711 1589,198.87619 C1589,191.774454 1594.77315,186 1601.86834,186 C1608.96353,186 1614.7389,191.774454 1614.7389,198.87619 C1614.7389,205.975711 1608.96353,211.752381 1601.86834,211.752381" id="Fill-3-Copy-2" fill="#6786AC" opacity="0.199784873"></path>
                        <path d="M12.8683408,462.431661 C8.21350477,462.431661 4.42895916,466.218515 4.42895916,470.87619 C4.42895916,475.53165 8.21350477,479.32072 12.8683408,479.32072 C17.5231769,479.32072 21.309937,475.53165 21.309937,470.87619 C21.309937,466.218515 17.5231769,462.431661 12.8683408,462.431661 M12.8683408,483.752381 C5.77314827,483.752381 0,477.975711 0,470.87619 C0,463.774454 5.77314827,458 12.8683408,458 C19.9635334,458 25.7388962,463.774454 25.7388962,470.87619 C25.7388962,477.975711 19.9635334,483.752381 12.8683408,483.752381" id="Fill-3-Copy-4" fill="#6786AC" opacity="0.199784873"></path>
                        <path d="M1180.86834,203.431661 C1176.2135,203.431661 1172.42896,207.218515 1172.42896,211.87619 C1172.42896,216.53165 1176.2135,220.32072 1180.86834,220.32072 C1185.52318,220.32072 1189.30994,216.53165 1189.30994,211.87619 C1189.30994,207.218515 1185.52318,203.431661 1180.86834,203.431661 M1180.86834,224.752381 C1173.77315,224.752381 1168,218.975711 1168,211.87619 C1168,204.774454 1173.77315,199 1180.86834,199 C1187.96353,199 1193.7389,204.774454 1193.7389,211.87619 C1193.7389,218.975711 1187.96353,224.752381 1180.86834,224.752381" id="Fill-3-Copy-3" fill="#6786AC" opacity="0.199784873"></path>
                        <path d="M505.08681,4.49179881 C498.691147,4.49179881 493.48976,9.69554774 493.48976,16.0941151 C493.48976,22.4926826 498.691147,27.6986774 505.08681,27.6986774 C511.482473,27.6986774 516.68386,22.4926826 516.68386,16.0941151 C516.68386,9.69554774 511.482473,4.49179881 505.08681,4.49179881 M505.08681,32.1904762 C496.217289,32.1904762 489,24.9699096 489,16.0941151 C489,7.22056659 496.217289,0 505.08681,0 C513.956331,0 521.17362,7.22056659 521.17362,16.0941151 C521.17362,24.9699096 513.956331,32.1904762 505.08681,32.1904762" id="Fill-5" fill="#6786AC" opacity="0.199784873"></path>
                        <path d="M286.527808,350.088889 L276.875722,350.088889 L276.875722,344.72381 L286.527808,344.72381 L286.527808,335.066667 L291.890078,335.066667 L291.890078,344.72381 L300.46971,344.72381 L300.46971,350.088889 L291.890078,350.088889 L291.890078,358.673016 L286.527808,358.673016 L286.527808,350.088889 Z" id="Combined-Shape" fill="#6786AC" opacity="0.199784873"></path>
                        <path d="M252.200191,47.4984127 L260.78664,56.091633 L269.377633,47.4984127 L260.78664,38.9051924 L252.200191,47.4984127 Z M260.78664,62.5206349 L245.774556,47.4984127 L260.78664,32.4761905 L275.803268,47.4984127 L260.78664,62.5206349 Z" id="Fill-19" fill="#6786AC" opacity="0.199784873"></path>
                        <path d="M120.419492,171 L128.99773,179.580508 L137.580508,171 L128.99773,162.419492 L120.419492,171 Z M128.99773,186 L114,171 L128.99773,156 L144,171 L128.99773,186 Z" id="Fill-19" fill="#6786AC" opacity="0.199784873"></path>
                    </g>
                    <polygon id="Fill-10" fill="#6786AC" opacity="0.199784873" points="761.624933 528.749206 766.987203 528.749206 766.987203 505.142857 761.624933 505.142857"></polygon>
                    <polygon id="Fill-11" fill="#6786AC" opacity="0.199784873" points="751.972847 520.165079 775.566835 520.165079 775.566835 514.8 751.972847 514.8"></polygon>
                    <path d="M584.425635,234.021085 L593.014356,242.614956 L601.603077,234.021085 L593.014356,225.429488 L584.425635,234.021085 Z M593.014356,249.044444 L578,234.021085 L593.014356,219 L608.028712,234.021085 L593.014356,249.044444 Z" id="Fill-21-Copy-2" fill="#7BCCA8"></path>
                    <path d="M1738.09431,5.31272718 C1730.80846,5.31272718 1724.8838,11.2427342 1724.8838,18.5301587 C1724.8838,25.8175832 1730.80846,31.7475903 1738.09431,31.7475903 C1745.37792,31.7475903 1751.30482,25.8175832 1751.30482,18.5301587 C1751.30482,11.2427342 1745.37792,5.31272718 1738.09431,5.31272718 M1738.09431,36.2349206 C1728.33723,36.2349206 1720.39882,28.2923459 1720.39882,18.5301587 C1720.39882,8.76797155 1728.33723,0.825396825 1738.09431,0.825396825 C1747.85138,0.825396825 1755.7898,8.76797155 1755.7898,18.5301587 C1755.7898,28.2923459 1747.85138,36.2349206 1738.09431,36.2349206" id="Fill-1" fill="#6786AC" opacity="0.199784873"></path>
                </g>
                <path d="M1865,165 L1856,165 L1856,159 L1865,159 L1865,149 L1871,149 L1871,159 L1880,159 L1880,165 L1871,165 L1871,173 L1865,173 L1865,165 Z" id="Combined-Shape" fill="#7BCCA8"></path>
                <path d="M1425,365 L1416,365 L1416,359 L1425,359 L1425,349 L1431,349 L1431,359 L1440,359 L1440,365 L1431,365 L1431,373 L1425,373 L1425,365 Z" id="Combined-Shape-Copy-4" fill="#6786AC" opacity="0.199784873"></path>
                <path d="M1352,16 L1343,16 L1343,10 L1352,10 L1352,0 L1358,0 L1358,10 L1367,10 L1367,16 L1358,16 L1358,24 L1352,24 L1352,16 Z" id="Combined-Shape-Copy-3" fill="#6786AC" opacity="0.199784873"></path>
                <path d="M1618.36937,455.5 L1633.5,470.630631 L1648.63063,455.5 L1633.5,440.369369 L1618.36937,455.5 Z M1633.5,477 L1612,455.5 L1633.5,434 L1655,455.5 L1633.5,477 Z" id="Fill-23" fill="#7BCCA8"></path>
                <path d="M413.369369,194.5 L428.5,209.630631 L443.630631,194.5 L428.5,179.369369 L413.369369,194.5 Z M428.5,216 L407,194.5 L428.5,173 L450,194.5 L428.5,216 Z" id="Fill-23-Copy" fill="#6786AC" opacity="0.199784873"></path>
                <path d="M1272.41949,573 L1280.99773,581.580508 L1289.58051,573 L1280.99773,564.419492 L1272.41949,573 Z M1280.99773,588 L1266,573 L1280.99773,558 L1296,573 L1280.99773,588 Z" id="Fill-22-Copy-3" fill="#6786AC" opacity="0.199784873"></path>
                <path d="M1349.41949,188 L1357.99773,196.580508 L1366.58051,188 L1357.99773,179.419492 L1349.41949,188 Z M1357.99773,203 L1343,188 L1357.99773,173 L1373,188 L1357.99773,203 Z" id="Fill-22-Copy-2" fill="#6786AC" opacity="0.199784873"></path>
            </g>
        </g>
    </g>
</svg>