
<svg width="236px" height="239px" viewBox="0 0 236 239" version="1.1" xmlns="http://www.w3.org/2000/svg" xmlns:xlink="http://www.w3.org/1999/xlink">
    <!-- Generator: Sketch 50.2 (55047) - http://www.bohemiancoding.com/sketch -->
    <desc>Created with Sketch.</desc>
    <defs>
        <polygon id="path-1" points="0.4373 0.136 76.2403 0.136 76.2403 65.5374 0.4373 65.5374"></polygon>
        <linearGradient x1="101.317598%" y1="50%" x2="0%" y2="50%" id="linearGradient-3">
            <stop stop-color="#FD6502" offset="0%"></stop>
            <stop stop-color="#DA4816" offset="100%"></stop>
        </linearGradient>
        <polygon id="path-4" points="0.0006 0.335952174 106.678 0.335952174 106.678 59 0.0006 59"></polygon>
    </defs>
    <g id="Symbols" stroke="none" stroke-width="1" fill="none" fill-rule="evenodd">
        <g id="icon-ROI" transform="translate(-16.000000, -12.000000)">
            <path d="M134,251 C254.750348,251 252,198.1696 252,133 C252,67.8303995 239.790523,-2.35352475 134,15 C28.2094767,32.3535248 16,67.8303995 16,133 C16,198.1696 13.2496515,251 134,251 Z" id="Oval" fill-opacity="0.06" fill="#9BCDFF"></path>
            <g id="Page-1" transform="translate(76.000000, 66.000000)">
                <g id="Group-3" transform="translate(15.000000, 0.864200)">
                    <mask id="mask-2" fill="white">
                        <use xlink:href="#path-1"></use>
                    </mask>
                    <g id="Clip-2"></g>
                    <path d="M2.7558,62.4454 C2.9658,64.2274 4.4758,65.5374 6.2258,65.5374 C6.3638,65.5374 6.5018,65.5274 6.6398,65.5134 C8.5598,65.2854 9.9318,63.5454 9.7058,61.6274 C8.5938,52.2034 8.3718,49.0994 8.0358,44.3974 C7.8878,42.3194 7.7178,39.9394 7.4398,36.5954 C7.6058,27.0474 10.4278,19.6794 15.8278,14.6894 C23.7738,7.3494 35.1678,7.0994 37.8018,7.1454 C37.9658,7.1594 38.1298,7.1754 38.2998,7.1634 C38.5878,7.1794 38.7938,7.1654 38.9958,7.1434 C41.8598,7.1054 53.0298,7.4634 60.8498,14.6894 C66.2498,19.6794 69.0718,27.0474 69.2378,36.5954 C68.9618,39.9394 68.7918,42.3194 68.6418,44.3974 C68.3058,49.0994 68.0838,52.2034 66.9718,61.6274 C66.7458,63.5454 68.1178,65.2854 70.0378,65.5134 C70.1778,65.5274 70.3138,65.5374 70.4518,65.5374 C72.2018,65.5374 73.7138,64.2274 73.9238,62.4454 C75.0538,52.8614 75.2818,49.6934 75.6238,44.8974 C75.7738,42.8034 75.9458,40.4034 76.2278,37.0014 C76.2378,36.8874 76.2418,36.7734 76.2398,36.6614 C76.0758,25.0114 72.4778,15.8714 65.5478,9.5014 C55.2598,0.0374 41.1778,0.0474 38.3438,0.1554 C35.5258,0.0474 21.4298,0.0274 11.1298,9.5014 C4.1998,15.8714 0.6018,25.0114 0.4378,36.6614 C0.4358,36.7734 0.4398,36.8874 0.4498,37.0014 C0.7318,40.4034 0.9038,42.8034 1.0538,44.8974 C1.3958,49.6934 1.6238,52.8614 2.7558,62.4454 Z" id="Fill-1" fill="url(#linearGradient-3)" mask="url(#mask-2)"></path>
                </g>
                <path d="M68.8046,38.7402 C68.7226,39.0342 68.6666,39.3382 68.6666,39.6602 C68.6666,51.8702 61.0746,63.8582 53.3386,63.8582 C45.9006,63.8582 38.3466,52.1382 38.0406,40.3942 C48.3886,39.5562 54.6346,35.2482 58.3566,30.8282 C60.6086,33.4822 64.1246,36.7802 68.8046,38.7402 M60.7286,16.3242 C58.8166,16.0202 57.0246,17.3142 56.7186,19.2202 C56.6126,19.8742 53.8746,35.1842 30.7626,33.4102 C28.8306,33.2562 27.1506,34.7022 27.0046,36.6302 C26.8546,38.5582 28.2966,40.2422 30.2246,40.3882 C30.5086,40.4102 30.7626,40.4022 31.0406,40.4202 C31.3606,54.9482 40.7786,70.8582 53.3386,70.8582 C65.9186,70.8582 75.3466,54.9022 75.6386,40.3562 C75.7706,40.3642 75.8926,40.3902 76.0266,40.3942 C76.0806,40.3982 76.1346,40.4002 76.1866,40.4002 C78.0466,40.4002 79.5966,38.9362 79.6806,37.0582 C79.7686,35.1262 78.2746,33.4902 76.3426,33.4022 C69.1526,33.0762 64.1306,27.0822 62.2826,24.4842 C63.3146,22.0962 63.6186,20.3942 63.6286,20.3362 C63.9346,18.4262 62.6386,16.6282 60.7286,16.3242" id="Fill-4" fill="#6786AC"></path>
                <path d="M85.2412,104.9766 C85.2412,103.0446 83.6732,101.4766 81.7412,101.4766 C79.8092,101.4766 78.2412,103.0446 78.2412,104.9766 L78.2412,113.5966 L64.5672,113.5966 L64.5672,120.5966 L91.6172,120.5966 L91.6172,113.5966 L85.2412,113.5966 L85.2412,104.9766 Z" id="Fill-6" fill="#6786AC"></path>
                <g id="Group-10" transform="translate(0.000000, 68.864200)">
                    <mask id="mask-5" fill="white">
                        <use xlink:href="#path-4"></use>
                    </mask>
                    <g id="Clip-9"></g>
                    <path d="M104.5986,18.8272 L104.5746,18.5612 C102.9366,5.8592 87.0986,2.6992 86.4246,2.5692 L74.9546,0.3812 L74.9526,0.3892 C73.5306,0.1392 72.0486,0.7792 71.2986,2.1052 L53.3386,33.9412 L35.3786,2.1052 C34.6286,0.7772 33.1426,0.1432 31.7246,0.3892 L31.7226,0.3812 L20.2526,2.5692 C19.5806,2.6992 3.7406,5.8592 2.1026,18.5612 L0.0006,59.0012 L7.0086,59.0012 L9.0606,19.3352 C10.1526,11.7672 21.4566,9.4672 21.5626,9.4472 L30.5186,7.7372 L49.8386,41.9852 L49.8386,59.0012 L56.8386,59.0012 L56.8386,41.9852 L76.1586,7.7372 L85.1146,9.4472 C85.2286,9.4672 96.5306,11.8272 97.6166,19.3352 L99.6686,59.0012 L106.6786,59.0012 L104.5986,18.8272 Z" id="Fill-8" fill="#6786AC" mask="url(#mask-5)"></path>
                </g>
            </g>
        </g>
    </g>
</svg>