
<svg width="236px" height="239px" viewBox="0 0 236 239" version="1.1" xmlns="http://www.w3.org/2000/svg" xmlns:xlink="http://www.w3.org/1999/xlink">
    <!-- Generator: Sketch 50.2 (55047) - http://www.bohemiancoding.com/sketch -->
    <desc>Created with Sketch.</desc>
    <defs>
        <polygon id="path-1" points="0 0.9852 117.872 0.9852 117.872 125.9992 0 125.9992"></polygon>
        <linearGradient x1="101.317598%" y1="50%" x2="0%" y2="50%" id="linearGradient-3">
            <stop stop-color="#FD6502" offset="0%"></stop>
            <stop stop-color="#DA4816" offset="100%"></stop>
        </linearGradient>
    </defs>
    <g id="Symbols" stroke="none" stroke-width="1" fill="none" fill-rule="evenodd">
        <g id="icon-knowledge" transform="translate(-16.000000, -12.000000)">
            <path d="M134,251 C254.750348,251 252,198.1696 252,133 C252,67.8303995 239.790523,-2.35352475 134,15 C28.2094767,32.3535248 16,67.8303995 16,133 C16,198.1696 13.2496515,251 134,251 Z" id="Oval" fill-opacity="0.06" fill="#9BCDFF"></path>
            <g id="Page-1" transform="translate(75.000000, 69.000000)">
                <g id="Group-3" transform="translate(0.000000, 0.015600)">
                    <mask id="mask-2" fill="white">
                        <use xlink:href="#path-1"></use>
                    </mask>
                    <g id="Clip-2"></g>
                    <path d="M62.704,0.9852 C50.562,0.9852 38.742,4.3512 27.738,10.8992 C26.966,11.3052 8.958,21.0972 14.61,48.1772 C14.648,51.6772 14.224,55.5672 13.672,56.7652 L1.11,71.5532 C0.852,71.8552 0.648,72.2032 0.504,72.5752 C0.282,73.1632 -0.75,76.2452 1,79.0232 C1.798,80.2892 3.426,81.8512 6.668,82.1872 L12.558,83.4072 C13.536,85.5972 14.894,89.1532 15.07,91.8252 C15.328,95.6612 14.558,100.4532 14.356,101.6132 C13.048,105.3472 12.278,112.2312 17.246,115.9112 C17.5,116.0972 17.782,116.2492 18.074,116.3632 C19.074,116.8832 21.394,118.0892 27.172,118.0892 C31.602,118.0892 37.344,117.3912 44.266,116.0072 C44.828,117.6452 45.606,120.7012 46.246,125.9992 L53.298,125.9992 C51.976,114.3712 49.824,110.6532 48.574,109.4812 C47.734,108.6972 46.57,108.3712 45.446,108.6132 C37.812,110.2552 31.664,111.0892 27.172,111.0892 C23.106,111.0892 21.802,110.4112 21.308,110.1572 C19.68,108.5932 20.66,104.7432 21.024,103.7612 C21.094,103.5752 21.148,103.3772 21.188,103.1772 C21.224,102.9812 21.888,99.4392 22.074,95.4612 L29.278,95.5792 C31.246,95.5812 32.806,94.0512 32.836,92.1412 C32.868,90.2072 31.328,88.6132 29.394,88.5812 L21.634,88.4532 C20.648,83.8272 18.394,79.3252 18.09,78.7352 C17.606,77.7892 16.72,77.1152 15.68,76.9032 L7.888,75.2932 C7.75,75.2652 7.614,75.2432 7.474,75.2332 C7.40333333,75.2265333 11.322,70.4938667 19.23,61.0352 C19.344,60.8992 19.45,60.7532 19.544,60.6012 C21.626,57.2232 21.644,49.8832 21.602,47.7152 C21.598,47.4912 21.57,47.2672 21.524,47.0492 C16.802,25.0852 30.43,17.4032 31.152,17.0072 C41.224,11.0192 51.836,7.9852 62.704,7.9852 C81.328,7.9852 94.54,17.0152 94.598,17.0532 C123.496,38.3452 105.782,70.8272 104.372,73.2992 C97.298,83.5472 93.832,98.9032 93.688,99.5552 C93.648,99.7352 93.622,99.9152 93.61,100.0972 C93.036,109.4372 94.384,119.8092 95.414,125.9992 L102.524,125.9992 C101.556,120.4032 100.062,109.9372 100.578,100.8152 C101.052,98.8112 104.316,85.6332 110.204,77.1712 C110.582,76.5452 133.278,36.8592 98.684,11.3692 C98.078,10.9452 83.626,0.9852 62.704,0.9852 Z" id="Fill-1" fill="#6786AC" mask="url(#mask-2)"></path>
                </g>
                <path d="M95.059,49.5274 C94.145,51.1214 91.435,52.0434 87.427,52.1214 L85.895,52.1514 L85.021,53.4094 C84.997,53.4474 82.241,57.2494 77.757,57.9194 C75.239,58.2974 72.551,57.6014 69.757,55.8874 C69.945,55.6914 70.137,55.5114 70.325,55.3054 C73.125,53.2274 76.517,51.3234 77.537,51.2634 C79.193,51.2114 80.493,49.8234 80.437,48.1674 C80.385,46.5114 78.957,45.1934 77.345,45.2674 C73.789,45.3834 68.133,49.4414 66.485,50.6834 L66.043,51.0894 C63.333,54.1494 60.645,55.6294 58.031,55.4614 C55.719,55.3194 53.719,53.9694 52.315,52.6954 C49.053,49.0714 50.399,42.8514 50.423,42.7494 C50.795,41.1414 49.797,39.5314 48.187,39.1534 C46.573,38.7694 44.961,39.7694 44.579,41.3834 C44.525,41.6094 43.833,44.6954 44.285,48.4054 C38.539,47.1634 35.035,45.2274 34.359,42.8094 C33.535,39.8674 36.607,35.6254 39.373,32.7494 C39.879,32.5774 40.351,32.2734 40.715,31.8294 C40.981,31.5054 41.441,31.2694 42.035,31.1014 C42.305,31.0814 42.575,31.0194 42.839,30.9234 C45.975,30.4334 51.609,31.3174 56.227,32.8354 C56.539,32.9394 56.855,32.9874 57.165,32.9874 C58.427,32.9874 59.599,32.1894 60.015,30.9274 C60.533,29.3554 59.681,27.6594 58.107,27.1414 C56.359,26.5634 50.149,24.6634 44.513,24.8134 C44.563,24.6634 44.583,24.5234 44.665,24.3714 C45.259,23.2654 47.657,20.5834 57.201,19.4854 C61.903,18.9474 65.805,19.7274 67.645,21.5614 C68.915,22.8254 69.387,24.7354 69.091,27.3914 C68.907,29.0394 70.093,30.5214 71.739,30.7054 C73.387,30.8914 74.869,29.7034 75.053,28.0574 C75.213,26.6214 75.197,25.2894 75.043,24.0434 C78.727,24.0034 85.123,24.5554 89.355,28.3714 C91.537,30.3374 92.903,33.0354 93.473,36.3914 C89.025,34.1814 85.325,35.2414 85.103,35.3094 C83.545,35.7834 82.685,37.4054 83.123,38.9774 C83.563,40.5474 85.215,41.4654 86.785,41.0694 C86.953,41.0254 90.871,40.1014 94.861,45.3194 C94.995,45.4914 95.147,45.6414 95.307,45.7774 C95.595,47.0734 95.657,48.4854 95.059,49.5274 M100.281,52.4854 C102.873,47.9254 100.781,42.5494 99.793,40.4974 C99.867,33.3834 97.699,27.8014 93.349,23.8914 C86.435,17.6874 76.203,17.8594 72.613,18.1414 C72.381,17.8554 72.145,17.5734 71.881,17.3134 C67.543,12.9854 60.399,13.0814 56.419,13.5354 C47.407,14.5734 41.673,17.2614 39.379,21.5294 C38.585,23.0074 38.325,24.4314 38.317,25.6594 C38.177,25.7374 38.035,25.8234 37.905,25.9294 C36.695,26.9114 26.173,35.7734 28.579,44.4134 C30.081,49.8094 35.817,53.2334 46.099,54.8634 C46.569,55.4294 47.243,56.1594 48.067,56.9254 C48.277,57.1494 48.477,57.3794 48.711,57.5934 C48.837,57.7074 48.993,57.7614 49.129,57.8514 C51.247,59.5694 54.139,61.2234 57.619,61.4454 C57.895,61.4654 58.169,61.4734 58.441,61.4734 C60.617,61.4734 62.743,60.8994 64.801,59.7814 C68.657,62.5914 72.527,64.0234 76.351,64.0234 C77.117,64.0234 77.881,63.9694 78.643,63.8554 C83.785,63.0854 87.329,59.8654 88.949,58.0634 C94.571,57.6994 98.379,55.8234 100.281,52.4854" id="Fill-4" fill="url(#linearGradient-3)"></path>
            </g>
        </g>
    </g>
</svg>