
<svg width="236px" height="239px" viewBox="0 0 236 239" version="1.1" xmlns="http://www.w3.org/2000/svg" xmlns:xlink="http://www.w3.org/1999/xlink">
    <!-- Generator: Sketch 50.2 (55047) - http://www.bohemiancoding.com/sketch -->
    <desc>Created with Sketch.</desc>
    <defs>
        <linearGradient x1="101.317598%" y1="50%" x2="0%" y2="50%" id="linearGradient-1">
            <stop stop-color="#FD6502" offset="0%"></stop>
            <stop stop-color="#DA4816" offset="100%"></stop>
        </linearGradient>
        <polygon id="path-2" points="0 0.31953889 14.2636567 0.31953889 14.2636567 14.6138 0 14.6138"></polygon>
    </defs>
    <g id="Symbols" stroke="none" stroke-width="1" fill="none" fill-rule="evenodd">
        <g id="icon-idea" transform="translate(-16.000000, -12.000000)">
            <path d="M134,251 C254.750348,251 252,198.1696 252,133 C252,67.8303995 239.790523,-2.35352475 134,15 C28.2094767,32.3535248 16,67.8303995 16,133 C16,198.1696 13.2496515,251 134,251 Z" id="Oval" fill-opacity="0.06" fill="#9BCDFF"></path>
            <g id="Page-1" transform="translate(77.000000, 61.000000)">
                <path d="M68.6464,121.496 L37.0224,121.496 C35.0904,121.496 33.5224,123.062 33.5224,124.996 C33.5224,126.928 35.0904,128.496 37.0224,128.496 L68.6464,128.496 C70.5784,128.496 72.1464,126.928 72.1464,124.996 C72.1464,123.062 70.5784,121.496 68.6464,121.496" id="Fill-1" fill="#6786AC"></path>
                <path d="M61.0136,134.828 L44.6556,134.828 C42.7236,134.828 41.1556,136.394 41.1556,138.328 C41.1556,140.26 42.7236,141.828 44.6556,141.828 L61.0136,141.828 C62.9456,141.828 64.5136,140.26 64.5136,138.328 C64.5136,136.394 62.9456,134.828 61.0136,134.828" id="Fill-3" fill="#6786AC"></path>
                <path d="M81.869,83.8612 C80.347,85.4872 78.761,86.9812 77.225,88.4252 C72.009,93.3312 66.645,98.3772 64.245,107.8792 L56.335,107.8792 L56.335,79.8192 L67.461,68.6512 C68.827,67.2812 68.823,65.0652 67.453,63.7012 C66.081,62.3352 63.867,62.3392 62.503,63.7092 L52.835,73.4092 L43.167,63.7092 C41.799,62.3372 39.585,62.3352 38.217,63.7012 C36.847,65.0652 36.843,67.2812 38.207,68.6512 L49.335,79.8192 L49.335,107.8792 L41.395,107.8792 C39.005,98.4012 33.663,93.3612 28.469,88.4612 C26.945,87.0232 25.369,85.5372 23.861,83.9192 C19.743,78.7812 17.741,72.4332 17.741,64.5212 C17.741,45.6012 33.477,30.2112 52.819,30.2112 C72.179,30.2112 87.929,45.6012 87.929,64.5212 C87.929,73.1112 86.171,78.7292 81.869,83.8612 M52.819,23.2112 C29.583,23.2112 10.741,41.7032 10.741,64.5212 C10.741,75.3352 14.065,82.9792 18.567,88.5072 C26.303,96.8712 34.157,100.5472 35.489,114.8792 L52.819,114.8792 L70.147,114.8792 C71.489,100.5472 79.331,96.8712 87.109,88.5072 C92.339,82.3332 94.929,75.3352 94.929,64.5212 C94.929,41.7032 76.061,23.2112 52.819,23.2112" id="Fill-5" fill="#6786AC"></path>
                <path d="M52.8348,15.9764 C54.7668,15.9764 56.3348,14.4104 56.3348,12.4764 L56.3348,3.5004 C56.3348,1.5684 54.7668,0.0004 52.8348,0.0004 C50.9028,0.0004 49.3348,1.5684 49.3348,3.5004 L49.3348,12.4764 C49.3348,14.4104 50.9028,15.9764 52.8348,15.9764" id="Fill-7" fill="url(#linearGradient-1)"></path>
                <path d="M104.6396,22.168 C103.2716,20.802 101.0556,20.81 99.6896,22.178 L92.4276,29.47 C91.0616,30.842 91.0656,33.058 92.4356,34.42 C93.1196,35.102 94.0136,35.442 94.9056,35.442 C95.8056,35.442 96.7016,35.098 97.3856,34.41 L104.6496,27.12 C106.0136,25.75 106.0096,23.534 104.6396,22.168" id="Fill-9" fill="url(#linearGradient-1)"></path>
                <g id="Group-13" transform="translate(0.000000, 20.828000)">
                    <mask id="mask-3" fill="white">
                        <use xlink:href="#path-2"></use>
                    </mask>
                    <g id="Clip-12"></g>
                    <path d="M13.2334,13.5918 C14.6034,12.2298 14.6074,10.0138 13.2434,8.6418 L5.9794,1.3498 C4.6154,-0.0182 2.3994,-0.0262 1.0294,1.3398 C-0.3406,2.7058 -0.3446,4.9218 1.0214,6.2918 L8.2834,13.5818 C8.9674,14.2698 9.8654,14.6138 10.7634,14.6138 C11.6574,14.6138 12.5514,14.2738 13.2334,13.5918" id="Fill-11" fill="url(#linearGradient-1)" mask="url(#mask-3)"></path>
                </g>
            </g>
        </g>
    </g>
</svg>