
<svg width="18px" height="17px" viewBox="0 0 18 17" version="1.1" xmlns="http://www.w3.org/2000/svg" xmlns:xlink="http://www.w3.org/1999/xlink">
    <!-- Generator: Sketch 50.2 (55047) - http://www.bohemiancoding.com/sketch -->
    <desc>Created with Sketch.</desc>
    <defs></defs>
    <g id="Symbols" stroke="none" stroke-width="1" fill="none" fill-rule="evenodd">
        <g id="footer-/-light" transform="translate(-1224.000000, -116.000000)" fill="#FFFFFF">
            <g id="Group-12">
                <g id="Linkedin" transform="translate(1215.000000, 107.000000)">
                    <path d="M11.0005347,13 C12.1047942,13 13,12.1055949 13,11.001075 C13,9.89557782 12.1047942,9 11.0005347,9 C9.89520585,9 9,9.89557782 9,11.001075 C9,12.1055949 9.89520585,13 11.0005347,13" id="Fill-182"></path>
                    <polygon id="Fill-183" points="9 26 13 26 13 15 9 15"></polygon>
                    <path d="M19.0058469,19.6783619 C19.0058469,18.3442708 19.6337226,17.0396657 21.1350431,17.0396657 C22.6363636,17.0396657 23.0055147,18.3442708 23.0055147,19.6464689 L23.0055147,26 L27,26 L27,19.3867112 C27,14.7921103 24.2983406,14 22.6363636,14 C20.9757819,14 20.0598807,14.5646469 19.0058469,15.9328374 L19.0058469,14.3666695 L15,14.3666695 L15,26 L19.0058469,26 L19.0058469,19.6783619 Z" id="Fill-184"></path>
                </g>
            </g>
        </g>
    </g>
</svg>