
<svg width="1200px" height="336px" viewBox="0 0 1200 336" version="1.1" xmlns="http://www.w3.org/2000/svg" xmlns:xlink="http://www.w3.org/1999/xlink">
    <!-- Generator: Sketch 50.2 (55047) - http://www.bohemiancoding.com/sketch -->
    <desc>Created with Sketch.</desc>
    <defs>
        <linearGradient x1="101.317598%" y1="50%" x2="0%" y2="50%" id="linearGradient-1">
            <stop stop-color="#FD6502" offset="0%"></stop>
            <stop stop-color="#DA4816" offset="100%"></stop>
        </linearGradient>
    </defs>
    <g id="Working" stroke="none" stroke-width="1" fill="none" fill-rule="evenodd">
        <g id="RevCycle_Site_RCM_Events_V2" transform="translate(-360.000000, -370.000000)">
            <g id="Group-12" transform="translate(-4.000000, 125.000000)">
                <path d="M364.96637,553 L1564,552.796029 C1541.5334,474.400482 1501.41539,429.145992 1443.64597,417.032559 C1356.99183,398.862409 1343.1179,484.838704 1265.37951,452.29182 C1187.64112,419.744937 1217.90449,317.478742 1119.39757,324.54595 C1020.89065,331.613158 1031.90413,399.099438 897.740941,346.71045 C763.577754,294.321462 742.617396,391.159756 672.463806,417.032559 C602.310216,442.905362 556.642212,458.235584 455.616445,473.777531 C388.265934,484.138828 358.049242,510.546318 364.96637,553 Z" id="Path-2" fill="#9BCDFF" opacity="0.100000001" transform="translate(964.000000, 438.598519) scale(-1, 1) translate(-964.000000, -438.598519) "></path>
                <g id="Page-1" transform="translate(547.000000, 244.000000)">
                    <path d="M453.9041,117.5426 C450.3591,115.5636 444.8331,111.8946 440.4501,107.4006 L467.3491,107.4006 C462.9671,111.8906 457.4461,115.5606 453.9041,117.5426 M467.4191,133.9876 L440.4061,133.9876 C444.7971,129.4716 450.3491,125.7776 453.9071,123.7866 C457.4681,125.7746 463.0271,129.4666 467.4191,133.9876 M471.7211,154.6096 L436.0911,154.6096 C434.5991,152.1616 433.6631,149.5986 433.6631,147.0196 C433.6631,144.4606 434.5831,141.9176 436.0541,139.4876 L471.7651,139.4876 C473.2321,141.9166 474.1491,144.4586 474.1491,147.0196 C474.1491,149.5986 473.2141,152.1616 471.7211,154.6096 M453.9051,170.2506 C450.3631,168.2686 444.8431,164.5986 440.4621,160.1096 L467.3501,160.1096 C462.9681,164.5986 457.4481,168.2686 453.9051,170.2506 M467.4191,186.6966 L440.4061,186.6966 C444.7971,182.1806 450.3491,178.4866 453.9071,176.4956 C457.4681,178.4836 463.0271,182.1756 467.4191,186.6966 M436.0551,86.7776 L471.7581,86.7776 C473.2291,89.2086 474.1491,91.7506 474.1491,94.3106 C474.1491,96.8896 473.2131,99.4526 471.7211,101.9006 L436.0841,101.9006 C434.5961,99.4546 433.6631,96.8916 433.6631,94.3106 C433.6631,91.7506 434.5841,89.2086 436.0551,86.7776 M453.9051,71.0786 C457.4641,73.0686 463.0151,76.7626 467.4051,81.2776 L440.4061,81.2776 C444.7971,76.7626 450.3481,73.0686 453.9051,71.0786 M440.0551,54.2776 L467.7441,54.2776 C463.3031,58.9546 457.5541,62.7916 453.9041,64.8336 C450.2511,62.7936 444.4971,58.9596 440.0551,54.2776 M479.6491,94.3106 C479.6491,82.2596 466.4101,72.3586 459.3881,67.9556 C466.4101,63.5516 479.6491,53.6506 479.6491,41.6006 L474.1491,41.6006 C474.1491,44.0346 473.3181,46.4556 471.9711,48.7776 L435.8351,48.7776 C434.4911,46.4566 433.6631,44.0366 433.6631,41.6006 L428.1631,41.6006 C428.1631,53.6506 441.4021,63.5516 448.4241,67.9556 C441.4021,72.3586 428.1631,82.2596 428.1631,94.3106 C428.1631,106.3596 441.4021,116.2606 448.4231,120.6646 C441.4021,125.0686 428.1631,134.9686 428.1631,147.0196 C428.1631,159.0696 441.4021,168.9696 448.4231,173.3736 C441.4021,177.7776 428.1631,187.6776 428.1631,199.7286 L433.6631,199.7286 C433.6631,197.1696 434.5831,194.6266 436.0541,192.1966 L471.7651,192.1966 C473.2321,194.6256 474.1491,197.1676 474.1491,199.7286 L479.6491,199.7286 C479.6491,187.6776 466.4101,177.7766 459.3881,173.3736 C466.4101,168.9696 479.6491,159.0696 479.6491,147.0196 C479.6491,134.9686 466.4101,125.0686 459.3881,120.6646 C466.4101,116.2606 479.6491,106.3596 479.6491,94.3106" id="Fill-1" fill="url(#linearGradient-1)"></path>
                    <polygon id="Fill-3" fill="#6786AC" points="461.463 97.06 469.463 97.06 469.463 91.56 461.463 91.56"></polygon>
                    <polygon id="Fill-5" fill="#6786AC" points="445.463 97.06 453.463 97.06 453.463 91.56 445.463 91.56"></polygon>
                    <polygon id="Fill-6" fill="#6786AC" points="461.463 149.769 469.463 149.769 469.463 144.269 461.463 144.269"></polygon>
                    <polygon id="Fill-7" fill="#6786AC" points="445.463 149.769 453.463 149.769 453.463 144.269 445.463 144.269"></polygon>
                    <polygon id="Fill-8" fill="#6786AC" points="526.0403 218.8727 274.3533 218.8727 274.3533 213.3727 520.5403 213.3727 520.5403 27.9567 257.2243 27.9567 257.8093 153.1467 252.3093 153.1807 251.6903 22.4567 526.0403 22.4567"></polygon>
                    <polygon id="Fill-9" fill="#6786AC" points="413.2942 263.0055 366.6722 263.0055 349.5562 238.2815 275.1552 238.2815 275.1552 232.7815 352.4372 232.7815 369.5532 257.5055 410.4132 257.5055 427.5292 232.7815 542.7062 232.7815 542.7062 6.4995 236.0852 6.4995 236.6122 140.8575 231.1122 140.8845 230.5582 0.9995 548.2062 0.9995 548.2062 238.2815 430.4102 238.2815"></polygon>
                    <polygon id="Fill-10" fill="#6786AC" points="412.2268 297.0006 365.0058 297.0006 365.0058 258.7106 370.5058 258.7106 370.5058 291.5006 406.7268 291.5006 406.7268 258.7106 412.2268 258.7106"></polygon>
                    <path d="M495.1941,321.7242 L341.5931,321.7242 L341.5931,316.2242 L489.5811,316.2242 C488.4711,305.4402 479.3321,297.0002 468.2591,297.0002 L331.5931,297.0002 L331.5931,291.5002 L468.2591,291.5002 C483.1111,291.5002 495.1941,303.5832 495.1941,318.4362 L495.1941,321.7242 Z" id="Fill-11" fill="#6786AC"></path>
                    <path d="M276.7229,321.7242 L430.3239,321.7242 L430.3239,316.2242 L282.3359,316.2242 C283.4469,305.4402 292.5849,297.0002 303.6589,297.0002 L318.7779,297.0002 L318.7779,291.5002 L303.6589,291.5002 C288.8059,291.5002 276.7229,303.5832 276.7229,318.4362 L276.7229,321.7242 Z" id="Fill-12" fill="#6786AC"></path>
                    <path d="M389.3889,233.6461 C387.4969,233.6461 385.9589,235.1851 385.9589,237.0781 C385.9589,238.9691 387.4969,240.5081 389.3889,240.5081 C391.2809,240.5081 392.8199,238.9691 392.8199,237.0781 C392.8199,235.1851 391.2809,233.6461 389.3889,233.6461 M389.3889,246.0081 C384.4639,246.0081 380.4589,242.0021 380.4589,237.0781 C380.4589,232.1531 384.4639,228.1461 389.3889,228.1461 C394.3139,228.1461 398.3199,232.1531 398.3199,237.0781 C398.3199,242.0021 394.3139,246.0081 389.3889,246.0081" id="Fill-13" fill="#6786AC"></path>
                    <polygon id="Fill-14" fill="#6786AC" points="293.759 83.83 367.756 83.83 367.756 78.33 293.759 78.33"></polygon>
                    <polygon id="Fill-15" fill="#6786AC" points="293.759 110.756 367.756 110.756 367.756 105.256 293.759 105.256"></polygon>
                    <polygon id="Fill-16" fill="#6786AC" points="293.759 137.683 367.756 137.683 367.756 132.183 293.759 132.183"></polygon>
                    <path d="M297.788,176.042 L308.335,176.042 L308.335,165.494 L297.788,165.494 L297.788,176.042 Z M292.288,181.542 L313.835,181.542 L313.835,159.994 L292.288,159.994 L292.288,181.542 Z" id="Fill-17" fill="#6786AC"></path>
                    <path d="M326.09,176.042 L336.638,176.042 L336.638,165.494 L326.09,165.494 L326.09,176.042 Z M320.59,181.542 L342.138,181.542 L342.138,159.994 L320.59,159.994 L320.59,181.542 Z" id="Fill-18" fill="#6786AC"></path>
                    <path d="M354.393,176.042 L364.942,176.042 L364.942,165.494 L354.393,165.494 L354.393,176.042 Z M348.893,181.542 L370.442,181.542 L370.442,159.994 L348.893,159.994 L348.893,181.542 Z" id="Fill-19" fill="#6786AC"></path>
                    <polygon id="Fill-20" fill="#6786AC" points="16.018 138.804 56.84 138.804 56.84 133.982 16.018 133.982"></polygon>
                    <path d="M86.4646,123.6705 L81.6426,123.6705 C81.6426,117.4965 76.6196,112.4745 70.4466,112.4745 C64.2736,112.4745 59.2506,117.4965 59.2506,123.6705 L54.4286,123.6705 C54.4286,114.8375 61.6136,107.6525 70.4466,107.6525 C79.2786,107.6525 86.4646,114.8375 86.4646,123.6705" id="Fill-21" fill="#6786AC"></path>
                    <path d="M211.1975,123.6705 L206.3755,123.6705 C206.3755,117.4965 201.3525,112.4745 195.1795,112.4745 L70.4465,112.4745 L70.4465,107.6525 L195.1795,107.6525 C204.0115,107.6525 211.1975,114.8375 211.1975,123.6705" id="Fill-22" fill="#6786AC"></path>
                    <polygon id="Fill-23" fill="#6786AC" points="206.376 159.418 211.198 159.418 211.198 123.671 206.376 123.671"></polygon>
                    <path d="M125.0882,288.8004 L84.0542,288.8004 C82.7222,288.8004 81.6432,287.7214 81.6432,286.3894 L81.6432,123.6704 L86.4642,123.6704 L86.4642,283.9784 L125.0882,283.9784 L125.0882,288.8004 Z" id="Fill-24" fill="#6786AC"></path>
                    <path d="M29.6253,244.0104 L2.4113,244.0104 C1.0793,244.0104 0.0003,242.9304 0.0003,241.5994 L0.0003,148.9004 L4.8213,148.9004 L4.8213,239.1884 L29.6253,239.1884 L29.6253,244.0104 Z" id="Fill-25" fill="#6786AC"></path>
                    <polygon id="Fill-26" fill="#6786AC" points="43.232 264.421 84.054 264.421 84.054 259.599 43.232 259.599"></polygon>
                    <polygon id="Fill-27" fill="#6786AC" points="54.428 248.403 59.25 248.403 59.25 123.671 54.428 123.671"></polygon>
                    <path d="M32.0359,150.0001 L27.2139,150.0001 C27.2139,143.8261 22.1909,138.8041 16.0179,138.8041 C9.8449,138.8041 4.8219,143.8261 4.8219,150.0001 L-0.0001,150.0001 C-0.0001,141.1671 7.1859,133.9821 16.0179,133.9821 C24.8499,133.9821 32.0359,141.1671 32.0359,150.0001" id="Fill-28" fill="#6786AC"></path>
                    <path d="M43.2322,264.421 C34.3992,264.421 27.2142,257.235 27.2142,248.403 L27.2142,150 L32.0362,150 L32.0362,248.403 C32.0362,254.577 37.0592,259.599 43.2322,259.599 C49.4052,259.599 54.4282,254.577 54.4282,248.403 L59.2502,248.403 C59.2502,257.235 52.0652,264.421 43.2322,264.421" id="Fill-29" fill="#6786AC"></path>
                    <polygon id="Fill-30" fill="#6786AC" points="100.935 152.725 191.809 152.725 191.809 147.903 100.935 147.903"></polygon>
                    <polygon id="Fill-31" fill="#6786AC" points="100.938 177.804 125.087 177.804 125.087 172.982 100.938 172.982"></polygon>
                    <polygon id="Fill-32" fill="#6786AC" points="100.938 202.883 125.087 202.883 125.087 198.061 100.938 198.061"></polygon>
                    <polygon id="Fill-33" fill="#6786AC" points="100.938 227.963 125.087 227.963 125.087 223.141 100.938 223.141"></polygon>
                    <polygon id="Fill-34" fill="#6786AC" points="100.938 253.042 125.087 253.042 125.087 248.22 100.938 248.22"></polygon>
                    <path d="M149.058,211.353 L239.696,211.353 L239.696,178.523 L149.058,178.523 L149.058,211.353 Z M242.107,216.175 L146.647,216.175 C145.316,216.175 144.237,215.095 144.237,213.764 L144.237,176.112 C144.237,174.781 145.316,173.701 146.647,173.701 L242.107,173.701 C243.439,173.701 244.518,174.781 244.518,176.112 L244.518,213.764 C244.518,215.095 243.439,216.175 242.107,216.175 Z" id="Fill-35" fill="url(#linearGradient-1)"></path>
                    <path d="M149.058,243.009 L164.076,243.009 L164.076,227.991 L149.058,227.991 L149.058,243.009 Z M166.487,247.831 L146.647,247.831 C145.316,247.831 144.237,246.751 144.237,245.42 L144.237,225.58 C144.237,224.249 145.316,223.169 146.647,223.169 L166.487,223.169 C167.818,223.169 168.898,224.249 168.898,225.58 L168.898,245.42 C168.898,246.751 167.818,247.831 166.487,247.831 Z" id="Fill-36" fill="#6786AC"></path>
                    <path d="M224.678,243.009 L239.697,243.009 L239.697,227.991 L224.678,227.991 L224.678,243.009 Z M242.107,247.831 L222.267,247.831 C220.935,247.831 219.856,246.751 219.856,245.42 L219.856,225.58 C219.856,224.249 220.935,223.169 222.267,223.169 L242.107,223.169 C243.439,223.169 244.518,224.249 244.518,225.58 L244.518,245.42 C244.518,246.751 243.439,247.831 242.107,247.831 Z" id="Fill-37" fill="#6786AC"></path>
                    <path d="M186.868,243.009 L201.886,243.009 L201.886,227.991 L186.868,227.991 L186.868,243.009 Z M204.297,247.831 L184.458,247.831 C183.126,247.831 182.047,246.751 182.047,245.42 L182.047,225.58 C182.047,224.249 183.126,223.169 184.458,223.169 L204.297,223.169 C205.628,223.169 206.708,224.249 206.708,225.58 L206.708,245.42 C206.708,246.751 205.628,247.831 204.297,247.831 Z" id="Fill-38" fill="#6786AC"></path>
                    <path d="M149.058,273.472 L164.076,273.472 L164.076,258.454 L149.058,258.454 L149.058,273.472 Z M166.487,278.294 L146.647,278.294 C145.316,278.294 144.237,277.214 144.237,275.883 L144.237,256.044 C144.237,254.713 145.316,253.633 146.647,253.633 L166.487,253.633 C167.818,253.633 168.898,254.713 168.898,256.044 L168.898,275.883 C168.898,277.214 167.818,278.294 166.487,278.294 Z" id="Fill-39" fill="#6786AC"></path>
                    <path d="M224.678,273.472 L239.697,273.472 L239.697,258.454 L224.678,258.454 L224.678,273.472 Z M242.107,278.294 L222.267,278.294 C220.935,278.294 219.856,277.214 219.856,275.883 L219.856,256.044 C219.856,254.713 220.935,253.633 222.267,253.633 L242.107,253.633 C243.439,253.633 244.518,254.713 244.518,256.044 L244.518,275.883 C244.518,277.214 243.439,278.294 242.107,278.294 Z" id="Fill-40" fill="#6786AC"></path>
                    <path d="M186.868,273.472 L201.886,273.472 L201.886,258.454 L186.868,258.454 L186.868,273.472 Z M204.297,278.294 L184.458,278.294 C183.126,278.294 182.047,277.214 182.047,275.883 L182.047,256.044 C182.047,254.713 183.126,253.633 184.458,253.633 L204.297,253.633 C205.628,253.633 206.708,254.713 206.708,256.044 L206.708,275.883 C206.708,277.214 205.628,278.294 204.297,278.294 Z" id="Fill-41" fill="#6786AC"></path>
                    <path d="M149.058,303.936 L164.076,303.936 L164.076,288.918 L149.058,288.918 L149.058,303.936 Z M166.487,308.758 L146.647,308.758 C145.316,308.758 144.237,307.679 144.237,306.347 L144.237,286.507 C144.237,285.176 145.316,284.096 146.647,284.096 L166.487,284.096 C167.818,284.096 168.898,285.176 168.898,286.507 L168.898,306.347 C168.898,307.679 167.818,308.758 166.487,308.758 Z" id="Fill-42" fill="#6786AC"></path>
                    <path d="M224.678,303.936 L239.697,303.936 L239.697,288.918 L224.678,288.918 L224.678,303.936 Z M242.107,308.758 L222.267,308.758 C220.935,308.758 219.856,307.679 219.856,306.347 L219.856,286.507 C219.856,285.176 220.935,284.096 222.267,284.096 L242.107,284.096 C243.439,284.096 244.518,285.176 244.518,286.507 L244.518,306.347 C244.518,307.679 243.439,308.758 242.107,308.758 Z" id="Fill-43" fill="#6786AC"></path>
                    <path d="M186.868,303.936 L201.886,303.936 L201.886,288.918 L186.868,288.918 L186.868,303.936 Z M204.297,308.758 L184.458,308.758 C183.126,308.758 182.047,307.679 182.047,306.347 L182.047,286.507 C182.047,285.176 183.126,284.096 184.458,284.096 L204.297,284.096 C205.628,284.096 206.708,285.176 206.708,286.507 L206.708,306.347 C206.708,307.679 205.628,308.758 204.297,308.758 Z" id="Fill-44" fill="#6786AC"></path>
                    <path d="M252.6785,256.4664 L252.6785,316.4694 L136.0765,316.4694 L136.0765,166.5884 L252.6785,166.5884 L252.6785,197.4184 L257.5005,197.4184 L257.5005,164.1774 C257.5005,162.8454 256.4205,161.7664 255.0895,161.7664 L133.6655,161.7664 C132.3345,161.7664 131.2545,162.8454 131.2545,164.1774 L131.2545,318.8804 C131.2545,320.2114 132.3345,321.2914 133.6655,321.2914 L255.0895,321.2914 C256.4205,321.2914 257.5005,320.2114 257.5005,318.8804 L257.5005,256.4664 L252.6785,256.4664 Z" id="Fill-45" fill="#6786AC"></path>
                    <path d="M831.6912,318.9567 L584.1912,318.9567 C582.7912,318.9567 581.6542,317.8207 581.6542,316.4197 L581.6542,152.3307 L586.7282,152.3307 L586.7282,313.8827 L831.6912,313.8827 L831.6912,318.9567 Z" id="Fill-46" fill="#6786AC"></path>
                    <path d="M614.8777,269.9723 C609.9727,269.9723 605.9827,273.9633 605.9827,278.8683 C605.9827,283.7733 609.9727,287.7643 614.8777,287.7643 C619.7827,287.7643 623.7737,283.7733 623.7737,278.8683 C623.7737,273.9633 619.7827,269.9723 614.8777,269.9723 M614.8777,292.8373 C607.1757,292.8373 600.9097,286.5713 600.9097,278.8683 C600.9097,271.1653 607.1757,264.8983 614.8777,264.8983 C622.5807,264.8983 628.8477,271.1653 628.8477,278.8683 C628.8477,286.5713 622.5807,292.8373 614.8777,292.8373" id="Fill-47" fill="#6786AC"></path>
                    <path d="M683.3494,219.7599 C678.4444,219.7599 674.4534,223.7499 674.4534,228.6559 C674.4534,233.5599 678.4444,237.5519 683.3494,237.5519 C688.2544,237.5519 692.2454,233.5599 692.2454,228.6559 C692.2454,223.7499 688.2544,219.7599 683.3494,219.7599 M683.3494,242.6249 C675.6464,242.6249 669.3794,236.3579 669.3794,228.6559 C669.3794,220.9529 675.6464,214.6859 683.3494,214.6859 C691.0524,214.6859 697.3184,220.9529 697.3184,228.6559 C697.3184,236.3579 691.0524,242.6249 683.3494,242.6249" id="Fill-48" fill="url(#linearGradient-1)"></path>
                    <path d="M758.6667,239.2965 C753.7617,239.2965 749.7717,243.2865 749.7717,248.1925 C749.7717,253.0965 753.7617,257.0875 758.6667,257.0875 C763.5717,257.0875 767.5627,253.0965 767.5627,248.1925 C767.5627,243.2865 763.5717,239.2965 758.6667,239.2965 M758.6667,262.1605 C750.9647,262.1605 744.6987,255.8945 744.6987,248.1925 C744.6987,240.4895 750.9647,234.2225 758.6667,234.2225 C766.3697,234.2225 772.6357,240.4895 772.6357,248.1925 C772.6357,255.8945 766.3697,262.1605 758.6667,262.1605" id="Fill-49" fill="#6786AC"></path>
                    <path d="M818.1326,176.567 C813.2286,176.567 809.2376,180.557 809.2376,185.462 C809.2376,190.367 813.2286,194.358 818.1326,194.358 C823.0376,194.358 827.0286,190.367 827.0286,185.462 C827.0286,180.557 823.0376,176.567 818.1326,176.567 M818.1326,199.431 C810.4316,199.431 804.1646,193.165 804.1646,185.462 C804.1646,177.76 810.4316,171.493 818.1326,171.493 C825.8366,171.493 832.1026,177.76 832.1026,185.462 C832.1026,193.165 825.8366,199.431 818.1326,199.431" id="Fill-50" fill="#6786AC"></path>
                    <polygon id="Fill-51" fill="#6786AC" points="629.6262 271.899 626.3642 268.015 646.9812 250.698 650.2442 254.583"></polygon>
                    <polygon id="Fill-52" fill="#6786AC" points="740.6716 246.527 723.6926 238.205 725.9256 233.649 742.9036 241.971"></polygon>
                    <polygon id="Fill-53" fill="#6786AC" points="774.239 239.214 770.406 235.891 805.656 195.233 809.488 198.556"></polygon>
                    <path d="M683.3601,207.587 C677.9591,207.587 672.5571,209.644 668.4431,213.756 C660.2271,221.973 660.2271,235.343 668.4431,243.559 C671.4271,246.543 675.1861,248.544 679.3161,249.349 C680.6561,249.61 681.9731,249.739 683.3821,249.736 C684.7561,249.736 686.1221,249.601 687.4511,249.335 C690.6301,248.711 693.5361,247.407 696.0961,245.459 C696.8431,244.893 697.5691,244.258 698.2571,243.57 C698.9241,242.903 699.5641,242.172 700.1571,241.399 C706.4921,233.061 705.6781,221.168 698.2571,213.746 C694.1521,209.64 688.7561,207.587 683.3601,207.587 Z M683.2991,254.809 C681.6491,254.809 679.9791,254.648 678.3451,254.328 C673.2221,253.33 668.5561,250.847 664.8561,247.147 C654.6611,236.952 654.6611,220.364 664.8561,210.17 C675.0561,199.969 691.6491,199.963 701.8451,210.159 C711.0511,219.366 712.0591,234.121 704.1901,244.48 C703.4541,245.437 702.6681,246.334 701.8461,247.157 C700.9911,248.01 700.0891,248.798 699.1631,249.499 C696.0301,251.883 692.3191,253.549 688.4391,254.311 C686.7901,254.642 685.0891,254.809 683.3911,254.809 L683.2991,254.809 Z" id="Fill-54" fill="#6786AC"></path>
                    <path d="M709.5515,258.0817 L709.7955,258.3257 L711.4925,256.6277 L711.2475,256.3847 C710.9735,256.6807 710.6965,256.9707 710.4145,257.2507 C710.1315,257.5347 709.8425,257.8117 709.5515,258.0817 M709.7955,264.4507 C709.1235,264.4507 708.4775,264.1837 708.0025,263.7067 L704.0085,259.7137 C703.4895,259.1957 703.2205,258.4777 703.2715,257.7467 C703.3215,257.0147 703.6855,256.3407 704.2705,255.8977 C705.1505,255.2307 706.0105,254.4797 706.8265,253.6647 C707.6135,252.8777 708.3715,252.0117 709.0785,251.0927 C709.5245,250.5147 710.1955,250.1567 710.9245,250.1097 C711.6715,250.0597 712.3645,250.3307 712.8815,250.8457 L716.8735,254.8317 C717.3505,255.3077 717.6175,255.9537 717.6175,256.6257 C717.6175,257.2987 717.3515,257.9447 716.8745,258.4207 L711.5895,263.7067 C711.1135,264.1827 710.4685,264.4507 709.7955,264.4507" id="Fill-55" fill="#6786AC"></path>
                    <path d="M717.0442,255.0514 L717.0532,255.0434 L717.0442,255.0514 Z M711.6032,263.6944 L737.7602,289.8534 C739.1542,291.2454 741.6232,291.2484 743.0192,289.8534 C744.4682,288.4044 744.4682,286.0454 743.0172,284.5954 L716.8592,258.4374 L711.6032,263.6944 Z M740.3902,296.0074 C738.0362,296.0074 735.8282,295.0954 734.1732,293.4404 L706.4142,265.6814 C706.2492,265.5144 706.1092,265.3624 705.9982,265.2134 C705.2362,264.2034 705.3352,262.7864 706.2302,261.8914 L715.0572,253.0644 C715.9572,252.1644 717.3852,252.0704 718.3962,252.8454 C718.5492,252.9634 718.7102,253.1134 718.8462,253.2494 L746.6062,281.0084 C750.0332,284.4374 750.0332,290.0134 746.6062,293.4404 C744.9512,295.0954 742.7442,296.0074 740.3902,296.0074 Z" id="Fill-56" fill="#6786AC"></path>
                    <path d="M683.3494,194.903 C664.7384,194.903 649.5974,210.045 649.5974,228.655 C649.5974,247.267 664.7384,262.408 683.3494,262.408 C701.9594,262.408 717.1014,247.267 717.1014,228.655 C717.1014,210.045 701.9594,194.903 683.3494,194.903 M683.3494,267.482 C661.9404,267.482 644.5234,250.064 644.5234,228.655 C644.5234,207.247 661.9404,189.83 683.3494,189.83 C704.7584,189.83 722.1744,207.247 722.1744,228.655 C722.1744,250.064 704.7584,267.482 683.3494,267.482" id="Fill-57" fill="#6786AC"></path>
                    <path d="M567.9739,172.1354 L564.3869,168.5484 L582.3979,150.5374 C582.8739,150.0614 583.5189,149.7944 584.1919,149.7944 C584.8639,149.7944 585.5099,150.0614 585.9849,150.5374 L603.9949,168.5484 L600.4079,172.1354 L584.1919,155.9184 L567.9739,172.1354 Z" id="Fill-58" fill="#6786AC"></path>
                    <path d="M815.4753,336.2238 L811.8873,332.6368 L828.1043,316.4198 L811.8873,300.2028 L815.4753,296.6148 L833.4853,314.6258 C834.4753,315.6168 834.4753,317.2238 833.4853,318.2138 L815.4753,336.2238 Z" id="Fill-59" fill="#6786AC"></path>
                    <polygon id="Fill-60" fill="#6786AC" points="718.406 131.8981 645.434 131.8981 645.434 126.3981 712.906 126.3981 712.906 95.0901 620.406 95.0901 620.406 126.3981 635.684 126.3981 635.684 131.8981 614.906 131.8981 614.906 89.5901 718.406 89.5901"></polygon>
                    <polygon id="Fill-61" fill="#6786AC" points="597.109 114.595 657.412 114.595 657.412 109.095 597.109 109.095"></polygon>
                    <path d="M724.8523,123.0836 L723.2263,123.0836 L723.2263,117.5836 L724.8523,117.5836 C728.4043,117.5836 731.2933,114.6936 731.2933,111.1426 C731.2933,107.5896 728.4043,104.6996 724.8523,104.6996 L723.2263,104.6996 L723.2263,99.1996 L724.8523,99.1996 C731.4373,99.1996 736.7933,104.5576 736.7933,111.1426 C736.7933,117.7276 731.4373,123.0836 724.8523,123.0836" id="Fill-62" fill="#6786AC"></path>
                    <polygon id="Fill-63" fill="#6786AC" points="735.684 113.596 788.553 113.596 788.553 108.096 735.684 108.096"></polygon>
                    <path d="M583.638,126.398 L588.141,126.398 L588.141,95.09 L583.638,95.09 L583.638,126.398 Z M578.138,131.898 L593.641,131.898 L593.641,89.59 L578.138,89.59 L578.138,131.898 Z" id="Fill-64" fill="url(#linearGradient-1)"></path>
                    <path d="M669.4431,128.1295 L663.9431,128.1295 C663.9431,121.3515 658.8741,116.8225 653.5061,112.0285 C647.7541,106.8905 641.2331,101.0665 641.2331,91.8255 L646.7331,91.8255 C646.7331,98.6045 651.8021,103.1325 657.1701,107.9265 C662.9221,113.0655 669.4431,118.8895 669.4431,128.1295" id="Fill-65" fill="#6786AC"></path>
                    <polygon id="Fill-66" fill="#6786AC" points="659.243 103.735 664.743 103.735 664.743 93.596 659.243 93.596"></polygon>
                    <polygon id="Fill-67" fill="#6786AC" points="671.679 103.735 677.179 103.735 677.179 93.596 671.679 93.596"></polygon>
                    <polygon id="Fill-68" fill="#6786AC" points="684.115 103.735 689.615 103.735 689.615 93.596 684.115 93.596"></polygon>
                    <path d="M631.409,84.115 L639.409,84.115 L639.409,78.615 L631.409,78.615 L631.409,84.115 Z M647.409,84.115 L655.409,84.115 L655.409,78.615 L647.409,78.615 L647.409,84.115 Z M663.409,84.115 L671.409,84.115 L671.409,78.615 L663.409,78.615 L663.409,84.115 Z M679.409,84.115 L687.409,84.115 L687.409,78.615 L679.409,78.615 L679.409,84.115 Z" id="Fill-69" fill="#6786AC"></path>
                </g>
            </g>
        </g>
    </g>
</svg>