
<svg width="1211px" height="416px" viewBox="0 0 1211 416" version="1.1" xmlns="http://www.w3.org/2000/svg" xmlns:xlink="http://www.w3.org/1999/xlink">
    <!-- Generator: Sketch 50.2 (55047) - http://www.bohemiancoding.com/sketch -->
    <desc>Created with Sketch.</desc>
    <defs>
        <polygon id="path-1" points="0 416 1210.58703 416 1210.58703 0.566807114 0 0.566807114"></polygon>
    </defs>
    <g id="Working" stroke="none" stroke-width="1" fill="none" fill-rule="evenodd">
        <g id="RevCycle_About" transform="translate(-355.000000, -355.000000)">
            <g id="Group-12" transform="translate(0.000000, 125.000000)">
                <path d="M360.96637,646 L1560,645.796029 C1537.5334,567.400482 1497.41539,522.145992 1439.64597,510.032559 C1352.99183,491.862409 1339.1179,577.838704 1261.37951,545.29182 C1183.64112,512.744937 1213.90449,410.478742 1115.39757,417.54595 C1016.89065,424.613158 1027.90413,492.099438 893.740941,439.71045 C759.577754,387.321462 738.617396,484.159756 668.463806,510.032559 C598.310216,535.905362 552.642212,551.235584 451.616445,566.777531 C384.265934,577.138828 354.049242,603.546318 360.96637,646 Z" id="Path-2" fill="#9BCDFF" opacity="0.100000001" transform="translate(960.000000, 531.598519) scale(-1, 1) translate(-960.000000, -531.598519) "></path>
                <g id="Page-1" transform="translate(355.000000, 230.000000)">
                    <polygon id="Fill-1" fill="#6786AC" points="76 364 85 364 85 357 76 357"></polygon>
                    <polygon id="Fill-2" fill="#6786AC" points="111 364 120 364 120 357 111 357"></polygon>
                    <polygon id="Fill-3" fill="#6786AC" points="180 339 183 339 183 331 180 331"></polygon>
                    <polygon id="Fill-4" fill="#6786AC" points="170 344 177 344 177 341 170 341"></polygon>
                    <polygon id="Fill-5" fill="#6786AC" points="180 355 183 355 183 348 180 348"></polygon>
                    <polygon id="Fill-6" fill="#6786AC" points="186 344 194 344 194 341 186 341"></polygon>
                    <polygon id="Fill-7" fill="#6786AC" points="152 204 155 204 155 196 152 196"></polygon>
                    <polygon id="Fill-8" fill="#6786AC" points="141 209 148 209 148 206 141 206"></polygon>
                    <polygon id="Fill-9" fill="#6786AC" points="152 219 155 219 155 212 152 212"></polygon>
                    <polygon id="Fill-10" fill="#6786AC" points="158 209 166 209 166 206 158 206"></polygon>
                    <polygon id="Fill-11" fill="#6786AC" points="890 82 893 82 893 74 890 74"></polygon>
                    <polygon id="Fill-12" fill="#6786AC" points="880 87 887 87 887 84 880 84"></polygon>
                    <polygon id="Fill-13" fill="#6786AC" points="890 98 893 98 893 91 890 91"></polygon>
                    <polygon id="Fill-14" fill="#6786AC" points="896 87 904 87 904 84 896 84"></polygon>
                    <g id="Group-179">
                        <path d="M862.902721,390.368482 L859.769842,390.368482 C859.769842,383.087059 862.325702,376.915349 867.367358,372.025215 C883.584846,356.292903 921.072303,357.394648 941.212725,357.987064 C946.117104,358.131042 949.99276,358.24429 951.466922,358.008689 L951.963625,361.098244 C950.195543,361.381647 946.585327,361.275798 941.120448,361.115316 C922.846082,360.578101 884.816922,359.459852 869.54955,374.270818 C865.076939,378.60951 862.902721,383.875239 862.902721,390.368482" id="Fill-15" fill="#6786AC"></path>
                        <path d="M843.026884,414.485612 C834.73387,414.485612 827.015596,410.486094 822.210899,403.743024 L714.308863,403.743024 L714.308863,387.168468 L834.071978,387.168468 L834.071978,388.964496 C834.071978,393.897311 838.089468,397.911057 843.026884,397.911057 C847.964301,397.911057 851.981221,393.897311 851.981221,388.964496 L851.981221,387.168468 L973.504444,387.168468 L973.504444,402.178044 L970.371566,402.178044 L970.371566,390.298427 L855.040619,390.298427 C854.374171,396.332419 849.240237,401.041016 843.026884,401.041016 C836.812962,401.041016 831.679028,396.332419 831.012579,390.298427 L717.441741,390.298427 L717.441741,400.613065 L823.875312,400.613065 L824.339548,401.313037 C828.517669,407.60084 835.503419,411.355653 843.026884,411.355653 C850.549211,411.355653 857.53496,407.60084 861.713081,401.313037 L862.177317,400.613065 L959.433262,400.613065 L959.433262,403.743024 L863.84173,403.743024 C859.037033,410.486094 851.319329,414.485612 843.026884,414.485612" id="Fill-17" fill="#6786AC"></path>
                        <path d="M952.679289,388.324448 L949.54641,388.324448 L949.54641,345.204426 C938.733422,344.672333 871.501277,342.225843 850.623204,361.798899 C846.565841,365.602653 844.593267,369.881591 844.593267,374.879282 L841.460388,374.879282 C841.460388,369.051298 843.822579,363.882314 848.479745,359.515736 C872.080574,337.392617 947.993072,341.95439 951.212532,342.15926 L952.679289,342.25259 L952.679289,388.324448 Z" id="Fill-19" fill="#6786AC"></path>
                        <path d="M734.023043,390.078932 L730.890164,390.078932 L730.890164,341.695457 L732.430401,341.670418 C735.806505,341.619769 815.243206,340.566965 838.224865,363.15161 C842.395011,367.24958 844.509419,371.935413 844.509419,377.07879 L844.593153,384.989619 L841.460274,385.022625 L841.376541,377.095862 C841.376541,372.745219 839.627255,368.919271 836.027863,365.382987 C815.669278,345.37572 745.337861,344.730948 734.023043,344.788995 L734.023043,390.078932 Z" id="Fill-21" fill="#6786AC"></path>
                        <mask id="mask-2" fill="white">
                            <use xlink:href="#path-1"></use>
                        </mask>
                        <g id="Clip-24"></g>
                        <polygon id="Fill-23" fill="#6786AC" mask="url(#mask-2)" points="732.456774 376.682025 750.180323 376.682025 750.180323 373.552066 732.456774 373.552066"></polygon>
                        <path d="M826.479703,390.115581 L823.346824,390.115581 C823.346824,383.729895 821.186847,378.514815 816.743286,374.172708 C801.144968,358.929808 761.84272,359.799367 742.953171,360.217075 C737.528164,360.336582 733.944721,360.416254 732.208536,360.137403 L732.70467,357.047849 C734.158896,357.280035 738.008349,357.194673 742.883678,357.087685 C762.201577,356.66201 802.393562,355.771395 818.934022,371.935072 C823.940932,376.828051 826.479703,382.94456 826.479703,390.115581" id="Fill-25" fill="#6786AC" mask="url(#mask-2)"></path>
                        <polygon id="Fill-26" fill="#6786AC" mask="url(#mask-2)" points="930.386921 376.682025 950.188422 376.682025 950.188422 373.552066 930.386921 373.552066"></polygon>
                        <path d="M762.437568,374.590871 C762.438138,375.669284 763.313635,376.542827 764.393054,376.542258 C765.471904,376.541689 766.346262,375.667576 766.345692,374.588594 C766.345123,373.51075 765.469625,372.636638 764.390776,372.637207 C763.311357,372.637776 762.436999,373.512457 762.437568,374.590871" id="Fill-27" fill="#6786AC" mask="url(#mask-2)"></path>
                        <polygon id="Fill-28" fill="#6786AC" mask="url(#mask-2)" points="840.624251 353.869746 843.75713 353.869746 843.75713 256.63444 840.624251 256.63444"></polygon>
                        <path d="M842.190804,226.409053 C839.49482,228.586935 831.841482,235.313502 831.841482,241.494317 C831.841482,248.979471 836.483839,255.069233 842.190804,255.069233 C847.89777,255.069233 852.540127,248.979471 852.540127,241.494317 C852.540127,235.313502 844.886789,228.586935 842.190804,226.409053 M842.190804,258.199192 C834.756768,258.199192 828.708604,250.705502 828.708604,241.494317 C828.708604,232.443045 840.753668,223.53575 841.265751,223.160724 L842.190804,222.484653 L843.115858,223.160724 C843.627941,223.53575 855.673005,232.443045 855.673005,241.494317 C855.673005,250.705502 849.624841,258.199192 842.190804,258.199192" id="Fill-29" fill="#6786AC" mask="url(#mask-2)"></path>
                        <path d="M862.540617,265.892005 C858.145473,265.892005 852.508,266.545313 849.539171,269.511376 C844.241188,274.804421 843.213604,282.390304 847.248752,286.421691 C849.152972,288.324137 851.924146,289.165242 855.051898,288.791354 C858.319775,288.400963 861.559741,286.746637 864.17484,284.134544 C868.550048,279.763415 867.898979,269.600153 867.533856,266.15606 C866.425387,266.038829 864.622557,265.892005 862.540617,265.892005 M853.606786,292.009521 C850.237518,292.009521 847.241916,290.841193 845.034091,288.634856 C839.777121,283.382785 840.804705,273.81194 847.323941,267.29878 C853.729253,260.897729 868.551187,263.10748 869.178332,263.205363 L870.311295,263.381209 L870.486737,264.512547 C870.584141,265.139677 872.796522,279.946659 866.39007,286.347141 C863.280546,289.453767 859.386093,291.425642 855.423856,291.899119 C854.808103,291.972531 854.201464,292.009521 853.606786,292.009521" id="Fill-30" fill="#6786AC" mask="url(#mask-2)"></path>
                        <path d="M857.616586,320.017191 C848.247001,320.017191 840.624422,313.974663 840.624422,306.547555 L843.757301,306.547555 C843.757301,312.249202 849.974641,316.887232 857.616586,316.887232 C865.245431,316.887232 873.669456,305.725229 873.75319,305.61255 L876.265758,307.482559 C875.884117,307.994165 866.816996,320.017191 857.616586,320.017191" id="Fill-31" fill="#6786AC" mask="url(#mask-2)"></path>
                        <path d="M816.432447,277.68939 C816.066755,281.134052 815.416825,291.296175 819.790893,295.667305 C825.088306,300.96035 832.682404,301.985269 836.717552,297.955021 C840.752699,293.923633 839.725685,286.337751 834.427702,281.044706 C830.053064,276.675283 819.879183,277.324607 816.432447,277.68939 M830.342428,303.523502 C826.004246,303.523502 821.292966,301.59374 817.576233,297.879902 C811.169781,291.47942 813.382163,276.673007 813.478997,276.045877 L813.655008,274.914539 L814.787401,274.738692 C815.415116,274.641948 830.23591,272.431628 836.642362,278.832109 C843.162168,285.345269 844.189182,294.916115 838.932782,300.168186 C836.673122,302.426309 833.613723,303.523502 830.342428,303.523502" id="Fill-32" fill="#6786AC" mask="url(#mask-2)"></path>
                        <path d="M877.322792,299.597964 C877.323931,301.53171 878.894357,303.099535 880.829907,303.098397 C882.766595,303.097259 884.335313,301.528865 884.334174,299.593981 C884.333035,297.659666 882.762608,296.09241 880.826489,296.093549 C878.89037,296.094687 877.321652,297.66365 877.322792,299.597964" id="Fill-33" fill="#6786AC" mask="url(#mask-2)"></path>
                        <path d="M325.362662,270.31128 C324.31742,270.31128 323.334835,270.718175 322.596615,271.456845 C321.856686,272.195515 321.449412,273.176615 321.449412,274.220883 C321.449412,275.265151 321.856686,276.247389 322.596046,276.98606 C324.121473,278.510634 326.604422,278.509496 328.129849,276.98606 C328.869208,276.247389 329.275913,275.265151 329.275913,274.220883 C329.275913,273.176615 328.869208,272.195515 328.129849,271.456845 C327.391059,270.718175 326.407905,270.31128 325.362662,270.31128 M325.362662,281.257031 C323.558124,281.257031 321.754156,280.571285 320.380816,279.198656 C319.049627,277.869277 318.316533,276.101704 318.316533,274.220883 C318.316533,272.340062 319.049627,270.572489 320.380816,269.24311 C321.710865,267.913731 323.480087,267.181321 325.362662,267.181321 C327.245238,267.181321 329.01446,267.913731 330.345079,269.243679 C331.676267,270.573058 332.408791,272.340062 332.408791,274.220883 C332.408791,276.101704 331.676267,277.869277 330.345079,279.198656 C328.971739,280.570716 327.166631,281.257031 325.362662,281.257031" id="Fill-34" fill="#6786AC" mask="url(#mask-2)"></path>
                        <path d="M186.418469,310.453345 C179.214557,310.453345 173.361201,304.606013 173.361201,297.418489 L173.361201,296.897208 C173.361201,289.709115 179.214557,283.861214 186.408216,283.861214 L276.827651,283.861214 L276.827651,161.858828 L176.629078,161.858828 L176.629078,281.515452 L173.496199,281.515452 L173.496199,158.728869 L279.960529,158.728869 L279.960529,286.991173 L186.408216,286.991173 C180.941628,286.991173 176.494079,291.435145 176.494079,296.897208 L176.494079,297.418489 C176.494079,302.879982 180.941628,307.323386 186.408216,307.323386 L220.137927,307.113394 L220.157863,310.243353 L186.418469,310.453345 Z" id="Fill-35" fill="#6786AC" mask="url(#mask-2)"></path>
                        <polygon id="Fill-36" fill="#6786AC" mask="url(#mask-2)" points="184.45592 261.181417 187.588799 261.181417 187.588799 162.639497 184.45592 162.639497"></polygon>
                        <polygon id="Fill-37" fill="#6786AC" mask="url(#mask-2)" points="184.45592 273.694993 187.588799 273.694993 187.588799 265.874079 184.45592 265.874079"></polygon>
                        <polygon id="Fill-38" fill="#6786AC" mask="url(#mask-2)" points="271.348873 211.911311 198.546469 211.911311 198.546469 175.933855 271.348873 175.933855 271.348873 179.063814 201.679348 179.063814 201.679348 208.781352 271.348873 208.781352"></polygon>
                        <polygon id="Fill-39" fill="#6786AC" mask="url(#mask-2)" points="214.986677 225.988728 269.783003 225.988728 269.783003 222.858769 214.986677 222.858769"></polygon>
                        <polygon id="Fill-40" fill="#6786AC" mask="url(#mask-2)" points="214.986677 240.066714 261.955363 240.066714 261.955363 236.936755 214.986677 236.936755"></polygon>
                        <polygon id="Fill-41" fill="#6786AC" mask="url(#mask-2)" points="214.986107 255.707973 243.167205 255.707973 243.167205 252.578014 214.986107 252.578014"></polygon>
                        <polygon id="Fill-42" fill="#6786AC" mask="url(#mask-2)" points="303.848558 195.096716 277.610984 195.096716 277.610984 191.966757 296.285789 191.966757 287.675499 183.36506 296.285789 174.762795 279.176854 174.762795 279.176854 171.632836 303.848558 171.632836 292.105959 183.36506"></polygon>
                        <path d="M327.189415,312.543532 L321.970609,312.543532 C312.185775,312.543532 304.225985,304.59059 304.225985,294.816013 L304.225985,269.78943 C304.225985,261.764216 309.572954,254.719532 317.229709,252.657173 L318.044827,255.679006 C311.752868,257.373737 307.358863,263.176112 307.358863,269.78943 L307.358863,294.816013 C307.358863,302.865129 313.913415,309.413573 321.970609,309.413573 L327.189415,309.413573 C335.24661,309.413573 341.800592,302.865129 341.800592,294.816013 L341.800592,269.78943 C341.800592,263.173835 337.405448,257.37146 331.11121,255.677868 L331.925189,252.656035 C339.584792,254.716117 344.93347,261.761939 344.93347,269.78943 L344.93347,294.816013 C344.93347,304.59059 336.97368,312.543532 327.189415,312.543532" id="Fill-43" fill="#6786AC" mask="url(#mask-2)"></path>
                        <path d="M323.013573,266.427741 L322.230353,222.236135 C322.230353,218.608797 322.230353,212.58391 328.846423,212.58391 L338.7617,212.58391 C342.502357,212.58391 345.545806,209.543297 345.545806,205.806695 L345.545806,192.771839 C345.545806,189.035237 342.502357,185.994624 338.7617,185.994624 L289.856894,184.9293 L289.924678,181.800479 L338.795876,182.865234 C344.229997,182.864665 348.678684,187.309207 348.678684,192.771839 L348.678684,205.806695 C348.678684,211.269327 344.229997,215.713869 338.7617,215.713869 L328.846423,215.713869 C326.233033,215.713869 325.363232,216.652288 325.363232,222.20825 L326.146452,266.37197 L323.013573,266.427741 Z" id="Fill-44" fill="#6786AC" mask="url(#mask-2)"></path>
                        <polygon id="Fill-45" fill="#6786AC" mask="url(#mask-2)" points="186.805579 297.940224 233.69338 297.940224 233.69338 294.810265 186.805579 294.810265"></polygon>
                        <path d="M1191.64092,198.238341 L1188.50804,198.238341 L1188.50804,184.761307 C1188.50804,173.101925 1179.01371,163.615873 1167.34345,163.615873 L1042.04197,163.615873 C1030.37172,163.615873 1020.87682,173.101925 1020.87682,184.761307 L1020.87682,196.024606 L1017.74394,196.024606 L1017.74394,184.761307 C1017.74394,171.375895 1028.64408,160.485914 1042.04197,160.485914 L1167.34345,160.485914 C1180.74078,160.485914 1191.64092,171.375895 1191.64092,184.761307 L1191.64092,198.238341 Z" id="Fill-46" fill="#6786AC" mask="url(#mask-2)"></path>
                        <path d="M1167.34328,413.984876 L1042.0418,413.984876 C1028.64391,413.984876 1017.74377,403.094895 1017.74377,389.709483 L1017.74377,342.997406 L1020.87665,342.997406 L1020.87665,389.709483 C1020.87665,401.368865 1030.37155,410.854917 1042.0418,410.854917 L1167.34328,410.854917 C1179.01354,410.854917 1188.50787,401.368865 1188.50787,389.709483 L1188.50787,342.257598 L1191.64075,342.257598 L1191.64075,389.709483 C1191.64075,403.094895 1180.74118,413.984876 1167.34328,413.984876" id="Fill-47" fill="#6786AC" mask="url(#mask-2)"></path>
                        <polygon id="Fill-48" fill="#6786AC" mask="url(#mask-2)" points="1168.35514 204.496608 1165.22226 204.496608 1165.22226 183.557183 1047.48925 183.557183 1047.48925 196.763903 1044.35637 196.763903 1044.35637 180.427224 1168.35514 180.427224"></polygon>
                        <polygon id="Fill-49" fill="#6786AC" mask="url(#mask-2)" points="1168.35514 365.240431 1044.35637 365.240431 1044.35637 343.734768 1047.48925 343.734768 1047.48925 362.110472 1165.22226 362.110472 1165.22226 338.749597 1168.35514 338.749597"></polygon>
                        <path d="M1097.38815,395.345116 L1111.99648,395.345116 L1111.99648,380.750402 L1097.38815,380.750402 L1097.38815,395.345116 Z M1094.25527,398.475075 L1115.12936,398.475075 L1115.12936,377.620443 L1094.25527,377.620443 L1094.25527,398.475075 Z" id="Fill-50" fill="#6786AC" mask="url(#mask-2)"></path>
                        <path d="M1020.64458,262.577379 L1063.2073,262.577379 L1063.2073,227.31583 L1020.64458,227.31583 L1020.64458,262.577379 Z M1017.51171,265.707338 L1066.34018,265.707338 L1066.34018,224.185871 L1017.51171,224.185871 L1017.51171,265.707338 Z" id="Fill-51" fill="#6786AC" mask="url(#mask-2)"></path>
                        <path d="M1038.11921,239.325711 L1038.11921,252.068058 L1050.09307,245.697169 L1038.11921,239.325711 Z M1037.43454,255.65556 C1036.99935,255.65556 1036.5653,255.53776 1036.17512,255.303297 C1035.43063,254.857136 1034.98633,254.072939 1034.98633,253.205656 L1034.98633,238.188113 C1034.98633,237.32083 1035.43063,236.536633 1036.17512,236.089902 C1036.91903,235.643172 1037.82016,235.619839 1038.58687,236.028441 L1052.69849,243.537497 C1053.49937,243.963741 1053.99607,244.791188 1053.99607,245.697738 C1053.99607,246.603719 1053.4988,247.431166 1052.69849,247.85741 L1038.58687,255.365327 C1038.22288,255.558816 1037.82814,255.65556 1037.43454,255.65556 Z" id="Fill-52" fill="#6786AC" mask="url(#mask-2)"></path>
                        <polygon id="Fill-53" fill="#6786AC" mask="url(#mask-2)" points="1003.4166 282.522616 1078.07936 282.522616 1078.07936 279.392657 1003.4166 279.392657"></polygon>
                        <polygon id="Fill-54" fill="#6786AC" mask="url(#mask-2)" points="1003.41717 297.663081 1045.41483 297.663081 1045.41483 294.533122 1003.41717 294.533122"></polygon>
                        <polygon id="Fill-55" fill="#6786AC" mask="url(#mask-2)" points="1124.28192 233.409007 1206.33771 233.409007 1206.33771 230.279048 1124.28192 230.279048"></polygon>
                        <polygon id="Fill-56" fill="#6786AC" mask="url(#mask-2)" points="1159.58149 253.719595 1206.33771 253.719595 1206.33771 250.589636 1159.58149 250.589636"></polygon>
                        <polygon id="Fill-57" fill="#6786AC" mask="url(#mask-2)" points="1124.28192 253.719595 1164.01707 253.719595 1164.01707 250.589636 1124.28192 250.589636"></polygon>
                        <polygon id="Fill-58" fill="#6786AC" mask="url(#mask-2)" points="1124.28192 274.029614 1206.33771 274.029614 1206.33771 270.899655 1124.28192 270.899655"></polygon>
                        <polygon id="Fill-59" fill="#6786AC" mask="url(#mask-2)" points="1124.28249 294.339633 1169.376 294.339633 1169.376 291.209674 1124.28249 291.209674"></polygon>
                        <path d="M1103.58367,346.037166 C1094.60086,346.037166 1086.11873,341.773592 1080.72847,334.591759 L981.608746,334.591759 L981.608746,331.4618 L1082.33706,331.4618 L1082.80471,332.124213 C1087.57694,338.875819 1095.34477,342.907207 1103.58367,342.907207 C1111.82257,342.907207 1119.5904,338.875819 1124.36263,332.124213 L1124.83655,331.452695 L1210.45813,332.397373 L1210.42395,335.527332 L1126.43204,334.600295 C1121.04178,341.777576 1112.56307,346.037166 1103.58367,346.037166" id="Fill-60" fill="#6786AC" mask="url(#mask-2)"></path>
                        <path d="M1103.58367,330.52856 C1096.93172,330.52856 1091.4281,325.521195 1090.65229,319.081447 L980.042307,319.081447 L980.042307,206.376177 L1068.19639,206.376177 C1081.1665,206.376177 1093.12954,212.862021 1100.19846,223.726393 L1103.7876,229.244227 L1101.1611,230.950908 L1097.57139,225.432506 C1091.08292,215.459887 1080.10132,209.506136 1068.19639,209.506136 L983.175185,209.506136 L983.175185,315.951488 L1093.69175,315.951488 L1093.69175,317.516467 C1093.69175,322.965441 1098.12905,327.398601 1103.58367,327.398601 C1109.03773,327.398601 1113.47503,322.965441 1113.47503,317.516467 L1113.47503,315.935553 L1210.45642,316.887061 L1210.42509,320.01702 L1116.51221,319.095674 C1115.72956,325.528593 1110.22993,330.52856 1103.58367,330.52856" id="Fill-61" fill="#6786AC" mask="url(#mask-2)"></path>
                        <path d="M1104.04096,291.027852 L1100.90808,291.027852 L1100.90808,227.417981 L1104.75127,221.510895 C1112.03094,210.322714 1124.18366,204.160109 1138.97085,204.160109 L1210.58731,204.160109 L1210.58731,207.290068 L1138.97085,207.290068 C1125.28017,207.290068 1114.06048,212.946758 1107.37776,223.217007 L1104.04096,228.345587 L1104.04096,291.027852 Z" id="Fill-62" fill="#6786AC" mask="url(#mask-2)"></path>
                        <path d="M298.625252,328.398936 C296.879384,328.398936 295.458766,329.817661 295.458766,331.561902 C295.458766,333.306143 296.879384,334.724868 298.625252,334.724868 C300.37055,334.724868 301.791168,333.306143 301.791168,331.561902 C301.791168,329.817661 300.37055,328.398936 298.625252,328.398936 M298.625252,337.854827 C295.151744,337.854827 292.325887,335.031604 292.325887,331.561902 C292.325887,328.091631 295.151744,325.268977 298.625252,325.268977 C302.09876,325.268977 304.924047,328.091631 304.924047,331.561902 C304.924047,335.031604 302.09876,337.854827 298.625252,337.854827" id="Fill-63" fill="#6786AC" mask="url(#mask-2)"></path>
                        <path d="M310.731265,370.14263 C310.072791,370.14263 309.40976,370.216042 308.751285,370.364572 C303.948867,371.444124 300.921937,376.227839 302.003634,381.029196 C302.528249,383.353333 303.926652,385.334312 305.941948,386.607921 C307.956673,387.880961 310.347345,388.294115 312.674789,387.768282 L312.675928,387.768282 C315.001663,387.245295 316.98449,385.847626 318.258718,383.833639 C319.532945,381.819084 319.945915,379.428364 319.4213,377.103089 C318.897255,374.779522 317.498852,372.799111 315.483557,371.526072 C314.038445,370.613262 312.400235,370.14263 310.731265,370.14263 Z M310.685696,391.121322 C308.431162,391.121322 306.21878,390.486225 304.267282,389.253021 C301.545095,387.53382 299.656254,384.856851 298.947654,381.716649 C297.486593,375.231374 301.575854,368.769431 308.062622,367.310871 C311.204045,366.601224 314.434327,367.160063 317.157084,368.879834 C319.88041,370.600173 321.76982,373.276572 322.477281,376.415068 C323.185881,379.555839 322.628229,382.78425 320.906855,385.505037 C319.18548,388.226964 316.506584,390.115182 313.363452,390.821415 C312.473715,391.021732 311.576003,391.121322 310.685696,391.121322 Z M304.061651,399.08223 L304.834617,399.308156 C306.339538,399.748058 307.894585,400.017804 309.457607,400.108288 L310.261333,400.154953 L313.976927,406.034154 L319.337567,404.827128 L320.17547,397.9213 L320.880083,397.534892 C322.255132,396.781426 323.545308,395.870892 324.714726,394.830039 L325.315669,394.294531 L332.110029,395.828211 L335.045821,391.18449 L330.744093,385.709338 L330.9708,384.936523 C331.41396,383.430728 331.683957,381.877131 331.774526,380.319549 L331.821234,379.517141 L337.707059,375.801027 L336.497767,370.441968 L329.587776,369.611675 L329.201008,368.908288 C328.442852,367.531106 327.530899,366.242132 326.491353,365.07608 L325.955916,364.475128 L327.492165,357.6871 L322.84753,354.752906 L317.367841,359.048348 L316.596013,358.824129 C315.080839,358.384228 313.524653,358.115051 311.970745,358.024567 L311.168159,357.977902 L307.446299,352.098701 L302.085659,353.304589 L301.254022,360.211555 L300.547131,360.597962 C299.181765,361.344031 297.891589,362.253995 296.712487,363.301678 L296.111544,363.835478 L289.318324,362.304644 L286.381393,366.946657 L290.677993,372.420102 L290.452996,373.19121 C290.014962,374.697005 289.743826,376.253448 289.648131,377.818427 L289.599144,378.618559 L283.717307,382.329552 L284.927167,387.68918 L291.833171,388.521749 L292.221078,389.223429 C292.983222,390.604025 293.895175,391.894706 294.932442,393.058482 L295.46788,393.658296 L293.935048,400.442909 L298.580822,403.377672 L304.061651,399.08223 Z M312.508461,409.573284 L308.463061,403.171664 C307.2082,403.055571 305.962454,402.839888 304.741201,402.527462 L298.77563,407.20362 L290.392617,401.90773 L292.061017,394.522165 C291.25843,393.556999 290.528754,392.524682 289.881103,391.43944 L282.357068,390.532321 L280.174875,380.863593 L286.584175,376.818548 C286.702655,375.565426 286.919678,374.32084 287.230688,373.101295 L282.551876,367.141284 L287.850998,358.765514 L295.248009,360.432359 C296.22148,359.62483 297.25476,358.895265 298.334179,358.255615 L299.239866,350.736884 L308.914195,348.560709 L312.965292,354.961191 C314.213887,355.077284 315.460203,355.292966 316.685443,355.604824 L322.652722,350.926958 L331.035736,356.22228 L329.362779,363.611828 C330.166505,364.578132 330.89618,365.60988 331.541553,366.693984 L339.067867,367.598827 L341.24949,377.267555 L334.84076,381.313169 C334.723989,382.564583 334.507535,383.809738 334.193108,385.030991 L338.874768,390.988726 L333.577355,399.36791 L326.180344,397.698789 C325.211999,398.503473 324.178149,399.231899 323.094173,399.875533 L322.181651,407.39597 L312.508461,409.573284 Z" id="Fill-64" fill="#6786AC" mask="url(#mask-2)"></path>
                        <path d="M279.515376,301.589244 C278.378995,301.520385 277.231792,301.494207 276.076045,301.487378 C275.744529,301.487378 275.415292,301.490793 275.087194,301.497053 L275.024537,298.368232 C275.400482,298.360265 275.776428,298.353436 276.155791,298.357419 C277.336601,298.357419 278.531082,298.393841 279.705627,298.464976 L279.515376,301.589244 Z M266.280388,302.375718 L265.718178,299.296976 C267.247593,299.018125 268.807197,298.799028 270.354839,298.644807 L270.665278,301.7594 C269.201939,301.905655 267.726638,302.112801 266.280388,302.375718 Z M288.278322,302.834399 C286.847451,302.51059 285.382403,302.241983 283.922482,302.034837 L284.363363,298.936177 C285.906448,299.155274 287.455799,299.439247 288.969264,299.780697 L288.278322,302.834399 Z M257.735034,304.661726 L256.681247,301.714443 C258.145156,301.192024 259.648368,300.723668 261.149302,300.321895 L261.959293,303.345436 C260.540384,303.725015 259.119197,304.167761 257.735034,304.661726 Z M249.672713,308.299307 L248.157539,305.55974 C249.517778,304.808549 250.925864,304.104024 252.341926,303.464943 L253.631532,306.31719 C252.29123,306.921556 250.959472,307.588522 249.672713,308.299307 Z M242.297347,313.185458 L240.361798,310.724741 C241.583051,309.765835 242.859556,308.844489 244.155429,307.985173 L245.887626,310.593852 C244.661246,311.406503 243.452525,312.278339 242.297347,313.185458 Z M235.7952,319.187581 L233.492249,317.065469 C234.547175,315.922749 235.660201,314.809622 236.800569,313.757387 L238.92637,316.057053 C237.846951,317.052949 236.793734,318.105753 235.7952,319.187581 Z M230.332599,326.14804 L227.720348,324.420872 C228.577617,323.126776 229.498683,321.850891 230.459053,320.627362 L232.924344,322.5594 C232.015809,323.716347 231.143729,324.923942 230.332599,326.14804 Z M226.057643,333.892128 L223.202167,332.605999 C223.839565,331.191827 224.544178,329.783915 225.295499,328.421529 L228.039332,329.933584 C227.328453,331.221419 226.661435,332.553644 226.057643,333.892128 Z" id="Fill-65" fill="#6786AC" mask="url(#mask-2)"></path>
                        <path d="M239.829265,401.533956 C226.02922,390.44195 218.114999,373.969261 218.114999,356.340763 C218.114999,348.078809 219.82669,340.09343 223.201654,332.606569 L226.05827,333.891559 C222.866151,340.972095 221.247877,348.524971 221.247877,356.340763 C221.247877,373.017184 228.736027,388.599827 241.792726,399.095433 L239.829265,401.533956 Z" id="Fill-66" fill="#6786AC" mask="url(#mask-2)"></path>
                        <path d="M247.640899,406.832976 C246.182686,406.007805 244.741562,405.108084 243.357399,404.157715 L245.132317,401.57806 C246.441861,402.477211 247.804948,403.329129 249.185123,404.109912 L247.640899,406.832976 Z" id="Fill-67" fill="#6786AC" mask="url(#mask-2)"></path>
                        <path d="M276.152772,406.218878 C248.624452,406.218878 226.228357,383.843655 226.228357,356.34099 C226.228357,328.837756 248.624452,306.462534 276.152772,306.462534 C300.200179,306.462534 320.841292,323.578287 325.233588,347.161105 L322.154253,347.733603 C318.037081,325.633248 298.690701,309.592492 276.152772,309.592492 C250.351522,309.592492 229.361235,330.563787 229.361235,356.34099 C229.361235,382.117625 250.351522,403.088919 276.152772,403.088919 C280.005643,403.088919 283.836299,402.620564 287.539931,401.695803 L288.299797,404.732432 C284.347813,405.718654 280.2614,406.218878 276.152772,406.218878" id="Fill-68" fill="#6786AC" mask="url(#mask-2)"></path>
                        <path d="M267.133499,405.438039 L266.222116,402.443522 C269.242781,401.526159 271.272316,398.78773 271.272316,395.631024 C271.272316,391.705486 268.075071,388.51179 264.146441,388.51179 L260.090218,388.51179 C256.350131,388.51179 253.30839,385.472315 253.30839,381.736851 C253.30839,378.00025 256.350131,374.960775 260.090218,374.960775 L276.605045,374.960775 C278.939325,374.960775 281.202972,374.29324 283.151623,373.031582 L284.855909,375.657902 C282.398592,377.249628 279.545394,378.090734 276.605045,378.090734 L260.090218,378.090734 C258.07834,378.090734 256.441269,379.72628 256.441269,381.736851 C256.441269,383.746854 258.07834,385.381831 260.090218,385.381831 L264.146441,385.381831 C269.803281,385.381831 274.405195,389.979456 274.405195,395.631024 C274.405195,400.175724 271.483074,404.117196 267.133499,405.438039" id="Fill-69" fill="#6786AC" mask="url(#mask-2)"></path>
                        <path d="M286.99988,356.824768 C284.841042,353.158733 280.858298,350.881261 276.604988,350.881261 L250.81798,350.881261 C247.078462,350.881261 244.036152,347.841786 244.036152,344.105184 C244.036152,340.369151 247.078462,337.329677 250.81798,337.329677 L266.753509,337.329677 C270.522647,337.329677 273.58945,334.265731 273.58945,330.500106 C273.58945,326.734481 270.522647,323.670536 266.753509,323.670536 L249.658814,323.670536 L249.658814,320.540577 L266.753509,320.540577 C272.250287,320.540577 276.722329,325.008451 276.722329,330.500106 C276.722329,335.992331 272.250287,340.459636 266.753509,340.459636 L250.81798,340.459636 C248.806102,340.459636 247.16903,342.095181 247.16903,344.105184 C247.16903,346.115756 248.806102,347.751302 250.81798,347.751302 L276.604988,347.751302 C281.962781,347.751302 286.981083,350.620051 289.699852,355.237595 L286.99988,356.824768 Z" id="Fill-70" fill="#6786AC" mask="url(#mask-2)"></path>
                        <polygon id="Fill-71" fill="#6786AC" mask="url(#mask-2)" points="859.699495 191.143179 862.832373 191.143179 862.832373 49.0834473 859.699495 49.0834473"></polygon>
                        <polygon id="Fill-72" fill="#6786AC" mask="url(#mask-2)" points="644.002509 191.143179 647.135388 191.143179 647.135388 49.0834473 644.002509 49.0834473"></polygon>
                        <path d="M752.286871,87.6727683 C730.970764,88.4979393 713.884044,106.080341 713.884044,127.574623 C713.884044,149.5936 731.814363,167.50664 753.85331,167.50664 C775.368212,167.50664 792.966446,150.435844 793.792386,129.139603 L752.286871,129.139603 L752.286871,87.6727683 Z M753.85331,170.636599 C730.086723,170.636599 710.751166,151.319061 710.751166,127.574623 C710.751166,103.830755 730.086723,84.5126479 753.85331,84.5126479 L755.419749,84.5126479 L755.419749,126.009644 L796.955454,126.009644 L796.955454,127.574623 C796.955454,151.319061 777.619897,170.636599 753.85331,170.636599 Z" id="Fill-73" fill="#6786AC" mask="url(#mask-2)"></path>
                        <path d="M768.605979,113.49493 L806.978616,113.49493 C806.172611,92.7182621 789.402027,75.9633073 768.605979,75.1580542 L768.605979,113.49493 Z M810.141684,116.624889 L765.4731,116.624889 L765.4731,71.9979338 L767.039539,71.9979338 C790.806126,71.9979338 810.141684,91.3154714 810.141684,115.059909 L810.141684,116.624889 Z" id="Fill-74" fill="#6786AC" mask="url(#mask-2)"></path>
                        <path d="M639.543283,27.774516 C634.427577,27.774516 630.264836,31.9333778 630.264836,37.0448854 C630.264836,42.1558238 634.427577,46.3146856 639.543283,46.3146856 L868.496903,46.3146856 C873.613179,46.3146856 877.774781,42.1558238 877.774781,37.0448854 C877.774781,31.9333778 873.613179,27.774516 868.496903,27.774516 L639.543283,27.774516 Z M868.496903,49.4446446 L639.543283,49.4446446 C632.699368,49.4446446 627.131957,43.882423 627.131957,37.0448854 C627.131957,30.2073477 632.699368,24.644557 639.543283,24.644557 L868.496903,24.644557 C875.340249,24.644557 880.907659,30.2073477 880.907659,37.0448854 C880.907659,43.882423 875.340249,49.4446446 868.496903,49.4446446 Z" id="Fill-75" fill="#6786AC" mask="url(#mask-2)"></path>
                        <path d="M774.866723,18.585241 L771.733845,18.585241 L771.733845,10.5588881 C771.733845,6.77505226 768.652801,3.69687989 764.864866,3.69687989 L737.149713,3.69687989 C733.362347,3.69687989 730.281303,6.77505226 730.281303,10.5588881 L730.281303,17.7549483 L727.148425,17.7549483 L727.148425,10.5588881 C727.148425,5.04959124 731.635276,0.56692093 737.149713,0.56692093 L764.864866,0.56692093 C770.379871,0.56692093 774.866723,5.04959124 774.866723,10.5588881 L774.866723,18.585241 Z" id="Fill-76" fill="#6786AC" mask="url(#mask-2)"></path>
                        <polygon id="Fill-77" fill="#6786AC" mask="url(#mask-2)" points="626.288074 201.135715 845.633439 201.135715 845.633439 198.005756 626.288074 198.005756"></polygon>
                        <polygon id="Fill-78" fill="#6786AC" mask="url(#mask-2)" points="667.258722 103.619852 694.974444 103.619852 694.974444 100.489893 667.258722 100.489893"></polygon>
                        <polygon id="Fill-79" fill="#6786AC" mask="url(#mask-2)" points="667.258722 121.678008 694.974444 121.678008 694.974444 118.548049 667.258722 118.548049"></polygon>
                        <polygon id="Fill-80" fill="#6786AC" mask="url(#mask-2)" points="667.258722 139.736733 694.974444 139.736733 694.974444 136.606774 667.258722 136.606774"></polygon>
                        <path d="M829.574873,98.1799836 L832.707752,98.1799836 L832.707752,93.627316 L829.574873,93.627316 L829.574873,98.1799836 Z M829.574873,107.285319 L832.707752,107.285319 L832.707752,102.732651 L829.574873,102.732651 L829.574873,107.285319 Z M829.574873,116.390654 L832.707752,116.390654 L832.707752,111.837986 L829.574873,111.837986 L829.574873,116.390654 Z M829.574873,125.495989 L832.707752,125.495989 L832.707752,120.943321 L829.574873,120.943321 L829.574873,125.495989 Z M829.574873,134.601324 L832.707752,134.601324 L832.707752,130.048657 L829.574873,130.048657 L829.574873,134.601324 Z M829.574873,143.706659 L832.707752,143.706659 L832.707752,139.153992 L829.574873,139.153992 L829.574873,143.706659 Z" id="Fill-81" fill="#6786AC" mask="url(#mask-2)"></path>
                        <path d="M894.059655,125.02439 C896.315327,125.828505 899.838961,127.099268 905.387005,129.119514 C913.637868,132.125413 918.354274,133.693238 927.183296,133.693238 L1002.31485,133.693238 L1002.31485,115.902551 L927.773416,115.902551 C918.838446,115.902551 913.921536,117.425987 904.8322,120.903656 L894.059655,125.02439 Z M1005.44773,136.823197 L927.183296,136.823197 C917.845039,136.823197 912.664967,135.102288 904.313851,132.060537 C892.158282,127.633068 889.535208,126.741314 889.053315,126.603027 L884.541969,125.314053 L903.711769,117.980275 C912.152883,114.751295 917.830229,112.772592 927.773416,112.772592 L1005.44773,112.772592 L1005.44773,136.823197 Z" id="Fill-82" fill="#6786AC" mask="url(#mask-2)"></path>
                        <polygon id="Fill-83" fill="#6786AC" mask="url(#mask-2)" points="880.640795 126.397417 892.757061 126.397417 892.757061 123.267458 880.640795 123.267458"></polygon>
                        <path d="M1005.44762,120.370596 L1002.31474,120.370596 L1002.31474,111.591346 C1002.31474,109.160221 1001.25924,106.852588 999.419389,105.260861 C997.579535,103.669135 995.140446,102.959488 992.734395,103.304921 L963.003947,107.599794 L962.55566,104.501704 L992.286109,100.206831 C995.596138,99.7293702 998.942052,100.708763 1001.47,102.894612 C1003.99795,105.0816 1005.44762,108.250826 1005.44762,111.591346 L1005.44762,120.370596 Z" id="Fill-84" fill="#6786AC" mask="url(#mask-2)"></path>
                        <path d="M920.342,136.500583 L917.865887,134.582772 C918.140441,134.225957 924.503602,125.738077 917.812343,115.948704 L920.398962,114.183407 C928.402043,125.89173 920.423455,136.395303 920.342,136.500583" id="Fill-85" fill="#6786AC" mask="url(#mask-2)"></path>
                        <path d="M1005.83689,133.693636 L1017.07538,133.693636 L1017.07538,115.833521 L1005.83689,115.833521 L1005.83689,133.693636 Z M1002.70458,136.823595 L1020.20883,136.823595 L1020.20883,112.703562 L1002.70458,112.703562 L1002.70458,136.823595 Z" id="Fill-86" fill="#6786AC" mask="url(#mask-2)"></path>
                        <path d="M1035.47193,133.382291 L1025.35843,133.382291 L1025.35843,130.252332 L1035.47193,130.252332 C1036.51603,130.252332 1037.36533,129.403828 1037.36533,128.361267 L1037.36533,121.181711 C1037.36533,120.13915 1036.51603,119.290077 1035.47193,119.290077 L1025.89102,119.290077 L1025.89102,116.160118 L1035.47193,116.160118 C1038.2431,116.160118 1040.49821,118.41255 1040.49821,121.181711 L1040.49821,128.361267 C1040.49821,131.129858 1038.2431,133.382291 1035.47193,133.382291" id="Fill-87" fill="#6786AC" mask="url(#mask-2)"></path>
                        <path d="M884.076708,270.719256 L965.929714,270.719256 L965.929714,161.723841 L884.076708,161.723841 L884.076708,270.719256 Z M880.944399,273.849215 L969.063162,273.849215 L969.063162,158.593882 L880.944399,158.593882 L880.944399,273.849215 Z" id="Fill-88" fill="#6786AC" mask="url(#mask-2)"></path>
                        <path d="M896.536679,177.830781 C896.536679,179.402589 897.811476,180.676198 899.384751,180.676198 C900.957456,180.676198 902.232253,179.402589 902.232253,177.830781 C902.232253,176.259541 900.957456,174.985364 899.384751,174.985364 C897.811476,174.985364 896.536679,176.259541 896.536679,177.830781" id="Fill-89" fill="#6786AC" mask="url(#mask-2)"></path>
                        <path d="M896.536679,195.502927 C896.536679,197.074167 897.811476,198.348345 899.384751,198.348345 C900.957456,198.348345 902.232253,197.074167 902.232253,195.502927 C902.232253,193.931119 900.957456,192.65751 899.384751,192.65751 C897.811476,192.65751 896.536679,193.931119 896.536679,195.502927" id="Fill-90" fill="#6786AC" mask="url(#mask-2)"></path>
                        <path d="M896.536679,214.393311 C896.536679,215.96512 897.811476,217.238728 899.384751,217.238728 C900.957456,217.238728 902.232253,215.96512 902.232253,214.393311 C902.232253,212.822072 900.957456,211.548463 899.384751,211.548463 C897.811476,211.548463 896.536679,212.822072 896.536679,214.393311" id="Fill-91" fill="#6786AC" mask="url(#mask-2)"></path>
                        <path d="M896.536679,233.284207 C896.536679,234.856015 897.811476,236.129624 899.384751,236.129624 C900.957456,236.129624 902.232253,234.856015 902.232253,233.284207 C902.232253,231.712967 900.957456,230.439359 899.384751,230.439359 C897.811476,230.439359 896.536679,231.712967 896.536679,233.284207" id="Fill-92" fill="#6786AC" mask="url(#mask-2)"></path>
                        <path d="M896.536679,252.175103 C896.536679,253.746911 897.811476,255.02052 899.384751,255.02052 C900.957456,255.02052 902.232253,253.746911 902.232253,252.175103 C902.232253,250.603294 900.957456,249.329685 899.384751,249.329685 C897.811476,249.329685 896.536679,250.603294 896.536679,252.175103" id="Fill-93" fill="#6786AC" mask="url(#mask-2)"></path>
                        <polygon id="Fill-94" fill="#6786AC" mask="url(#mask-2)" points="966.886836 200.724154 911.645072 200.724154 911.645072 177.484494 966.886836 177.484494 966.886836 180.614453 914.777951 180.614453 914.777951 197.594195 966.886836 197.594195"></polygon>
                        <polygon id="Fill-95" fill="#6786AC" mask="url(#mask-2)" points="883.323678 266.536492 966.276609 266.536492 966.276609 263.406534 883.323678 263.406534"></polygon>
                        <polygon id="Fill-96" fill="#6786AC" mask="url(#mask-2)" points="941.268262 217.786528 958.957065 217.786528 958.957065 214.656569 941.268262 214.656569"></polygon>
                        <polygon id="Fill-97" fill="#6786AC" mask="url(#mask-2)" points="941.268262 230.583508 958.957065 230.583508 958.957065 227.453549 941.268262 227.453549"></polygon>
                        <polygon id="Fill-98" fill="#6786AC" mask="url(#mask-2)" points="941.268262 243.380487 958.957065 243.380487 958.957065 240.250528 941.268262 240.250528"></polygon>
                        <path d="M97.2287748,413.625272 C90.6411855,413.625272 84.4978952,410.68937 80.6273661,405.732653 L0.00017088429,405.732653 L0.00017088429,392.723975 L90.47201,392.723975 L90.47201,398.405135 C90.47201,399.811909 91.6169348,400.955767 93.0250213,400.955767 L101.264492,400.955767 C102.672579,400.955767 103.817503,399.811909 103.817503,398.405135 L103.817503,392.723975 L195.937237,392.723975 L195.937237,404.990569 L192.804358,404.990569 L192.804358,395.853934 L106.950382,395.853934 L106.950382,398.405135 C106.950382,401.53737 104.399649,404.085726 101.264492,404.085726 L93.0250213,404.085726 C89.8898642,404.085726 87.3391314,401.53737 87.3391314,398.405135 L87.3391314,395.853934 L3.13304953,395.853934 L3.13304953,402.602694 L82.2182988,402.602694 L82.6870914,403.257709 C85.9287664,407.789321 91.3651652,410.495313 97.2287748,410.495313 C103.091815,410.495313 108.528214,407.789321 111.769889,403.257709 L112.238681,402.602694 L185.307095,402.602694 L185.307095,405.732653 L113.829614,405.732653 C109.959085,410.68937 103.815795,413.625272 97.2287748,413.625272" id="Fill-99" fill="#6786AC" mask="url(#mask-2)"></path>
                        <path d="M100.322179,394.337042 L97.1893006,394.337042 C97.1893006,390.005179 98.9494087,386.310689 102.420069,383.358853 C120.663106,367.83824 182.125628,377.537129 184.732753,377.957113 L186.049701,378.169381 L186.049701,388.5267 L182.916822,388.5267 L182.916822,380.848057 C173.80755,379.512987 120.201718,372.341398 104.450174,385.741605 C101.672735,388.105578 100.322179,390.91685 100.322179,394.337042" id="Fill-100" fill="#6786AC" mask="url(#mask-2)"></path>
                        <path d="M99.0043765,396.08151 L95.8714979,396.08151 C95.8714979,392.222555 94.3631592,389.056744 91.2587613,386.403677 C74.6892509,372.240328 20.5525383,379.171196 11.3720647,380.469275 L11.3720647,388.526927 L8.23918603,388.526927 L8.23918603,377.778079 L9.56353928,377.570933 C12.1928789,377.158917 74.1754588,367.681401 93.2962716,384.025477 C97.0836371,387.263562 99.0043765,391.31942 99.0043765,396.08151" id="Fill-101" fill="#6786AC" mask="url(#mask-2)"></path>
                        <path d="M108.598276,348.272411 L128.311488,348.272411 L134.064023,308.75924 L144.638343,308.75924 L151.665105,269.08445 L108.598276,269.08445 L108.598276,348.272411 Z M131.021713,351.40237 L105.465398,351.40237 L105.465398,265.954491 L155.401205,265.954491 L147.264834,311.889199 L136.774248,311.889199 L131.021713,351.40237 Z" id="Fill-102" fill="#6786AC" mask="url(#mask-2)"></path>
                        <path d="M96.3209805,317.938158 C94.6166945,317.938158 93.2296837,319.323307 93.2296837,321.026005 C93.2296837,322.728703 94.6166945,324.114421 96.3209805,324.114421 C98.0252665,324.114421 99.4117077,322.728703 99.4117077,321.026005 C99.4117077,319.323307 98.0252665,317.938158 96.3209805,317.938158 M96.3209805,327.24438 C92.8890544,327.24438 90.0968051,324.454733 90.0968051,321.026005 C90.0968051,317.597277 92.8890544,314.808199 96.3209805,314.808199 C99.7523371,314.808199 102.544586,317.597277 102.544586,321.026005 C102.544586,324.454733 99.7523371,327.24438 96.3209805,327.24438" id="Fill-103" fill="#6786AC" mask="url(#mask-2)"></path>
                        <polygon id="Fill-104" fill="#6786AC" mask="url(#mask-2)" points="114.447475 310.243239 145.758033 310.243239 145.758033 307.11328 114.447475 307.11328"></polygon>
                        <polygon id="Fill-105" fill="#6786AC" mask="url(#mask-2)" points="121.781714 366.219653 105.465113 366.219653 105.465113 357.245776 108.597991 357.245776 108.597991 363.089694 118.648836 363.089694 118.648836 357.245776 121.781714 357.245776"></polygon>
                        <polygon id="Fill-106" fill="#6786AC" mask="url(#mask-2)" points="87.1759938 366.219653 70.8593922 366.219653 70.8593922 357.245776 73.9922709 357.245776 73.9922709 363.089694 84.0431152 363.089694 84.0431152 357.245776 87.1759938 357.245776"></polygon>
                        <path d="M63.3862235,348.272411 L84.0432861,348.272411 L84.0432861,269.08445 L42.7650467,269.08445 L49.5001661,307.113451 L57.3944507,307.113451 L63.3862235,348.272411 Z M87.1761647,351.40237 L60.6759987,351.40237 L54.6847955,310.24341 L46.8736746,310.24341 L39.0289465,265.954491 L87.1761647,265.954491 L87.1761647,351.40237 Z" id="Fill-107" fill="#6786AC" mask="url(#mask-2)"></path>
                        <path d="M91.1844266,229.435097 L90.9206952,226.31652 C92.4654892,226.1862 94.0353462,226.112219 95.5858363,226.096285 L95.6177347,229.226244 C94.1435729,229.24104 92.6523227,229.311037 91.1844266,229.435097 Z M104.474667,229.791343 C103.018733,229.58875 101.53261,229.438512 100.057309,229.344044 L100.256674,226.220914 C101.809442,226.319365 103.374173,226.47814 104.907574,226.691546 L104.474667,229.791343 Z M82.427746,230.836181 L81.7043358,227.790446 C83.210396,227.433631 84.7512027,227.128033 86.2834652,226.882758 L86.7801689,229.972312 C85.3236651,230.206205 83.8591867,230.496438 82.427746,230.836181 Z M113.150463,231.66249 C111.735541,231.245352 110.288151,230.876585 108.848166,230.565866 L109.508919,227.505904 C111.024662,227.833696 112.548381,228.221242 114.036783,228.660575 L113.150463,231.66249 Z M73.9689737,233.51258 L72.8075301,230.605133 C74.2526416,230.02922 75.7319299,229.501111 77.2043829,229.035031 L78.1499426,232.019305 C76.7504003,232.462052 75.343453,232.964553 73.9689737,233.51258 Z M121.461135,234.782205 C120.119124,234.165319 118.740088,233.589406 117.362191,233.072109 L118.464964,230.141899 C119.912354,230.685943 121.362023,231.290878 122.771818,231.939064 L121.461135,234.782205 Z M65.9710193,237.377226 L64.4125546,234.662129 C65.7636797,233.887606 67.1523993,233.155765 68.5388405,232.485384 L69.9030668,235.303486 C68.5815616,235.941997 67.2589172,236.639124 65.9710193,237.377226 Z M129.255168,239.048055 C128.01113,238.250769 126.724941,237.487059 125.431347,236.779119 L126.937977,234.034999 C128.293089,234.777083 129.641936,235.577215 130.946353,236.412629 L129.255168,239.048055 Z M58.5660334,242.308334 L56.6595343,239.825423 C57.8916101,238.880744 59.1664069,237.968503 60.448039,237.114309 L62.1870715,239.717297 C60.9618311,240.534501 59.7439958,241.405767 58.5660334,242.308334 Z M136.413511,244.328011 C135.281687,243.37252 134.106573,242.444914 132.920636,241.569663 L134.782135,239.052038 C136.022755,239.967694 137.251413,240.937981 138.435072,241.937291 L136.413511,244.328011 Z M51.8576858,248.168755 L49.6515696,245.947053 C50.7532037,244.854982 51.898698,243.78852 53.0572935,242.775551 L55.1204365,245.130988 C54.0108278,246.100706 52.9137507,247.12278 51.8576858,248.168755 Z M142.847874,250.484356 C141.838517,249.391715 140.788149,248.322408 139.725818,247.304886 L141.892631,245.045625 C143.00167,246.106966 144.097608,247.222369 145.149685,248.361674 L142.847874,250.484356 Z M45.9148998,254.819633 L43.4575837,252.877921 C44.4162446,251.66748 45.4221834,250.471267 46.4486284,249.32058 L48.7868951,251.403995 C47.8014624,252.508016 46.8353965,253.656996 45.9148998,254.819633 Z" id="Fill-108" fill="#6786AC" mask="url(#mask-2)"></path>
                        <path d="M91.3318428,247.848077 L90.9735554,244.738036 C92.4813245,244.565034 94.0198527,244.477395 95.546419,244.477395 L95.7167337,244.477964 L95.6825568,247.607923 L95.546419,247.607354 C94.1389021,247.607354 92.7205625,247.688733 91.3318428,247.848077 Z M104.349808,248.674955 C102.941721,248.326676 101.49718,248.060345 100.054916,247.88336 L100.437697,244.776733 C102.003567,244.969083 103.572854,245.258178 105.102268,245.636049 L104.349808,248.674955 Z M82.8565516,249.871737 L81.7674491,246.936974 C83.2421805,246.390085 84.7687468,245.92742 86.3038574,245.559792 L87.0323941,248.604389 C85.6197506,248.942424 84.2145121,249.368668 82.8565516,249.871737 Z M112.495862,251.770769 C111.210243,251.095836 109.871649,250.492038 108.516537,249.977018 L109.630133,247.051929 C111.102586,247.611338 112.556811,248.266353 113.953505,248.999332 L112.495862,251.770769 Z M75.1097972,253.857029 L73.3531067,251.265992 C74.6586627,250.381636 76.0308635,249.567847 77.4304058,248.848525 L78.864125,251.631343 C77.5762271,252.293756 76.3128226,253.04267 75.1097972,253.857029 Z M119.674141,256.713828 C118.584469,255.753215 117.427013,254.84951 116.233102,254.027754 L118.010868,251.450375 C119.306171,252.342698 120.563309,253.323798 121.746968,254.366358 L119.674141,256.713828 Z M68.523347,259.565505 L66.2038776,257.461603 C67.262221,256.296689 68.4025888,255.182993 69.5930827,254.150676 L71.6459726,256.514648 C70.5494651,257.465587 69.4985267,258.492213 68.523347,259.565505 Z" id="Fill-109" fill="#6786AC" mask="url(#mask-2)"></path>
                        <polygon id="Fill-110" fill="#6786AC" mask="url(#mask-2)" points="48.5317079 310.243239 78.1938029 310.243239 78.1938029 307.11328 48.5317079 307.11328"></polygon>
                        <path d="M653.483739,213.113215 L658.040653,213.113215 L658.040653,209.983256 L653.483739,209.983256 L653.483739,213.113215 Z M662.597568,213.113215 L667.154482,213.113215 L667.154482,209.983256 L662.597568,209.983256 L662.597568,213.113215 Z M671.711397,213.113215 L676.268311,213.113215 L676.268311,209.983256 L671.711397,209.983256 L671.711397,213.113215 Z M680.825225,213.113215 L685.38214,213.113215 L685.38214,209.983256 L680.825225,209.983256 L680.825225,213.113215 Z M689.939054,213.113215 L694.495968,213.113215 L694.495968,209.983256 L689.939054,209.983256 L689.939054,213.113215 Z M699.052883,213.113215 L703.609797,213.113215 L703.609797,209.983256 L699.052883,209.983256 L699.052883,213.113215 Z M708.166712,213.113215 L712.723626,213.113215 L712.723626,209.983256 L708.166712,209.983256 L708.166712,213.113215 Z M717.28054,213.113215 L721.837455,213.113215 L721.837455,209.983256 L717.28054,209.983256 L717.28054,213.113215 Z M726.394369,213.113215 L730.951284,213.113215 L730.951284,209.983256 L726.394369,209.983256 L726.394369,213.113215 Z M735.508198,213.113215 L740.065112,213.113215 L740.065112,209.983256 L735.508198,209.983256 L735.508198,213.113215 Z M744.622027,213.113215 L749.178941,213.113215 L749.178941,209.983256 L744.622027,209.983256 L744.622027,213.113215 Z M753.735856,213.113215 L758.29277,213.113215 L758.29277,209.983256 L753.735856,209.983256 L753.735856,213.113215 Z M762.849684,213.113215 L767.406599,213.113215 L767.406599,209.983256 L762.849684,209.983256 L762.849684,213.113215 Z M771.963513,213.113215 L776.520428,213.113215 L776.520428,209.983256 L771.963513,209.983256 L771.963513,213.113215 Z M781.077342,213.113215 L785.634256,213.113215 L785.634256,209.983256 L781.077342,209.983256 L781.077342,213.113215 Z" id="Fill-111" fill="#6786AC" mask="url(#mask-2)"></path>
                        <path d="M6.55056444,295.448777 L17.7463335,295.448777 L17.7463335,284.263442 L6.55056444,284.263442 L6.55056444,295.448777 Z M3.41768579,298.578736 L20.8792121,298.578736 L20.8792121,281.133483 L3.41768579,281.133483 L3.41768579,298.578736 Z" id="Fill-112" fill="#6786AC" mask="url(#mask-2)"></path>
                        <path d="M6.55056444,324.222205 L17.7463335,324.222205 L17.7463335,313.03687 L6.55056444,313.03687 L6.55056444,324.222205 Z M3.41768579,327.352164 L20.8792121,327.352164 L20.8792121,309.906911 L3.41768579,309.906911 L3.41768579,327.352164 Z" id="Fill-113" fill="#6786AC" mask="url(#mask-2)"></path>
                        <path d="M6.55056444,352.995064 L17.7463335,352.995064 L17.7463335,341.809729 L6.55056444,341.809729 L6.55056444,352.995064 Z M3.41768579,356.125023 L20.8792121,356.125023 L20.8792121,338.67977 L3.41768579,338.67977 L3.41768579,356.125023 Z" id="Fill-114" fill="#6786AC" mask="url(#mask-2)"></path>
                        <path d="M310.575931,174.087179 L315.132845,174.087179 L315.132845,170.95722 L310.575931,170.95722 L310.575931,174.087179 Z M319.68976,174.087179 L324.246674,174.087179 L324.246674,170.95722 L319.68976,170.95722 L319.68976,174.087179 Z M328.803588,174.087179 L333.360503,174.087179 L333.360503,170.95722 L328.803588,170.95722 L328.803588,174.087179 Z M337.917417,174.087179 L341.335103,174.087179 L341.335103,170.95722 L337.917417,170.95722 L337.917417,174.087179 Z" id="Fill-115" fill="#6786AC" mask="url(#mask-2)"></path>
                        <path d="M312.236926,220.452684 L315.369805,220.452684 L315.369805,215.900016 L312.236926,215.900016 L312.236926,220.452684 Z M312.236926,229.558019 L315.369805,229.558019 L315.369805,225.005352 L312.236926,225.005352 L312.236926,229.558019 Z M312.236926,238.663354 L315.369805,238.663354 L315.369805,234.110687 L312.236926,234.110687 L312.236926,238.663354 Z M312.236926,247.768689 L315.369805,247.768689 L315.369805,243.216022 L312.236926,243.216022 L312.236926,247.768689 Z" id="Fill-116" fill="#6786AC" mask="url(#mask-2)"></path>
                        <path d="M926.569935,312.853625 L941.786611,312.853625 L941.786611,297.650561 L926.569935,297.650561 L926.569935,312.853625 Z M923.437056,315.983584 L944.91949,315.983584 L944.91949,294.520602 L923.437056,294.520602 L923.437056,315.983584 Z" id="Fill-117" fill="#6786AC" mask="url(#mask-2)"></path>
                        <polygon id="Fill-118" fill="#6786AC" mask="url(#mask-2)" points="872.344932 178.786101 891.772198 178.786101 891.772198 175.656142 872.344932 175.656142"></polygon>
                        <polygon id="Fill-119" fill="#6786AC" mask="url(#mask-2)" points="872.344932 197.676826 891.772198 197.676826 891.772198 194.546867 872.344932 194.546867"></polygon>
                        <polygon id="Fill-120" fill="#6786AC" mask="url(#mask-2)" points="872.344932 216.56812 891.772198 216.56812 891.772198 213.438161 872.344932 213.438161"></polygon>
                        <polygon id="Fill-121" fill="#6786AC" mask="url(#mask-2)" points="872.344932 235.458276 891.772198 235.458276 891.772198 232.328317 872.344932 232.328317"></polygon>
                        <polygon id="Fill-122" fill="#6786AC" mask="url(#mask-2)" points="872.344932 254.349001 891.772198 254.349001 891.772198 251.219042 872.344932 251.219042"></polygon>
                        <polygon id="Fill-123" fill="#7BCCA8" mask="url(#mask-2)" points="636.353102 234.51576 653.863045 274.541106 685.382083 327.371399 693.546364 324.355826 688.799769 306.315312 732.456717 271.221643 754.070732 296.450819 690.453928 370.794743 666.665696 365.985418 644.232576 343.219804 646.64831 304.228483 639.053073 265.266184"></polygon>
                        <path d="M500.583597,214.785125 C500.583597,214.785125 504.909248,257.46866 553.746269,257.848239 C604.14916,258.239768 605.968508,218.581481 605.968508,218.581481 L636.352874,234.515817 L639.053415,265.266241 L640.435299,306.619259 L635.588451,387.456994 L610.383019,383.445524 L597.401509,384.585968 L586.856239,380.343451 L587.74085,372.660824 L494.608912,349.612944 L489.055173,308.559834 L479.37173,307.785311 L500.583597,214.785125 Z" id="Fill-124" fill="#7BCCA8" mask="url(#mask-2)"></path>
                        <polygon id="Fill-125" fill="#7BCCA8" mask="url(#mask-2)" points="500.583597 214.785125 494.181702 219.435106 465.890668 233.851697 476.523658 256.160906 460.342625 240.870772 449.182172 251.872862 444.435576 373.277141 453.169472 395.657486 515.067749 415.999943 577.915004 415.999943 585.372394 379.746482 490.81699 356.698602 468.602032 372.329048 488.538533 349.565711 486.82969 289.052791"></polygon>
                        <path d="M754.423494,288.959348 L752.418452,285.514686 L786.421008,265.76123 L804.520502,245.769329 L810.57778,233.471435 C810.424554,233.568749 810.235442,233.705329 810.009305,233.898248 C809.306401,234.585132 805.478024,240.104672 802.201033,245.028382 L801.901415,245.479096 L790.548433,251.004327 L788.801995,247.423085 L799.180368,242.371331 C801.903124,238.290434 806.292572,231.827353 807.424396,230.864464 C809.11615,229.425252 810.72588,228.941531 812.213713,229.430374 C814.291666,230.111567 814.877229,232.361723 814.937039,232.615534 L815.101088,233.310954 L807.852746,248.029159 L788.962057,268.893465 L788.693769,269.049963 L754.423494,288.959348 Z" id="Fill-126" fill="#445462" mask="url(#mask-2)"></path>
                        <path d="M763.89111,245.303306 L762.226697,241.683366 L776.775786,235.008587 C778.506844,233.416291 788.748509,224.052592 792.641822,221.743251 C793.656875,221.139454 795.351478,221.178721 797.688035,221.857068 L804.981947,216.654507 L810.86948,221.40237 L808.364886,224.502168 L804.833847,221.655044 L798.363598,226.270879 L797.394684,225.942518 C796.323809,225.580012 795.013696,225.290918 794.479398,225.290918 L794.477689,225.290918 C791.150002,227.373194 782.403005,235.235651 779.249051,238.149927 L779.016079,238.365041 L763.89111,245.303306 Z" id="Fill-127" fill="#6786AC" mask="url(#mask-2)"></path>
                        <polygon id="Fill-128" fill="#445462" mask="url(#mask-2)" points="789.624974 243.811682 787.284429 240.586117 796.680786 233.781586 802.149653 227.484677 805.161204 230.095063 799.391581 236.737974"></polygon>
                        <path d="M763.89111,245.303306 L762.226697,241.683366 L776.775786,235.008587 C778.506844,233.416291 788.748509,224.052592 792.641822,221.743251 C793.656875,221.139454 795.351478,221.178721 797.688035,221.857068 L804.981947,216.654507 L810.86948,221.40237 L808.364886,224.502168 L804.833847,221.655044 L798.363598,226.270879 L797.394684,225.942518 C796.323809,225.580012 795.013696,225.290918 794.479398,225.290918 L794.477689,225.290918 C791.150002,227.373194 782.403005,235.235651 779.249051,238.149927 L779.016079,238.365041 L763.89111,245.303306 Z" id="Fill-129" fill="#445462" mask="url(#mask-2)"></path>
                        <path d="M737.916356,264.71719 L733.978043,264.093474 L734.771516,259.092938 C737.08415,244.507329 747.448282,239.342897 751.796718,237.798973 C753.228728,237.208834 761.933574,230.425928 769.512292,224.213244 L771.471196,222.607291 L772.57283,224.887608 C772.864472,225.490837 775.367357,230.889731 773.48763,234.542678 C771.734357,237.95035 762.881412,245.93516 760.55112,248.004347 L758.739746,254.804325 L754.885736,253.779406 L757.008119,245.815083 L757.461532,245.415586 C761.661298,241.722804 768.76268,235.010465 769.941212,232.720473 C770.380954,231.86514 770.205513,230.406579 769.857478,229.074924 C764.748608,233.222973 755.245732,240.803734 753.131324,241.553786 C749.454464,242.858694 740.6881,247.241206 738.709829,259.716653 L737.916356,264.71719 Z" id="Fill-130" fill="#445462" mask="url(#mask-2)"></path>
                        <polygon id="Fill-131" fill="#445462" mask="url(#mask-2)" points="789.624974 243.811682 787.284429 240.586117 796.680786 233.781586 802.149653 227.484677 805.161204 230.095063 799.391581 236.737974"></polygon>
                        <path d="M601.697312,120.514005 L597.924187,119.223893 C598.064882,118.813015 611.744739,77.9932279 590.320406,70.396533 L589.19143,69.9958982 L589.01485,68.8116356 C589.009153,68.7717997 588.207706,63.9556465 584.11161,60.7591048 C578.961157,56.7385302 548.994888,56.4215508 519.730953,64.238481 L518.700521,60.3897696 C545.552709,53.2164728 579.167358,51.8455508 586.567217,57.6189023 C590.600086,60.767072 592.156272,65.0027601 592.699684,67.041217 C616.371715,76.7634386 602.315913,118.707734 601.697312,120.514005" id="Fill-132" fill="#445462" mask="url(#mask-2)"></path>
                        <path d="M580.080905,68.8618856 C578.690476,65.999965 576.754927,65.2425149 574.870643,64.8498473 C569.811898,63.797612 566.564527,63.7754178 561.649325,63.7418419 L560.204214,63.7304602 L560.23896,59.7468761 L561.676097,59.7576886 C566.645982,59.7918337 570.236261,59.8157352 575.683483,60.9499185 C578.06447,61.4450211 581.483295,62.624162 583.668905,67.1221975 L580.080905,68.8618856 Z" id="Fill-133" fill="#445462" mask="url(#mask-2)"></path>
                        <path d="M554.552843,63.9668575 L554.281137,59.9923787 C555.462517,59.9115688 556.644466,59.8495387 557.793948,59.8068575 L557.939769,63.7887343 C556.832439,63.8291393 555.692641,63.888893 554.552843,63.9668575" id="Fill-134" fill="#445462" mask="url(#mask-2)"></path>
                        <path d="M548.844453,64.5348596 L548.320408,60.5859896 C549.500649,60.4289226 550.721332,60.2923425 551.948281,60.179664 L552.315113,64.1461756 C551.140568,64.2548706 549.972859,64.3851907 548.844453,64.5348596" id="Fill-135" fill="#445462" mask="url(#mask-2)"></path>
                        <path d="M592.226905,145.320808 C592.139184,145.320808 592.089628,145.318531 592.082792,145.317962 L592.341397,141.342345 C592.568673,141.3395 598.183931,141.433968 599.66151,131.70947 C599.954862,129.774017 599.467272,127.593289 598.474434,126.40675 C597.962921,125.795555 597.381344,125.502477 596.643694,125.48199 L596.75249,121.499544 C598.635635,121.550761 600.288656,122.363981 601.533263,123.850996 C603.258625,125.912217 604.071464,129.23168 603.604381,132.307576 C601.697882,144.855297 593.425373,145.320808 592.226905,145.320808" id="Fill-136" fill="#445462" mask="url(#mask-2)"></path>
                        <path d="M515.216646,145.321377 C515.114116,145.3191 504.964728,144.919604 504.933969,131.185344 C504.922007,125.803522 508.766904,121.639538 513.877483,121.499544 L513.986849,125.48199 C511.044791,125.56223 508.915003,127.956934 508.922408,131.176808 C508.942914,140.760742 514.68007,141.3082 515.333417,141.3395 L515.216646,145.321377 Z" id="Fill-137" fill="#445462" mask="url(#mask-2)"></path>
                        <path d="M517.253131,161.426837 C516.333204,156.306224 515.382518,150.005332 514.427844,142.699439 C513.220832,133.458662 512.966784,128.265206 512.70647,119.388642 L516.692631,119.27198 C516.948388,128.011964 517.198448,133.121764 518.381537,142.183849 C519.328806,149.426574 520.269239,155.664298 521.178343,160.72345 L517.253131,161.426837 Z" id="Fill-138" fill="#445462" mask="url(#mask-2)"></path>
                        <path d="M512.05654,113.267069 C510.654719,104.670494 510.231496,102.076043 511.809327,90.6932356 L515.760172,91.2401248 C514.263795,102.027671 514.630627,104.272705 515.992575,112.62685 L512.05654,113.267069 Z" id="Fill-139" fill="#445462" mask="url(#mask-2)"></path>
                        <path d="M579.485715,161.225666 L576.433152,158.662514 C576.921881,158.08148 577.400357,157.516949 577.870289,156.962662 C580.446654,153.923756 582.670998,151.299143 585.141985,147.679772 L588.436064,149.924237 C585.848876,153.715471 583.45137,156.543247 580.913738,159.537195 C580.446654,160.088068 579.971596,160.648046 579.485715,161.225666" id="Fill-140" fill="#445462" mask="url(#mask-2)"></path>
                        <path d="M527.296457,160.440387 C523.95339,157.820327 520.359124,154.282335 519.05129,147.900634 L522.958844,147.10164 C524.004656,152.206888 526.844753,155.022713 529.75719,157.305876 L527.296457,160.440387 Z" id="Fill-141" fill="#445462" mask="url(#mask-2)"></path>
                        <path d="M569.799481,160.477093 L562.326711,153.304935 C561.860197,152.857066 561.154445,152.7865 560.608184,153.133071 L560.395718,153.250872 L556.827654,154.944464 C555.569946,155.574439 552.922948,155.54314 551.689733,154.881865 L547.479714,152.694877 C547.078706,152.427977 546.575167,152.386434 546.128019,152.585044 C544.429999,153.336803 542.164643,155.125433 539.765997,157.018773 C538.793666,157.785898 537.787727,158.580338 536.766408,159.348032 L534.370041,156.163441 C535.352626,155.42477 536.339767,154.645695 537.294441,153.892798 C539.895869,151.838407 542.352616,149.89897 544.511454,148.942341 C546.172449,148.205947 548.060721,148.345372 549.587287,149.311676 L553.541549,151.352978 C553.886166,151.430943 554.72236,151.438341 555.074382,151.365498 L555.089191,151.358669 L558.586054,149.698653 C560.671981,148.447238 563.326953,148.740316 565.08934,150.432201 L572.56211,157.603791 L569.799481,160.477093 Z" id="Fill-142" fill="#445462" mask="url(#mask-2)"></path>
                        <polygon id="Fill-143" fill="#445462" mask="url(#mask-2)" points="533.819167 125.53241 537.828112 125.53241 537.828112 121.547688 533.819167 121.547688"></polygon>
                        <polygon id="Fill-144" fill="#445462" mask="url(#mask-2)" points="571.595418 125.701997 575.375378 125.701997 575.375378 121.717275 571.595418 121.717275"></polygon>
                        <polygon id="Fill-145" fill="#445462" mask="url(#mask-2)" points="551.002722 172.237658 558.076192 172.237658 558.076192 168.252936 551.002722 168.252936"></polygon>
                        <path d="M554.212441,164.671864 C549.720463,164.671864 545.448925,162.735842 542.329148,159.169966 L545.331585,156.548198 C549.019837,160.76283 553.457133,160.887459 555.769767,160.581862 C558.712394,160.19773 560.454275,158.922414 560.684968,158.455766 L564.509928,159.571738 C563.942023,161.621577 561.295025,163.464838 557.765695,164.268384 C556.57748,164.539268 555.387555,164.671864 554.212441,164.671864" id="Fill-146" fill="#445462" mask="url(#mask-2)"></path>
                        <path d="M580.73955,124.249696 C576.204851,122.250506 570.231305,122.041653 566.210968,123.740367 L564.65706,120.071486 C569.689602,117.944252 576.798389,118.158227 582.34928,120.604148 L580.73955,124.249696 Z" id="Fill-147" fill="#445462" mask="url(#mask-2)"></path>
                        <path d="M528.482451,124.065769 L526.957024,120.384368 C532.562598,118.065353 539.676511,118.015273 544.657218,120.2586 L543.019008,123.890491 C539.04196,122.099016 533.063858,122.170721 528.482451,124.065769" id="Fill-148" fill="#445462" mask="url(#mask-2)"></path>
                        <path d="M551.002779,145.940995 L551.002779,141.956273 C552.737254,141.956273 556.917653,141.956273 559.884205,141.342231 C559.753193,138.911676 559.498006,134.200803 559.179022,129.896825 L563.156639,129.603178 C563.488724,134.094954 563.752455,139.008989 563.87891,141.370686 C563.913087,142.010905 563.93815,142.478691 563.95296,142.72169 L564.044667,144.226346 L562.620062,144.722587 C559.523069,145.802138 554.785017,145.940995 551.002779,145.940995" id="Fill-149" fill="#445462" mask="url(#mask-2)"></path>
                        <path d="M592.505047,148.506878 L588.595784,147.718698 C590.523359,138.178014 590.998987,129.709483 591.225694,121.979622 L591.254744,121.693943 L591.308857,121.38493 C592.601312,114.028389 595.244322,98.9869439 589.534509,93.3461888 C582.230914,94.4564706 536.908413,100.670862 511.11286,88.1294008 L512.858728,84.5470205 C539.24611,97.3770068 589.323182,89.351223 589.825012,89.2675677 L590.693674,89.1247278 L591.384616,89.6699097 C599.76763,96.286643 596.819876,113.061516 595.236917,122.073521 L595.207297,122.240263 C594.974325,130.107841 594.4799,138.734008 592.505047,148.506878" id="Fill-150" fill="#445462" mask="url(#mask-2)"></path>
                        <polygon id="Fill-151" fill="#445462" mask="url(#mask-2)" points="558.651388 192.695866 523.185493 180.306351 518.002573 164.85915 521.783673 163.592939 526.346283 177.189481 558.339809 188.366849 583.202904 175.436704 587.825894 151.879494 591.739713 152.646619 586.747044 178.085218"></polygon>
                        <path d="M506.237987,121.736055 C506.225455,121.619962 504.934709,110.027732 502.255813,101.749275 C499.592297,93.5152066 496.613784,81.5092531 501.479429,72.3492859 C504.2694,67.0966457 509.289411,63.389067 516.401615,61.3272777 L517.512932,65.1537948 C511.47616,66.9031573 507.26728,69.9528755 505.001924,74.2164487 C500.844879,82.0424843 503.609787,92.9785609 506.050584,100.524038 C508.855934,109.195163 510.148389,120.812432 510.201933,121.302982 L506.237987,121.736055 Z" id="Fill-152" fill="#445462" mask="url(#mask-2)"></path>
                        <path d="M526.195107,113.789999 C521.888254,113.789999 518.385126,117.289863 518.385126,121.592703 L518.385126,123.260686 C518.385126,127.563526 521.888254,131.063958 526.195107,131.063958 L539.92566,131.063958 C544.232514,131.063958 547.735642,127.563526 547.735642,123.260686 L547.735642,121.592703 C547.735642,117.289863 544.232514,113.789999 539.92566,113.789999 L526.195107,113.789999 Z M539.92566,135.047543 L526.195107,135.047543 C519.689543,135.047543 514.396686,129.760188 514.396686,123.260686 L514.396686,121.592703 C514.396686,115.093201 519.689543,109.805846 526.195107,109.805846 L539.92566,109.805846 C546.431225,109.805846 551.724081,115.093201 551.724081,121.592703 L551.724081,123.260686 C551.724081,129.760188 546.431225,135.047543 539.92566,135.047543 Z" id="Fill-153" fill="#445462" mask="url(#mask-2)"></path>
                        <path d="M568.510102,113.789999 C564.202679,113.789999 560.699551,117.289863 560.699551,121.592703 L560.699551,123.260686 C560.699551,127.563526 564.202679,131.063958 568.510102,131.063958 L582.240085,131.063958 C586.547508,131.063958 590.051206,127.563526 590.051206,123.260686 L590.051206,121.592703 C590.051206,117.289863 586.547508,113.789999 582.240085,113.789999 L568.510102,113.789999 Z M582.240085,135.047543 L568.510102,135.047543 C562.003967,135.047543 556.711111,129.760188 556.711111,123.260686 L556.711111,121.592703 C556.711111,115.093201 562.003967,109.805846 568.510102,109.805846 L582.240085,109.805846 C588.746219,109.805846 594.039075,115.093201 594.039075,121.592703 L594.039075,123.260686 C594.039075,129.760188 588.746219,135.047543 582.240085,135.047543 Z" id="Fill-154" fill="#445462" mask="url(#mask-2)"></path>
                        <polygon id="Fill-155" fill="#445462" mask="url(#mask-2)" points="549.730203 123.585007 558.705616 123.585007 558.705616 119.600285 549.730203 119.600285"></polygon>
                        <polygon id="Fill-156" fill="#445462" mask="url(#mask-2)" points="554.349263 214.074852 522.026499 192.809911 523.861796 179.562217 527.810932 180.107399 526.320821 190.865922 554.303693 209.275202 580.517913 191.313221 580.246777 185.64515 584.22952 185.455076 584.606604 193.341435"></polygon>
                        <polygon id="Fill-157" fill="#445462" mask="url(#mask-2)" points="572.081868 240.149345 554.763885 220.660513 540.676754 240.139102 506.878689 201.613859 517.462123 189.540185 520.461712 192.164798 512.180089 201.612721 540.376567 233.752847 554.444331 214.300437 571.484343 233.475703 590.960595 201.558089 586.756841 193.856114 590.256552 191.949115 595.563648 201.66906"></polygon>
                        <polygon id="Fill-158" fill="#445462" mask="url(#mask-2)" points="443.67497 249.354156 440.744304 246.653286 459.105821 226.771787 488.646019 211.00533 500.692792 202.928328 502.914287 206.235841 490.613467 214.471617 461.579087 229.968897"></polygon>
                        <polygon id="Fill-159" fill="#445462" mask="url(#mask-2)" points="510.683656 415.931653 443.229361 396.771182 435.265014 378.639046 439.457375 256.092616 443.442396 256.228058 439.280794 377.868507 446.126419 393.452288 511.773897 412.100583"></polygon>
                        <polygon id="Fill-160" fill="#445462" mask="url(#mask-2)" points="640.661949 230.705007 609.304682 214.568646 597.30063 204.040033 599.931678 201.046654 611.56662 211.251458 642.487563 227.163601"></polygon>
                        <polygon id="Fill-161" fill="#445462" mask="url(#mask-2)" points="580.781246 414.822908 576.862869 414.084807 583.063121 381.233895 491.302244 358.867209 469.854557 376.174175 467.348824 373.075515 490.331052 354.530224 587.682123 378.259296"></polygon>
                        <polygon id="Fill-162" fill="#7BCCA8" mask="url(#mask-2)" points="486.54625 353.360245 484.837407 308.635977 488.821289 308.484032 490.530132 353.207731"></polygon>
                        <polygon id="Fill-163" fill="#445462" mask="url(#mask-2)" points="477.014096 256.518803 458.691313 229.487339 461.993367 227.253117 480.31615 254.284581"></polygon>
                        <polygon id="Fill-164" fill="#445462" mask="url(#mask-2)" points="690.747394 326.987325 658.777791 273.374542 658.723678 273.246498 642.394545 234.458909 646.070266 232.913847 662.345855 271.573962 694.173054 324.948868"></polygon>
                        <polygon id="Fill-165" fill="#445462" mask="url(#mask-2)" points="692.118 373.06089 667.232121 369.289574 637.013512 340.311845 639.774433 337.437404 669.081089 365.540452 690.523649 368.790488 756.383594 291.675128 732.171568 264.451314 686.340402 303.076146 683.769733 300.032118 732.571438 258.90275 761.670184 291.622203"></polygon>
                        <polygon id="Fill-166" fill="#445462" mask="url(#mask-2)" points="638.34396 383.551146 634.362357 383.340016 638.437377 306.648624 635.031084 265.42991 639.004713 265.101549 642.433791 306.590008 642.426386 306.724881"></polygon>
                        <path d="M553.746269,251.553777 C527.116231,251.553777 505.450951,232.2425 505.450951,208.506029 L509.438251,208.506029 C509.438251,230.046407 529.314372,247.570193 553.746269,247.570193 C578.178165,247.570193 598.054287,230.046407 598.054287,208.506029 L602.041587,208.506029 C602.041587,232.2425 580.376307,251.553777 553.746269,251.553777" id="Fill-167" fill="#445462" mask="url(#mask-2)"></path>
                        <polygon id="Fill-168" fill="#445462" mask="url(#mask-2)" points="631.154289 353.354156 627.169267 353.214161 628.945894 302.951573 625.39264 249.957384 629.370826 249.690484 632.937751 302.888405 632.934333 302.990271"></polygon>
                        <path d="M651.288787,408.520764 C637.987724,392.462936 636.602422,391.981492 636.011162,391.775483 C631.846712,390.325459 618.412359,390.681705 616.894337,390.726663 L617.013386,394.70854 C622.344406,394.548627 631.667853,394.623177 634.519342,395.479079 C635.907492,396.57684 642.080402,403.676726 647.628446,410.351505 C647.486042,410.854575 647.266741,411.316102 647.103261,411.386099 C647.099844,411.387806 646.506875,411.489672 645.027017,410.300288 L643.027101,408.693196 L641.963062,411.027007 C641.779076,411.431626 641.383764,412.102006 641.086995,412.433213 C639.299545,412.636944 632.374175,410.510849 626.781132,408.298821 L626.217214,408.07631 L625.625385,408.203784 C624.909379,408.359144 624.162615,408.5293 623.389648,408.705716 C619.73899,409.537716 615.602451,410.481256 611.460786,410.542148 L611.520026,414.525732 C616.080358,414.458581 620.435059,413.464961 624.276538,412.589141 C624.825646,412.463943 625.361084,412.342159 625.881711,412.226635 C630.063819,413.86275 633.224039,414.891084 635.627812,415.515938 L643.610956,415.515938 C643.901459,415.257574 644.174305,414.966203 644.411264,414.656053 C645.972577,415.463013 647.402878,415.594471 648.682232,415.044167 C651.352014,413.893481 651.708593,410.34866 651.740491,409.948594 L651.804288,409.143341 L651.288787,408.520764 Z" id="Fill-169" fill="#445462" mask="url(#mask-2)"></path>
                        <path d="M637.574127,391.407685 C637.581532,391.411668 637.587228,391.415652 637.593494,391.419066 C637.587228,391.415083 637.580962,391.411668 637.574127,391.407685 M646.890169,407.575346 C646.497704,407.575346 646.092709,407.52925 645.678029,407.427384 L646.624728,403.558755 C647.200608,403.695335 647.824336,403.322585 648.328445,402.867887 C643.52147,397.616385 638.431966,392.165704 637.493811,391.362158 C631.323749,387.884489 618.354201,386.54259 617.119847,386.421376 L597.022715,386.580719 L584.627908,381.59441 L586.117449,377.898782 L597.780302,382.590875 L617.290162,382.436653 L617.388135,382.445759 C617.999331,382.501529 632.428231,383.856517 639.580878,387.965299 C639.897583,388.147406 640.737765,388.629419 652.450174,401.470218 L653.4601,402.576517 L652.676311,403.852971 C651.759801,405.344538 649.617482,407.575346 646.890169,407.575346" id="Fill-170" fill="#445462" mask="url(#mask-2)"></path>
                        <path d="M600.877922,415.208063 C592.470415,415.208063 579.735548,409.145618 579.182452,408.880425 L580.907814,405.288939 C581.038256,405.352107 594.02831,411.54089 601.421903,411.212529 L601.599053,415.192129 C601.363233,415.202373 601.122286,415.208063 600.877922,415.208063" id="Fill-171" fill="#445462" mask="url(#mask-2)"></path>
                        <polygon id="Fill-172" fill="#6786AC" mask="url(#mask-2)" points="604.359632 107.419622 638.394087 107.419622 638.394087 103.436038 604.359632 103.436038"></polygon>
                        <polygon id="Fill-173" fill="#6786AC" mask="url(#mask-2)" points="365.457072 415.510361 361.469772 415.510361 361.469772 102.93957 505.37542 103.435811 505.361749 107.419395 365.457072 106.936812"></polygon>
                        <polygon id="Fill-174" fill="#6786AC" mask="url(#mask-2)" points="601.737128 127.762079 638.394087 127.762079 638.394087 123.778495 601.737128 123.778495"></polygon>
                        <polygon id="Fill-175" fill="#445462" mask="url(#mask-2)" points="644.383581 397.649335 705.714522 397.649335 705.714522 393.665751 644.383581 393.665751"></polygon>
                        <polygon id="Fill-176" fill="#6786AC" mask="url(#mask-2)" points="437.306003 397.649278 382.070785 396.638586 382.070785 122.78368 508.920472 123.778438 508.889143 127.762022 386.058085 126.798564 386.058085 392.717032 437.36923 393.665694"></polygon>
                        <polygon id="Fill-177" fill="#445462" mask="url(#mask-2)" points="642.421374 413.31239 631.103137 402.81906 621.205519 402.81906 621.205519 398.835476 632.668438 398.835476 645.133877 410.392422"></polygon>
                        <polygon id="Fill-178" fill="#445462" mask="url(#mask-2)" points="627.168128 360.99467 631.155428 360.99467 631.155428 358.433795 627.168128 358.433795"></polygon>
                    </g>
                </g>
            </g>
        </g>
    </g>
</svg>