
<svg width="734px" height="615px" viewBox="0 0 734 615" version="1.1" xmlns="http://www.w3.org/2000/svg" xmlns:xlink="http://www.w3.org/1999/xlink">
    <!-- Generator: Sketch 50.2 (55047) - http://www.bohemiancoding.com/sketch -->
    <desc>Created with Sketch.</desc>
    <defs>
        <polygon id="path-1" points="0 650 1435 650 1435 0 0 0"></polygon>
    </defs>
    <g id="Working" stroke="none" stroke-width="1" fill="none" fill-rule="evenodd" opacity="0.100000001">
        <g id="RevCycle_Site_R3.3_Alternative" transform="translate(0.000000, -284.000000)">
            <g id="Page-1-Copy" transform="translate(16.500000, 594.000000) scale(-1, 1) translate(-16.500000, -594.000000) translate(-701.000000, 269.000000)">
                <mask id="mask-2" fill="white">
                    <use xlink:href="#path-1"></use>
                </mask>
                <g id="Clip-8"></g>
                <path d="M558.991525,437.998941 L567,446.008021 L575.008475,437.998941 L567,429.991979 L558.991525,437.998941 Z M567,452 L553,437.998941 L567,424 L581,437.998941 L567,452 Z" id="Fill-21" fill="#6786AC" mask="url(#mask-2)"></path>
                <path d="M127.924995,398 L142,412.075005 L156.075005,398 L142,383.924995 L127.924995,398 Z M142,418 L122,398 L142,378 L162,398 L142,418 Z" id="Fill-23" fill="#6786AC" mask="url(#mask-2)"></path>
                <path d="M523,28 L529.285714,28 L529.285714,23 L523,23 L523,28 Z M535.571429,28 L541.857143,28 L541.857143,23 L535.571429,23 L535.571429,28 Z M548.142857,28 L554.428571,28 L554.428571,23 L548.142857,23 L548.142857,28 Z M560.714286,28 L567,28 L567,23 L560.714286,23 L560.714286,28 Z" id="Fill-27" fill="#6786AC" mask="url(#mask-2)"></path>
                <polygon id="Fill-28" fill="#6786AC" mask="url(#mask-2)" points="439 28 518 28 518 23 439 23"></polygon>
                <path d="M421.031204,24.5 L424.498934,27.9673401 L427.968796,24.5 L424.498934,21.0326599 L421.031204,24.5 Z M424.498934,34 L415,24.5 L424.498934,15 L434,24.5 L424.498934,34 Z" id="Fill-29" fill="#6786AC" mask="url(#mask-2)"></path>
                <path d="M148,242 L154.285714,242 L154.285714,237 L148,237 L148,242 Z M160.571429,242 L166.857143,242 L166.857143,237 L160.571429,237 L160.571429,242 Z M173.142857,242 L179.428571,242 L179.428571,237 L173.142857,237 L173.142857,242 Z M185.714286,242 L192,242 L192,237 L185.714286,237 L185.714286,242 Z" id="Fill-30" fill="#6786AC" mask="url(#mask-2)"></path>
                <polygon id="Fill-31" fill="#6786AC" mask="url(#mask-2)" points="65 242 144 242 144 237 65 237"></polygon>
                <path d="M46.0312044,239.501066 L49.4989337,242.968017 L52.9687956,239.501066 L49.4989337,236.034115 L46.0312044,239.501066 Z M49.4989337,249 L40,239.501066 L49.4989337,230 L59,239.501066 L49.4989337,249 Z" id="Fill-32" fill="#6786AC" mask="url(#mask-2)"></path>
                <path d="M275.629821,463 L275,458.822061 C282.104637,457.768604 295.003203,454.642012 301.571641,445.564126 C309.797615,434.195657 306.014433,416.588781 304.616485,411.319385 C300.605631,411.585388 289.879523,412.761291 281.202461,417.830129 L279.04277,414.192641 C290.881705,407.276559 305.556961,407.025334 306.176143,407.016889 L307.742185,407 L308.22519,408.477795 C308.548611,409.465807 316.008587,432.852974 305.029273,448.025711 C297.924636,457.848828 285.119693,461.589761 275.629821,463" id="Fill-33" fill="#6786AC" mask="url(#mask-2)"></path>
                <polygon id="Fill-34" fill="#6786AC" mask="url(#mask-2)" points="284.393796 444 281 441.517829 304.606204 408 308 410.482171"></polygon>
                <path d="M241.040394,392.876498 C238.231411,398.315912 228.85565,418.53451 235.549353,434.418442 C242.25554,450.327674 263.137728,457.424212 268.959606,459.12561 C271.768589,453.686196 281.14435,433.469707 274.450647,417.585775 C267.74446,401.674434 246.862272,394.577896 241.040394,392.876498 Z M271.015365,464 L269.523483,463.645806 C268.335387,463.363293 240.322543,456.475477 231.722893,436.073458 C223.123244,415.671438 237.586386,390.403462 238.206443,389.336662 L238.984635,388 L240.476517,388.354194 C241.664613,388.638815 269.677457,395.526631 278.277107,415.930759 C286.876756,436.332779 272.413614,461.598646 271.793557,462.665446 L271.015365,464 Z" id="Fill-35" fill="#6786AC" mask="url(#mask-2)"></path>
                <polygon id="Fill-36" fill="#6786AC" mask="url(#mask-2)" points="268.15414 461 238 390.63589 241.84586 389 272 459.36411"></polygon>
                <path d="M441.998963,566 C427.419388,566 416,534.593144 416,494.497898 C416,454.404754 427.419388,423 441.998963,423 C456.578538,423 468,454.404754 468,494.497898 C468,510.306436 466.227061,525.248868 462.871954,537.717012 L458.869881,536.609153 C462.129601,524.500485 463.852773,509.936449 463.852773,494.497898 C463.852773,454.244987 452.551581,427.204398 441.998963,427.204398 C431.446345,427.204398 420.147227,454.244987 420.147227,494.497898 C420.147227,534.755013 431.446345,561.795602 441.998963,561.795602 C446.057024,561.795602 449.449456,557.832956 451.579057,554.509379 L455.056506,556.800776 C451.199585,562.81727 446.683256,566 441.998963,566" id="Fill-37" fill="#6786AC" mask="url(#mask-2)"></path>
                <path d="M458.5,541.317691 C455.641364,541.317691 453.318182,543.642768 453.318182,546.498921 C453.318182,549.357232 455.641364,551.682309 458.5,551.682309 C461.358636,551.682309 463.681818,549.357232 463.681818,546.498921 C463.681818,543.642768 461.358636,541.317691 458.5,541.317691 M458.5,556 C453.262045,556 449,551.738439 449,546.498921 C449,541.261561 453.262045,537 458.5,537 C463.737955,537 468,541.261561 468,546.498921 C468,551.738439 463.737955,556 458.5,556" id="Fill-38" fill="#6786AC" mask="url(#mask-2)"></path>
                <path d="M397.301799,537 C388.931883,537 383.097156,534.659435 380.45879,530.110317 C373.057468,517.351411 394.503404,491.705781 429.28225,471.724023 C442.992068,463.847405 456.855597,457.948848 469.373623,454.673734 L470.443288,458.726242 C458.283221,461.909158 444.77765,467.658942 431.385783,475.35326 C396.467966,495.414643 378.749011,518.780476 384.105757,528.014914 C386.828349,532.708616 395.581492,534.043387 408.112152,531.679773 C421.550342,529.144336 437.696385,522.724023 453.577117,513.598546 C469.455743,504.477259 483.117131,493.771848 492.042936,483.458277 C500.366529,473.838284 503.579734,465.628497 500.857143,460.936891 C498.795722,457.385184 493.636905,456.391964 489.674092,456.186614 L489.895184,452 C497.073309,452.372982 502.124738,454.740786 504.50411,458.841489 C508.231092,465.265993 504.939977,474.978183 495.23298,486.192777 C486.008174,496.854185 471.961454,507.876001 455.682756,517.227783 C439.401952,526.581659 422.788458,533.175891 408.897555,535.797239 C404.63153,536.601874 400.750836,537 397.301799,537" id="Fill-39" fill="#6786AC" mask="url(#mask-2)"></path>
                <path d="M480.491968,450.318507 C479.594281,450.318507 478.709542,450.553704 477.911118,451.015468 C476.713483,451.708113 475.854639,452.823682 475.496427,454.159344 C475.140373,455.495006 475.321637,456.893244 476.014323,458.090808 C476.707009,459.286215 477.822644,460.145009 479.160543,460.503199 C480.494126,460.86139 481.890288,460.677979 483.090081,459.983176 C484.287716,459.292688 485.144402,458.177119 485.502614,456.839299 C485.860825,455.503637 485.677404,454.109715 484.986876,452.909993 C484.294189,451.712429 483.176397,450.855792 481.840656,450.497602 C481.39397,450.376767 480.940811,450.318507 480.491968,450.318507 M480.515705,465 C479.691387,465 478.860595,464.889954 478.04275,464.669861 C475.591375,464.016055 473.545685,462.443038 472.276839,460.248582 C471.007993,458.051968 470.67136,455.492848 471.327362,453.043775 C471.985522,450.592544 473.556474,448.546974 475.753217,447.278203 C477.947803,446.007275 480.504915,445.670662 482.958449,446.328783 C485.407666,446.984746 487.455514,448.557763 488.722202,450.752219 C489.991048,452.948833 490.329838,455.505795 489.671679,457.957026 C489.015677,460.408257 487.444725,462.453827 485.247982,463.722598 C483.784925,464.568445 482.160025,465 480.515705,465" id="Fill-40" fill="#6786AC" mask="url(#mask-2)"></path>
                <path d="M487.666819,537 C484.21669,537 480.339241,536.601729 476.074469,535.796801 C462.187645,533.174499 445.576924,526.577867 429.303007,517.220586 C415.59511,509.343197 403.535445,500.340167 394.429124,491.18831 L397.418254,488.234814 C406.267762,497.128842 418.020094,505.895005 431.408028,513.590027 C447.284096,522.718827 463.425397,529.141477 476.859642,531.677837 C489.390832,534.046503 498.137194,532.707054 500.856881,528.011644 C503.580778,523.31833 500.368516,515.105555 492.047368,505.484157 C483.124184,495.166832 469.466808,484.45962 453.590739,475.330821 C418.683176,455.262136 389.497059,451.673501 384.141886,460.909205 C382.08107,464.464301 383.794558,469.407058 385.596455,472.928616 L381.845308,474.831934 C378.582525,468.453303 378.117316,462.915235 380.493885,458.813039 C387.897243,446.047394 420.929233,451.711232 455.69576,471.700263 C471.969678,481.057544 486.012273,492.083373 495.236475,502.746565 C504.938517,513.965241 508.23077,523.680967 504.504883,530.107809 C501.865186,534.658584 496.032173,537 487.666819,537" id="Fill-41" fill="#6786AC" mask="url(#mask-2)"></path>
                <path d="M386.906778,486.991711 C389.380701,488.422959 392.558377,487.572413 393.985308,485.094174 C394.676107,483.89607 394.86176,482.499362 394.503408,481.163098 C394.145056,479.826835 393.285874,478.708605 392.08777,478.017806 C390.889665,477.324849 389.495115,477.143515 388.156692,477.499708 C386.818269,477.858059 385.702197,478.715081 385.011398,479.915344 C383.582307,482.387107 384.432854,485.562621 386.906778,486.991711 M389.480004,492 C387.869579,492 386.239725,491.591997 384.748031,490.730658 C380.212504,488.1121 378.65173,482.289963 381.27029,477.756598 C382.539633,475.558996 384.588283,473.987429 387.038461,473.329012 C389.495115,472.670594 392.048912,473.007359 394.246517,474.276701 C396.441962,475.546043 398.015689,477.592534 398.671948,480.044868 C399.328207,482.495044 398.993601,485.057475 397.724258,487.252919 C395.967038,490.29675 392.765616,492 389.480004,492" id="Fill-42" fill="#6786AC" mask="url(#mask-2)"></path>
                <path d="M441.479969,483.227038 C439.567503,483.227038 437.631843,483.712131 435.860651,484.737156 C433.252361,486.243056 431.386283,488.674852 430.606115,491.585416 C429.828056,494.495979 430.228683,497.535197 431.734196,500.144158 C434.842216,505.530809 441.754082,507.384711 447.139349,504.273783 C449.747639,502.769992 451.613717,500.336087 452.391776,497.425524 C453.171944,494.51707 452.771317,491.475742 451.265804,488.866781 C449.178328,485.251777 445.380808,483.227038 441.479969,483.227038 M441.526357,510 C436.166393,510 430.947702,507.22231 428.082167,502.253262 C426.013668,498.667786 425.463333,494.49387 426.534483,490.4929 C427.603523,486.496148 430.169643,483.153219 433.75209,481.082079 C437.336645,479.013048 441.511597,478.462572 445.50943,479.536106 C449.507263,480.607531 452.849334,483.172201 454.917833,486.757677 C456.986332,490.341044 457.536667,494.519179 456.465517,498.518039 C455.394368,502.5169 452.830357,505.85772 449.24791,507.92886 C446.81463,509.333523 444.153625,510 441.526357,510" id="Fill-43" fill="#6786AC" mask="url(#mask-2)"></path>
                <path d="M439.188441,350.811559 L539.811559,350.811559 L539.811559,250.188441 L439.188441,250.188441 L439.188441,350.811559 Z M541.905779,355 L437.094221,355 C435.938211,355 435,354.061789 435,352.905779 L435,248.094221 C435,246.938211 435.938211,246 437.094221,246 L541.905779,246 C543.063883,246 544,246.938211 544,248.094221 L544,352.905779 C544,354.061789 543.063883,355 541.905779,355 Z" id="Fill-44" fill="#6786AC" mask="url(#mask-2)"></path>
                <path d="M448.233937,342.765965 L530.763946,342.765965 L530.763946,260.234035 L448.233937,260.234035 L448.233937,342.765965 Z M532.883032,347 L446.116968,347 C444.948402,347 444,346.053693 444,344.882982 L444,258.117018 C444,256.948424 444.948402,256 446.116968,256 L532.883032,256 C534.051598,256 535,256.948424 535,258.117018 L535,344.882982 C535,346.053693 534.051598,347 532.883032,347 Z" id="Fill-45" fill="#6786AC" mask="url(#mask-2)"></path>
                <polygon id="Fill-46" fill="#6786AC" mask="url(#mask-2)" points="428 258 437 258 437 253 428 253"></polygon>
                <polygon id="Fill-47" fill="#6786AC" mask="url(#mask-2)" points="428 270 437 270 437 265 428 265"></polygon>
                <polygon id="Fill-48" fill="#6786AC" mask="url(#mask-2)" points="428 280 437 280 437 275 428 275"></polygon>
                <polygon id="Fill-49" fill="#6786AC" mask="url(#mask-2)" points="428 292 437 292 437 287 428 287"></polygon>
                <polygon id="Fill-50" fill="#6786AC" mask="url(#mask-2)" points="428 304 437 304 437 299 428 299"></polygon>
                <polygon id="Fill-51" fill="#6786AC" mask="url(#mask-2)" points="428 315 437 315 437 310 428 310"></polygon>
                <polygon id="Fill-52" fill="#6786AC" mask="url(#mask-2)" points="428 326 437 326 437 321 428 321"></polygon>
                <polygon id="Fill-53" fill="#6786AC" mask="url(#mask-2)" points="428 337 437 337 437 332 428 332"></polygon>
                <polygon id="Fill-54" fill="#6786AC" mask="url(#mask-2)" points="428 349 437 349 437 344 428 344"></polygon>
                <polygon id="Fill-55" fill="#6786AC" mask="url(#mask-2)" points="541 349 550 349 550 344 541 344"></polygon>
                <polygon id="Fill-56" fill="#6786AC" mask="url(#mask-2)" points="541 337 550 337 550 332 541 332"></polygon>
                <polygon id="Fill-57" fill="#6786AC" mask="url(#mask-2)" points="541 326 550 326 550 321 541 321"></polygon>
                <polygon id="Fill-58" fill="#6786AC" mask="url(#mask-2)" points="541 315 550 315 550 310 541 310"></polygon>
                <polygon id="Fill-59" fill="#6786AC" mask="url(#mask-2)" points="541 304 550 304 550 299 541 299"></polygon>
                <polygon id="Fill-60" fill="#6786AC" mask="url(#mask-2)" points="541 292 550 292 550 287 541 287"></polygon>
                <polygon id="Fill-61" fill="#6786AC" mask="url(#mask-2)" points="541 280 550 280 550 275 541 275"></polygon>
                <polygon id="Fill-62" fill="#6786AC" mask="url(#mask-2)" points="541 270 550 270 550 265 541 265"></polygon>
                <polygon id="Fill-63" fill="#6786AC" mask="url(#mask-2)" points="541 258 550 258 550 253 541 253"></polygon>
                <polygon id="Fill-64" fill="#6786AC" mask="url(#mask-2)" points="442 362 447 362 447 353 442 353"></polygon>
                <polygon id="Fill-65" fill="#6786AC" mask="url(#mask-2)" points="452 362 457 362 457 353 452 353"></polygon>
                <polygon id="Fill-66" fill="#6786AC" mask="url(#mask-2)" points="464 362 469 362 469 353 464 353"></polygon>
                <polygon id="Fill-67" fill="#6786AC" mask="url(#mask-2)" points="475 362 480 362 480 353 475 353"></polygon>
                <polygon id="Fill-68" fill="#6786AC" mask="url(#mask-2)" points="487 362 492 362 492 353 487 353"></polygon>
                <polygon id="Fill-69" fill="#6786AC" mask="url(#mask-2)" points="497 362 502 362 502 353 497 353"></polygon>
                <polygon id="Fill-70" fill="#6786AC" mask="url(#mask-2)" points="509 362 514 362 514 353 509 353"></polygon>
                <polygon id="Fill-71" fill="#6786AC" mask="url(#mask-2)" points="521 362 526 362 526 353 521 353"></polygon>
                <polygon id="Fill-72" fill="#6786AC" mask="url(#mask-2)" points="532 362 537 362 537 353 532 353"></polygon>
                <polygon id="Fill-73" fill="#6786AC" mask="url(#mask-2)" points="442 248 447 248 447 239 442 239"></polygon>
                <polygon id="Fill-74" fill="#6786AC" mask="url(#mask-2)" points="452 248 457 248 457 239 452 239"></polygon>
                <polygon id="Fill-75" fill="#6786AC" mask="url(#mask-2)" points="464 248 469 248 469 239 464 239"></polygon>
                <polygon id="Fill-76" fill="#6786AC" mask="url(#mask-2)" points="475 248 480 248 480 239 475 239"></polygon>
                <polygon id="Fill-77" fill="#6786AC" mask="url(#mask-2)" points="487 248 492 248 492 239 487 239"></polygon>
                <polygon id="Fill-78" fill="#6786AC" mask="url(#mask-2)" points="497 248 502 248 502 239 497 239"></polygon>
                <polygon id="Fill-79" fill="#6786AC" mask="url(#mask-2)" points="509 248 514 248 514 239 509 239"></polygon>
                <polygon id="Fill-80" fill="#6786AC" mask="url(#mask-2)" points="521 248 526 248 526 239 521 239"></polygon>
                <polygon id="Fill-81" fill="#6786AC" mask="url(#mask-2)" points="532 248 537 248 537 239 532 239"></polygon>
                <path d="M644.080365,180 L563.770616,180 C550.690592,180 542.161511,174.325102 539.10447,163.588297 L543.13926,162.431831 C545.663365,171.293856 552.604128,175.78701 563.770616,175.78701 L644.080365,175.78701 C653.853664,175.78701 661.80365,167.801287 661.80365,157.987127 C661.80365,148.175073 653.853664,140.193563 644.080365,140.193563 C642.722846,140.193563 641.373719,140.351551 640.074949,140.661205 L637.873963,141.187829 L637.517273,138.944412 C635.056114,123.455354 621.908949,112.21299 606.254465,112.21299 C593.42832,112.21299 581.951303,119.895377 577.010101,131.784435 L576.135162,133.893037 L574.110423,132.844002 C570.902313,131.179871 567.423539,130.337273 563.770616,130.337273 C550.902508,130.337273 541.19635,139.458397 541.19635,151.555998 L537,151.555998 C537,137.056992 548.50849,126.124283 563.770616,126.124283 C567.29555,126.124283 570.805797,126.825746 574.036986,128.16969 C580.041964,115.846694 592.461062,108 606.254465,108 C623.262272,108 637.657851,119.720538 641.260418,136.163839 C642.192007,136.041662 643.134088,135.980573 644.080365,135.980573 C656.167952,135.980573 666,145.853716 666,157.987127 C666,170.124751 656.167952,180 644.080365,180" id="Fill-82" fill="#6786AC" mask="url(#mask-2)"></path>
                <path d="M598,159 L523.901781,159 C509.067833,159 497,146.915038 497,132.062142 C497,117.209245 509.067833,105.124283 523.901781,105.124283 C527.435676,105.124283 530.95064,105.825746 534.194252,107.16969 C540.212392,94.846694 552.663064,87 566.491534,87 C581.054129,87 590.919588,92.9382095 596.651651,105.153774 L592.842195,106.946401 C587.806394,96.2117028 579.434427,91.2129901 566.491534,91.2129901 C553.634885,91.2129901 542.126585,98.8953774 537.174925,110.782329 C536.949849,111.325805 536.506009,111.74921 535.954889,111.951434 C535.40377,112.155764 534.791648,112.11574 534.269978,111.844002 C531.093679,110.203043 527.509299,109.337273 523.901781,109.337273 C511.388004,109.337273 501.207019,119.530603 501.207019,132.062142 C501.207019,144.593681 511.388004,154.78701 523.901781,154.78701 L598,154.78701 L598,159 Z" id="Fill-83" fill="#6786AC" mask="url(#mask-2)"></path>
                <path d="M606.998945,149.219005 C603.260907,149.219005 600.219005,152.260907 600.219005,156.001055 C600.219005,159.739093 603.260907,162.780995 606.998945,162.780995 C610.736983,162.780995 613.780995,159.739093 613.780995,156.001055 C613.780995,152.260907 610.736983,149.219005 606.998945,149.219005 M606.998945,167 C600.934126,167 596,162.065874 596,156.001055 C596,149.934126 600.934126,145 606.998945,145 C613.063765,145 618,149.934126 618,156.001055 C618,162.065874 613.063765,167 606.998945,167" id="Fill-84" fill="#6786AC" mask="url(#mask-2)"></path>
                <path d="M534.235556,618.707185 L582.764444,618.707185 L582.764444,608.292815 L534.235556,608.292815 L534.235556,618.707185 Z M584.882222,623 L532.117778,623 C530.946647,623 530,622.040556 530,620.853592 L530,606.146408 C530,604.959444 530.946647,604 532.117778,604 L584.882222,604 C586.051235,604 587,604.959444 587,606.146408 L587,620.853592 C587,622.040556 586.051235,623 584.882222,623 Z" id="Fill-116" fill="#6786AC" mask="url(#mask-2)"></path>
                <path d="M482.235556,616.87402 L530.764444,616.87402 L530.764444,610.12598 L482.235556,610.12598 L482.235556,616.87402 Z M532.882222,621 L480.117778,621 C478.946647,621 478,620.07578 478,618.93701 L478,608.06299 C478,606.922157 478.946647,606 480.117778,606 L532.882222,606 C534.051235,606 535,606.922157 535,608.06299 L535,618.93701 C535,620.07578 534.051235,621 532.882222,621 Z" id="Fill-117" fill="#6786AC" mask="url(#mask-2)"></path>
                <path d="M586.041935,615.826087 L592.741442,615.826087 C593.412404,615.826087 593.958065,615.260522 593.958065,614.567652 L593.958065,613.432348 C593.958065,612.737391 593.412404,612.173913 592.741442,612.173913 L586.041935,612.173913 L586.041935,615.826087 Z M592.741442,620 L584.020968,620 C582.905393,620 582,619.06713 582,617.913043 L582,610.086957 C582,608.93287 582.905393,608 584.020968,608 L592.741442,608 C595.641531,608 598,610.437565 598,613.432348 L598,614.567652 C598,617.562435 595.641531,620 592.741442,620 Z" id="Fill-118" fill="#6786AC" mask="url(#mask-2)"></path>
                <path d="M579.879614,630 L535.120386,630 C533.947813,630 533,629.012518 533,627.790869 C533,626.569219 533.947813,625.581738 535.120386,625.581738 L577.759228,625.581738 L577.759228,620.209131 C577.759228,618.989691 578.709161,618 579.879614,618 C581.050067,618 582,618.989691 582,620.209131 L582,627.790869 C582,629.012518 581.050067,630 579.879614,630" id="Fill-119" fill="#6786AC" mask="url(#mask-2)"></path>
                <path d="M466.035723,613.499341 L477.67481,616.292491 L477.67481,610.708254 L466.035723,613.499341 Z M479.837405,621 C479.662235,621 479.484902,620.979371 479.311894,620.93605 L456.637085,615.500342 C455.67473,615.269299 455,614.444144 455,613.499341 C455,612.554539 455.67473,611.729384 456.637085,611.49834 L479.311894,606.062632 C479.956348,605.905852 480.64189,606.048191 481.167401,606.436014 C481.692911,606.830026 482,607.428263 482,608.063633 L482,618.937113 C482,619.572482 481.692911,620.170719 481.167401,620.564731 C480.784622,620.849409 480.315338,621 479.837405,621 Z" id="Fill-120" fill="#6786AC" mask="url(#mask-2)"></path>
                <path d="M699.235556,227.87402 L747.764444,227.87402 L747.764444,221.12598 L699.235556,221.12598 L699.235556,227.87402 Z M749.882222,232 L697.117778,232 C695.946647,232 695,231.07578 695,229.93701 L695,219.06299 C695,217.92422 695.946647,217 697.117778,217 L749.882222,217 C751.053353,217 752,217.92422 752,219.06299 L752,229.93701 C752,231.07578 751.053353,232 749.882222,232 Z" id="Fill-122" fill="#6786AC" mask="url(#mask-2)"></path>
                <path d="M684.034839,224.501593 L695.675156,227.292609 L695.675156,221.710576 L684.034839,224.501593 Z M697.837578,232 C697.662422,232 697.485103,231.979372 697.309947,231.938115 L674.634791,226.502543 C673.674676,226.271506 673,225.446371 673,224.501593 C673,223.556814 673.674676,222.73168 674.634791,222.500642 L697.309947,217.065071 C697.958674,216.904169 698.641999,217.046505 699.167468,217.438444 C699.692936,217.830383 700,218.430668 700,219.066021 L700,229.937164 C700,230.572518 699.692936,231.172803 699.167468,231.564742 C698.782556,231.851476 698.315473,232 697.837578,232 Z" id="Fill-125" fill="#6786AC" mask="url(#mask-2)"></path>
                <path d="M78.2355564,329.707185 L126.764444,329.707185 L126.764444,319.292815 L78.2355564,319.292815 L78.2355564,329.707185 Z M128.882222,334 L76.1177782,334 C74.9487646,334 74,333.038409 74,331.853592 L74,317.146408 C74,315.959444 74.9487646,315 76.1177782,315 L128.882222,315 C130.051235,315 131,315.959444 131,317.146408 L131,331.853592 C131,333.038409 130.051235,334 128.882222,334 Z" id="Fill-126" fill="#6786AC" mask="url(#mask-2)"></path>
                <path d="M26.2355564,327.87402 L74.7644436,327.87402 L74.7644436,321.12598 L26.2355564,321.12598 L26.2355564,327.87402 Z M76.8822218,332 L24.1177782,332 C22.9487646,332 22,331.07578 22,329.93701 L22,319.06299 C22,317.922157 22.9487646,317 24.1177782,317 L76.8822218,317 C78.0512354,317 79,317.922157 79,319.06299 L79,329.93701 C79,331.07578 78.0512354,332 76.8822218,332 Z" id="Fill-127" fill="#6786AC" mask="url(#mask-2)"></path>
                <path d="M131.041935,325.826087 L137.741442,325.826087 C138.412404,325.826087 138.958065,325.262609 138.958065,324.569739 L138.958065,323.434435 C138.958065,322.739478 138.412404,322.176 137.741442,322.176 L131.041935,322.176 L131.041935,325.826087 Z M137.741442,330 L129.020968,330 C127.905393,330 127,329.06713 127,327.913043 L127,320.089043 C127,318.934957 127.905393,318 129.020968,318 L137.741442,318 C140.641531,318 143,320.439652 143,323.434435 L143,324.569739 C143,327.564522 140.641531,330 137.741442,330 Z" id="Fill-128" fill="#6786AC" mask="url(#mask-2)"></path>
                <path d="M123.879614,342 L79.120386,342 C77.9478125,342 77,341.012337 77,339.790462 C77,338.568588 77.9478125,337.580924 79.120386,337.580924 L121.759228,337.580924 L121.759228,332.209538 C121.759228,330.989873 122.709161,330 123.879614,330 C125.050067,330 126,330.989873 126,332.209538 L126,339.790462 C126,341.012337 125.050067,342 123.879614,342" id="Fill-129" fill="#6786AC" mask="url(#mask-2)"></path>
                <path d="M11.0357229,324.501568 L22.6748098,327.292594 L22.6748098,321.708479 L11.0357229,324.501568 Z M24.8374049,332 C24.6622347,332 24.4849019,331.979372 24.3118943,331.936052 L1.6370845,326.502525 C0.674729676,326.271487 0,325.44635 0,324.501568 C0,323.556786 0.674729676,322.731649 1.6370845,322.500611 L24.3118943,317.062958 C24.9563476,316.906182 25.6440529,317.046455 26.1674009,317.436332 C26.6929115,317.828272 27,318.426497 27,319.063915 L27,329.937158 C27,330.572513 26.6929115,331.170737 26.1674009,331.56474 C25.7846215,331.849413 25.3153384,332 24.8374049,332 Z" id="Fill-130" fill="#6786AC" mask="url(#mask-2)"></path>
                <path d="M639.542806,567.459254 C642.479087,567.881453 645.520913,567.881453 648.457194,567.459254 L648.621845,562.523753 C648.653509,561.590694 649.295226,560.788516 650.196586,560.552085 C652.326498,559.994783 654.369862,559.146164 656.267573,558.033671 C657.073942,557.562919 658.095624,557.676913 658.777449,558.314433 L662.385,561.687799 C664.78722,559.895566 666.898133,557.784573 668.688188,555.382263 L665.312837,551.776687 C664.675342,551.094837 664.561352,550.075227 665.034197,549.268828 C666.146648,547.362601 666.993124,545.321271 667.548295,543.195501 C667.782606,542.291996 668.586864,541.650254 669.521999,541.6207 L674.459425,541.456043 C674.670517,539.986792 674.778173,538.492209 674.778173,536.997626 C674.778173,535.500932 674.670517,534.006349 674.459425,532.539208 L669.52411,532.374551 C668.588975,532.342886 667.786828,531.705366 667.550406,530.801861 C666.991014,528.669758 666.144537,526.626317 665.034197,524.730645 C664.561352,523.924246 664.675342,522.902526 665.312837,522.218564 L668.686077,518.615099 C666.898133,516.212789 664.78722,514.099685 662.385,512.309563 L658.777449,515.685041 C658.097735,516.320449 657.073942,516.438665 656.267573,515.961581 C654.369862,514.849087 652.326498,514.002579 650.198697,513.447388 C649.295226,513.210957 648.653509,512.40878 648.621845,511.47361 L648.457194,506.538108 C645.520913,506.109576 642.479087,506.109576 639.542806,506.538108 L639.378155,511.471499 C639.348602,512.402447 638.706885,513.204624 637.805525,513.441055 C635.673502,514.002579 633.630138,514.849087 631.732427,515.961581 C630.926058,516.432332 629.904376,516.318338 629.222551,515.68293 L625.61711,512.307452 C623.214891,514.097574 621.101867,516.210678 619.313923,518.612988 L622.685052,522.220675 C623.322548,522.904637 623.436537,523.924246 622.963692,524.730645 C621.853352,526.628428 621.006876,528.669758 620.451705,530.79975 C620.213172,531.703255 619.411025,532.342886 618.478001,532.374551 L613.540575,532.539208 C613.329483,534.006349 613.221827,535.500932 613.221827,536.997626 C613.221827,538.492209 613.329483,539.986792 613.540575,541.456043 L618.47589,541.6207 C619.408914,541.650254 620.211061,542.289885 620.447483,543.195501 C621.004765,545.323382 621.853352,547.364712 622.965803,549.268828 C623.436537,550.075227 623.322548,551.094837 622.685052,551.776687 L619.311812,555.382263 C621.099756,557.786684 623.21278,559.899788 625.61711,561.692021 L629.222551,558.316544 C629.902265,557.679024 630.923947,557.56503 631.730316,558.035782 C633.638581,559.150386 635.681946,559.999005 637.801303,560.552085 C638.706885,560.788516 639.348602,561.590694 639.378155,562.523753 L639.542806,567.459254 Z M643.998945,572 C641.666385,572 639.335937,571.769902 637.075149,571.316038 C636.112572,571.121827 635.411749,570.296429 635.380085,569.316928 L635.209101,564.191437 C633.763125,563.722797 632.350924,563.140163 630.991496,562.443535 L627.248847,565.945672 C626.533247,566.612746 625.45457,566.70563 624.637647,566.163104 C620.730346,563.564472 617.43521,560.267101 614.838787,556.361764 C614.298393,555.54481 614.387051,554.466092 615.056211,553.750466 L618.558216,550.007675 C617.861615,548.650307 617.276892,547.238052 616.81038,545.7878 L611.682971,545.61681 C610.703507,545.587256 609.876029,544.884295 609.683936,543.925905 C609.23009,541.660809 609,539.332384 609,536.997626 C609,534.662867 609.23009,532.332331 609.683936,530.069347 C609.876029,529.110956 610.703507,528.407995 611.682971,528.37633 L616.808269,528.20534 C617.279002,526.755088 617.861615,525.344944 618.558216,523.987576 L615.056211,520.244785 C614.389162,519.53127 614.300504,518.44833 614.840897,517.633487 C617.439432,513.72815 620.734568,510.430779 624.637647,507.836369 C625.456681,507.291733 626.535358,507.386727 627.248847,508.05169 L630.991496,511.555938 C632.346702,510.859311 633.758904,510.274566 635.209101,509.803814 L635.380085,504.680434 C635.411749,503.700934 636.112572,502.873424 637.075149,502.679213 C641.598836,501.771486 646.403275,501.775708 650.926962,502.679213 C651.887428,502.873424 652.588251,503.700934 652.622026,504.680434 L652.790899,509.803814 C654.243207,510.274566 655.653298,510.859311 657.010615,511.555938 L660.753264,508.05169 C661.464642,507.386727 662.549652,507.289622 663.366575,507.83848 C667.269654,510.437112 670.566901,513.734483 673.156992,517.635598 C673.699496,518.452552 673.608727,519.533381 672.941678,520.249007 L669.441784,523.987576 C670.136275,525.344944 670.720998,526.757199 671.18962,528.20534 L676.314918,528.37633 C677.294382,528.407995 678.12186,529.110956 678.316064,530.069347 C678.76991,532.332331 679,534.662867 679,536.997626 C679,539.332384 678.76991,541.660809 678.316064,543.925905 C678.12186,544.884295 677.294382,545.587256 676.314918,545.61681 L671.18962,545.7878 C670.720998,547.238052 670.138385,548.650307 669.441784,550.007675 L672.943789,553.750466 C673.610838,554.466092 673.701607,555.546921 673.159103,556.361764 C670.566901,560.262879 667.269654,563.558139 663.366575,566.156771 C662.549652,566.703519 661.468864,566.612746 660.753264,565.94145 L657.010615,562.441424 C655.651187,563.138052 654.241096,563.720686 652.790899,564.189326 L652.622026,569.316928 C652.588251,570.296429 651.887428,571.121827 650.926962,571.316038 C648.666174,571.769902 646.333615,572 643.998945,572 Z" id="Fill-145" fill="#6786AC" mask="url(#mask-2)"></path>
                <path d="M643,522.161609 C635.369249,522.161609 629.16185,528.368649 629.16185,535.99896 C629.16185,543.62927 635.369249,549.838391 643,549.838391 C650.630751,549.838391 656.83815,543.62927 656.83815,535.99896 C656.83815,528.368649 650.630751,522.161609 643,522.161609 M643,554 C633.073988,554 625,545.924397 625,535.99896 C625,526.075603 633.073988,518 643,518 C652.928092,518 661,526.075603 661,535.99896 C661,545.924397 652.928092,554 643,554" id="Fill-146" fill="#6786AC" mask="url(#mask-2)"></path>
                <path d="M715.930492,541.354059 C719.929521,541.980197 724.07674,541.980197 728.069508,541.354059 L728.288661,534.769178 C728.319969,533.846669 728.952383,533.053561 729.845695,532.819803 C732.550675,532.108094 735.136686,531.035311 737.534851,529.630676 C738.330065,529.158986 739.342345,529.275865 740.014416,529.906176 L744.829531,534.408106 C748.133531,532.005825 751.009659,529.127679 753.411999,525.825846 L748.907873,521.012935 C748.275459,520.338794 748.162751,519.326538 748.630279,518.529256 C750.039122,516.126975 751.109844,513.541027 751.815309,510.844461 C752.049073,509.951171 752.8422,509.316685 753.764732,509.287465 L760.353946,509.06623 C760.667023,507.068851 760.825648,505.035991 760.825648,502.998956 C760.825648,500.959835 760.667023,498.926975 760.353946,496.929596 L753.768906,496.708361 C752.846374,496.679141 752.055334,496.046742 751.819484,495.153452 C751.109844,492.450625 750.037035,489.864677 748.630279,487.46657 C748.162751,486.669288 748.275459,485.657032 748.907873,484.98289 L753.407824,480.174154 C751.009659,476.870234 748.133531,473.992088 744.829531,471.58772 L740.014416,476.091736 C739.340258,476.724135 738.325891,476.83684 737.532764,476.367237 C735.134599,474.958427 732.550675,473.887732 729.847782,473.182284 C728.952383,472.948526 728.319969,472.155418 728.288661,471.230822 L728.069508,464.641767 C724.07674,464.019803 719.929521,464.019803 715.930492,464.641767 L715.713426,471.226647 C715.682118,472.149157 715.049704,472.942264 714.156393,473.176022 C711.451412,473.887732 708.865401,474.958427 706.467236,476.36515 C705.669935,476.832666 704.661829,476.717874 703.985584,476.087562 L699.174643,471.58772 C695.870644,473.987914 692.992428,476.86606 690.588001,480.172066 L695.092127,484.984978 C695.722454,485.659119 695.835162,486.669288 695.367634,487.46657 C693.95879,489.870938 692.888069,492.456886 692.182604,495.151365 C691.94884,496.044655 691.155713,496.679141 690.231094,496.708361 L683.643967,496.929596 C683.33089,498.926975 683.174352,500.959835 683.174352,502.998956 C683.174352,505.035991 683.33089,507.068851 683.643967,509.06623 L690.231094,509.287465 C691.153626,509.316685 691.946753,509.949084 692.180516,510.842373 C692.888069,513.541027 693.960878,516.126975 695.367634,518.529256 C695.835162,519.326538 695.722454,520.338794 695.092127,521.012935 L690.585914,525.825846 C692.988254,529.131853 695.868556,532.007912 699.174643,534.41228 L703.985584,529.910351 C704.661829,529.282126 705.667848,529.165247 706.467236,529.632763 C708.877924,531.045747 711.463936,532.114355 714.154305,532.817716 C715.047617,533.051474 715.682118,533.844582 715.713426,534.769178 L715.930492,541.354059 Z M721.997913,546 C719.134307,546 716.270702,545.716151 713.490583,545.156801 C712.540918,544.964786 711.847976,544.14872 711.814581,543.180294 L711.591253,536.426356 C709.56878,535.798131 707.608921,534.984152 705.728376,533.996942 L700.792205,538.613663 C700.086739,539.271108 699.018105,539.365029 698.212455,538.82655 C693.41195,535.635336 689.362829,531.584225 686.171537,526.788011 C685.63722,525.980294 685.724881,524.911685 686.386516,524.20415 L691.005436,519.270186 C690.016115,517.395947 689.202116,515.431962 688.575963,513.407451 L681.817688,513.182041 C680.849238,513.150734 680.031065,512.455721 679.841132,511.508166 C679.281769,508.728116 679,505.86458 679,502.998956 C679,500.131246 679.281769,497.26771 679.841132,494.487659 C680.031065,493.540104 680.849238,492.845092 681.817688,492.813785 L688.573876,492.588375 C689.202116,490.563864 690.016115,488.601966 691.005436,486.72564 L686.388603,481.789589 C685.726968,481.08414 685.639307,480.013445 686.175711,479.209902 C689.364916,474.409513 693.416125,470.36049 698.212455,467.17345 C699.016018,466.634971 700.084652,466.724718 700.792205,467.388424 L705.726289,472.000971 C707.600573,471.015848 709.562518,470.201869 711.591253,469.56947 L711.814581,462.815532 C711.847976,461.847106 712.540918,461.03104 713.490583,460.839024 C719.052907,459.720325 724.951267,459.720325 730.509417,460.839024 C731.459082,461.03104 732.152024,461.847106 732.185419,462.815532 L732.410834,469.56947 C734.439569,470.201869 736.403602,471.017935 738.273711,472.003058 L743.207795,467.388424 C743.913261,466.728892 744.986069,466.637059 745.791719,467.17345 C750.58805,470.364664 754.637171,474.417862 757.822202,479.214076 C758.358606,480.019706 758.268857,481.088315 757.60931,481.79585 L752.994564,486.72564 C753.979711,488.601966 754.793709,490.563864 755.421949,492.588375 L762.180225,492.813785 C763.148675,492.845092 763.966848,493.540104 764.156781,494.487659 C764.716144,497.26771 765,500.131246 765,502.998956 C765,505.86458 764.716144,508.728116 764.156781,511.508166 C763.966848,512.455721 763.148675,513.150734 762.180225,513.182041 L755.421949,513.407451 C754.793709,515.431962 753.979711,517.395947 752.994564,519.270186 L757.613484,524.20415 C758.273032,524.911685 758.36278,525.982381 757.824289,526.788011 C754.635084,531.580051 750.585963,535.629074 745.791719,538.820289 C744.986069,539.362941 743.915348,539.266934 743.207795,538.609489 L738.273711,533.994855 C736.401514,534.979978 734.437482,535.793957 732.410834,536.422182 L732.185419,543.180294 C732.152024,544.14872 731.459082,544.964786 730.509417,545.156801 C727.729298,545.716151 724.865693,546 721.997913,546 Z" id="Fill-147" fill="#6786AC" mask="url(#mask-2)"></path>
                <path d="M720.998965,485.141371 C711.152854,485.141371 703.141371,493.152854 703.141371,502.998965 C703.141371,512.847146 711.152854,520.858629 720.998965,520.858629 C730.847146,520.858629 738.858629,512.847146 738.858629,502.998965 C738.858629,493.152854 730.847146,485.141371 720.998965,485.141371 M720.998965,525 C708.868888,525 699,515.129041 699,502.998965 C699,490.868888 708.868888,481 720.998965,481 C733.129041,481 743,490.868888 743,502.998965 C743,515.129041 733.129041,525 720.998965,525" id="Fill-148" fill="#6786AC" mask="url(#mask-2)"></path>
                <path d="M693.322413,592.70485 C695.093416,592.913713 696.908693,592.913713 698.681803,592.70485 L698.785112,589.66495 C698.814629,588.750912 699.453454,587.965088 700.355822,587.735545 C701.854849,587.348836 703.290626,586.765672 704.620986,585.998459 C705.428479,585.535236 706.448913,585.648974 707.127798,586.273498 L709.392151,588.351796 C710.811061,587.268186 712.078171,586.025343 713.182939,584.633606 L711.064061,582.412619 C710.425235,581.744668 710.313493,580.745844 710.781544,579.955884 C711.563737,578.644798 712.160396,577.238586 712.54833,575.772403 C712.784463,574.887317 713.585631,574.258657 714.519624,574.227638 L717.618878,574.128376 C717.726403,573.259833 717.783328,572.38095 717.783328,571.5 C717.783328,570.616982 717.726403,569.738099 717.618878,568.869556 L714.521732,568.768226 C713.589848,568.737207 712.78868,568.110616 712.552546,567.227597 C712.160396,565.757278 711.563737,564.351066 710.783652,563.044116 C710.313493,562.254156 710.425235,561.253264 711.061953,560.585313 L713.18083,558.366394 C712.078171,556.974657 710.811061,555.729746 709.392151,554.648204 L707.127798,556.726502 C706.448913,557.348958 705.428479,557.464764 704.618878,556.997405 C703.288518,556.230192 701.854849,555.649096 700.357931,555.266523 C699.455563,555.032844 698.814629,554.24702 698.785112,553.332982 L698.681803,550.291015 C696.910801,550.082151 695.091307,550.082151 693.322413,550.291015 L693.219105,553.330914 C693.189588,554.244952 692.548654,555.030776 691.646286,555.264455 C690.149367,555.647028 688.711482,556.230192 687.381122,556.997405 C686.575738,557.45856 685.555303,557.34689 684.874311,556.724434 L682.609958,554.646136 C681.191048,555.727678 679.926046,556.972589 678.81917,558.364326 L680.938047,560.587381 C681.576873,561.255332 681.688615,562.254156 681.218456,563.044116 C680.436263,564.353134 679.839604,565.761414 679.45167,567.225529 C679.215537,568.108548 678.414369,568.737207 677.480376,568.768226 L674.381122,568.869556 C674.273597,569.740167 674.216672,570.61905 674.216672,571.5 C674.216672,572.38095 674.273597,573.259833 674.381122,574.128376 L677.478268,574.227638 C678.412261,574.258657 679.213428,574.885249 679.449562,575.772403 C679.839604,577.236518 680.436263,578.64273 681.218456,579.955884 C681.688615,580.745844 681.576873,581.744668 680.938047,582.412619 L678.817061,584.635674 C679.921829,586.025343 681.191048,587.268186 682.609958,588.353864 L684.874311,586.275566 C685.553195,585.65311 686.57363,585.537304 687.379014,586.000527 C688.717807,586.769808 690.155693,587.350904 691.644178,587.733477 C692.546546,587.965088 693.189588,588.750912 693.219105,589.66495 L693.322413,592.70485 Z M696.002108,597 C694.266948,597 692.538112,596.832495 690.857768,596.501622 C689.898476,596.31137 689.198508,595.502798 689.164775,594.543265 L689.055141,591.284162 C688.234998,591.007055 687.433831,590.680318 686.651638,590.308085 L684.227052,592.533209 C683.514434,593.184616 682.434966,593.277674 681.616932,592.746209 C678.713753,590.851958 676.265975,588.44899 674.338956,585.605547 C673.797113,584.807315 673.887772,583.74852 674.556114,583.047482 L676.826792,580.669329 C676.445183,579.904185 676.114175,579.116292 675.831657,578.311856 L672.506812,578.202254 C671.528544,578.173303 670.702076,577.484673 670.510217,576.545819 C670.172884,574.895588 670,573.197794 670,571.5 C670,569.802206 670.172884,568.104412 670.510217,566.454181 C670.702076,565.513259 671.528544,564.824629 672.506812,564.79361 L675.829549,564.684008 C676.114175,563.88164 676.445183,563.093747 676.826792,562.328603 L674.558223,559.946314 C673.887772,559.247344 673.799222,558.188549 674.341064,557.390317 C676.270191,554.544806 678.71797,552.143906 681.616932,550.253791 C682.434966,549.722326 683.514434,549.813316 684.227052,550.464723 L686.651638,552.689847 C687.431722,552.317614 688.23289,551.992945 689.055141,551.71377 L689.164775,548.456735 C689.198508,547.49927 689.896367,546.686562 690.853552,546.49631 C694.210023,545.834563 697.789977,545.834563 701.148557,546.49631 C702.105741,546.686562 702.805709,547.49927 702.839442,548.456735 L702.946967,551.71377 C703.769218,551.992945 704.572494,552.319682 705.35047,552.691915 L707.777165,550.464723 C708.489783,549.813316 709.573467,549.722326 710.385177,550.253791 C713.286247,552.145974 715.731917,554.548942 717.661044,557.392385 C718.200778,558.192685 718.112228,559.249412 717.443886,559.95045 L715.173208,562.330671 C715.554817,563.093747 715.887934,563.88164 716.168343,564.684008 L719.493188,564.79361 C720.469348,564.824629 721.297924,565.511191 721.489783,566.452113 C721.829225,568.098208 722,569.796002 722,571.5 C722,573.203998 721.829225,574.901792 721.489783,576.545819 C721.297924,577.486741 720.469348,578.173303 719.493188,578.202254 L716.168343,578.311856 C715.887934,579.116292 715.554817,579.904185 715.173208,580.669329 L717.443886,583.047482 C718.112228,583.74852 718.202887,584.809383 717.661044,585.605547 C715.731917,588.451058 713.284139,590.851958 710.385177,592.746209 C709.573467,593.275606 708.489783,593.184616 707.777165,592.533209 L705.35047,590.306017 C704.570386,590.680318 703.769218,591.004987 702.946967,591.282094 L702.839442,594.543265 C702.805709,595.502798 702.105741,596.31137 701.146448,596.501622 C699.463996,596.832495 697.733052,597 696.002108,597 Z" id="Fill-149" fill="#6786AC" mask="url(#mask-2)"></path>
                <path d="M696.001067,562.265692 C690.632285,562.265692 686.266017,566.631627 686.266017,571.997867 C686.266017,577.36624 690.632285,581.734308 696.001067,581.734308 C701.367715,581.734308 705.733983,577.36624 705.733983,571.997867 C705.733983,566.631627 701.367715,562.265692 696.001067,562.265692 M696.001067,586 C688.281709,586 682,579.720902 682,571.997867 C682,564.279098 688.281709,558 696.001067,558 C703.720424,558 710,564.279098 710,571.997867 C710,579.720902 703.720424,586 696.001067,586" id="Fill-150" fill="#6786AC" mask="url(#mask-2)"></path>
                <path d="M599.625127,557 C597.219494,551.288741 596,545.223799 596,538.972597 C596,515.589713 613.408532,495.825284 636.495526,493 L637,497.152121 C616.00178,499.724175 600.169209,517.703443 600.169209,538.972597 C600.169209,544.660835 601.276134,550.177463 603.464968,555.369707 L599.625127,557 Z" id="Fill-151" fill="#6786AC" mask="url(#mask-2)"></path>
                <path d="M632.835088,501 L630,497.925573 L633.157895,494.501087 L630,491.076601 L632.835088,488 L637.412531,492.963874 C637.787469,493.370463 638,493.92273 638,494.501087 C638,495.07727 637.787469,495.629537 637.412531,496.038301 L632.835088,501 Z" id="Fill-152" fill="#6786AC" mask="url(#mask-2)"></path>
                <path d="M697,609 C685.508486,609 674.936376,603.72421 668,594.529862 L671.342529,592 C677.480971,600.137093 686.832094,604.804541 697,604.804541 C707.167906,604.804541 716.519029,600.137093 722.657471,592 L726,594.529862 C719.063624,603.72421 708.493609,609 697,609" id="Fill-153" fill="#6786AC" mask="url(#mask-2)"></path>
                <path d="M671.127693,597 L667,596.576818 L667.558526,591.738497 C667.68518,590.669815 668.71918,589.899506 669.848689,590.010664 L675,590.537205 L674.551518,594.414102 L671.461978,594.100128 L671.127693,597 Z" id="Fill-154" fill="#6786AC" mask="url(#mask-2)"></path>
                <path d="M731.553836,346.95591 L739.111974,348.334921 C739.526801,348.409574 739.908441,348.610723 740.207116,348.907263 L758.295626,366.992011 L759.99434,365.289503 L741.901683,347.200607 C741.605082,346.904067 741.403891,346.520433 741.329222,346.107766 L739.951998,338.551199 L727.082006,331.631258 L724.630381,334.08652 L731.553836,346.95591 Z M758.2977,372 C757.745981,372 757.219151,371.782261 756.831288,371.392406 L737.732676,352.297764 L729.828157,350.856542 C729.207992,350.742488 728.670792,350.354706 728.374191,349.798954 L720.24774,334.694114 C719.814246,333.887444 719.959435,332.894142 720.606564,332.247147 L725.236028,327.610351 C725.883157,326.959209 726.874593,326.814049 727.687653,327.247453 L742.795634,335.372215 C743.351501,335.672901 743.741438,336.205843 743.855515,336.825879 L745.292889,344.726681 L764.391501,363.821322 C765.202487,364.627992 765.202487,365.940645 764.393575,366.751462 L759.766186,371.390332 C759.376249,371.782261 758.847345,372 758.299774,372 L758.2977,372 Z" id="Fill-158" fill="#6786AC" mask="url(#mask-2)"></path>
                <path d="M727.325632,397.079969 C727.371802,397.079969 727.420071,397.082067 727.466242,397.084166 L738.244926,397.814485 C739.292154,397.885837 740.125319,398.71689 740.196674,399.764099 L740.9354,410.542594 C740.977373,411.146995 740.754916,411.740904 740.324692,412.169022 L735.695062,416.79857 C739.019329,416.620187 742.186197,415.228805 744.626931,412.788114 C748.591288,408.828024 749.745547,402.930912 747.569243,397.768315 C747.237656,396.981334 747.416042,396.072633 748.018355,395.468231 L785.475123,358.024715 C786.079535,357.420313 786.988252,357.24403 787.77105,357.573513 C792.94633,359.745581 798.835151,358.580848 802.79531,354.622858 L802.797409,354.620759 C805.236044,352.186364 806.621156,349.025847 806.797443,345.69954 L802.176208,350.320694 C801.745984,350.748812 801.141571,350.94818 800.549751,350.931391 L789.760573,350.19058 C788.713345,350.119227 787.88018,349.286076 787.808826,348.238866 L787.082692,337.470865 C787.040719,336.866463 787.265274,336.272555 787.6934,335.844437 L792.318832,331.219086 C789.000861,331.393271 785.836091,332.780457 783.39116,335.225345 C779.431001,339.185434 778.276742,345.082547 780.448848,350.249341 C780.780435,351.036322 780.60205,351.942924 779.999736,352.545227 L742.54087,389.990842 C741.936457,390.595244 741.02774,390.771527 740.242844,390.442045 C735.080156,388.261582 729.189236,389.428413 725.222781,393.3927 C722.786244,395.829193 721.399034,398.993907 721.220649,402.316017 L725.841884,397.694863 C726.234332,397.298225 726.769489,397.079969 727.325632,397.079969 M734.868192,421 C733.436911,421 731.997234,420.827913 730.580643,420.477444 C729.846115,420.296963 729.266886,419.732436 729.063317,419.002117 C728.859747,418.273897 729.067514,417.493212 729.602671,416.958065 L736.683528,409.877332 L736.133681,401.877406 L728.135712,401.335963 L721.06325,408.408301 C720.528093,408.945547 719.747394,409.149112 719.017063,408.947645 C718.286731,408.746178 717.724292,408.164861 717.541709,407.432444 C716.009692,401.26461 717.772561,394.907901 722.255285,390.425256 C727.092681,385.587945 734.133664,383.948925 740.528261,386.068528 L776.075254,350.530555 C773.957713,344.127676 775.592564,337.088917 780.423664,332.257901 C784.914783,327.766862 791.273703,326.004024 797.431152,327.548606 C798.165681,327.731185 798.74281,328.297812 798.944281,329.023933 C799.145752,329.752153 798.940084,330.532838 798.404927,331.067986 L791.334564,338.138225 L791.873918,346.129757 L799.882379,346.677495 L806.954842,339.605158 C807.492097,339.070011 808.283289,338.868543 809.001029,339.065813 C809.73136,339.269379 810.293799,339.850696 810.476382,340.585212 C811.985314,346.6712 810.178373,353.185305 805.760708,357.5924 C800.929607,362.419218 793.886526,364.056139 787.48983,361.944931 L751.940739,397.480805 C754.062477,403.883684 752.429725,410.922443 747.594427,415.755557 C744.205102,419.146922 739.581768,421 734.868192,421" id="Fill-160" fill="#6786AC" mask="url(#mask-2)"></path>
                <path d="M240.304488,199.070729 C239.212014,199.070729 238.18716,199.477802 237.415878,200.218674 C236.648823,200.959547 236.226202,201.946699 236.226202,203.001018 C236.226202,205.166645 238.056148,206.929271 240.304488,206.929271 L286.695512,206.929271 C287.787986,206.929271 288.81284,206.522198 289.584122,205.781326 C290.351177,205.042488 290.773798,204.053301 290.773798,203.001018 C290.773798,200.833355 288.943852,199.070729 286.695512,199.070729 L240.304488,199.070729 Z M286.695512,211 L240.304488,211 C235.725397,211 232,207.411652 232,203.001018 C232,200.859814 232.862145,198.85091 234.427953,197.340669 C235.995874,195.830429 238.083618,195 240.304488,195 L286.695512,195 C291.274603,195 295,198.588348 295,203.001018 C295,205.140186 294.137855,207.151126 292.569934,208.659331 C291.002012,210.169571 288.916382,211 286.695512,211 Z" id="Fill-171" fill="#6786AC" mask="url(#mask-2)"></path>
            </g>
        </g>
    </g>
</svg>