<?xml version="1.0" encoding="UTF-8"?>
<svg width="1920px" height="674px" viewBox="0 0 1920 674" version="1.1" xmlns="http://www.w3.org/2000/svg" xmlns:xlink="http://www.w3.org/1999/xlink">
    <!-- Generator: Sketch 50.2 (55047) - http://www.bohemiancoding.com/sketch -->
    <title>RevCycle_Site_RCM_Event</title>
    <desc>Created with Sketch.</desc>
    <defs>
        <polygon id="path-1" points="0 676 1538.9715 676 1538.9715 0 0 0"></polygon>
        <polygon id="path-3" points="0 676 1538.9715 676 1538.9715 0 0 0"></polygon>
    </defs>
    <g id="Working" stroke="none" stroke-width="1" fill="none" fill-rule="evenodd">
        <g id="RevCycle_Site_RCM_Event" transform="translate(0.000000, -271.000000)">
            <g id="Group-12" transform="translate(0.000000, 124.000000)">
                <g id="Group-19" transform="translate(-870.000000, 151.000000)">
                    <g id="Group-3">
                        <g id="Group-4" transform="translate(884.000000, 78.000000)" fill="#7BCCA8">
                            <path d="M244.220508,498.349121 C239.565672,498.349121 235.781127,502.135975 235.781127,506.793651 C235.781127,511.44911 239.565672,515.23818 244.220508,515.23818 C248.875344,515.23818 252.662104,511.44911 252.662104,506.793651 C252.662104,502.135975 248.875344,498.349121 244.220508,498.349121 M244.220508,519.669841 C237.125316,519.669841 231.352167,513.893171 231.352167,506.793651 C231.352167,499.691914 237.125316,493.91746 244.220508,493.91746 C251.315701,493.91746 257.091064,499.691914 257.091064,506.793651 C257.091064,513.893171 251.315701,519.669841 244.220508,519.669841" id="Fill-3"></path>
                            <path d="M331.09039,4.82195754 C324.694727,4.82195754 319.49334,10.0257065 319.49334,16.4242739 C319.49334,22.8228413 324.694727,28.0288361 331.09039,28.0288361 C337.486053,28.0288361 342.68744,22.8228413 342.68744,16.4242739 C342.68744,10.0257065 337.486053,4.82195754 331.09039,4.82195754 M331.09039,32.5206349 C322.220869,32.5206349 315.00358,25.3000683 315.00358,16.4242739 C315.00358,7.55072532 322.220869,0.33015873 331.09039,0.33015873 C339.959911,0.33015873 347.1772,7.55072532 347.1772,16.4242739 C347.1772,25.3000683 339.959911,32.5206349 331.09039,32.5206349" id="Fill-5"></path>
                            <polygon id="Fill-12" points="41.5278082 328.673016 46.8900782 328.673016 46.8900782 305.066667 41.5278082 305.066667"></polygon>
                            <polygon id="Fill-13" points="31.8757221 320.088889 55.4697103 320.088889 55.4697103 314.72381 31.8757221 314.72381"></polygon>
                            <path d="M7.20019136,17.4984127 L15.7866399,26.091633 L24.3776327,17.4984127 L15.7866399,8.90519236 L7.20019136,17.4984127 Z M15.7866399,32.5206349 L0.774555914,17.4984127 L15.7866399,2.47619048 L30.8032681,17.4984127 L15.7866399,32.5206349 Z" id="Fill-19"></path>
                            <path d="M92.4194915,247 L100.99773,255.580508 L109.580508,247 L100.99773,238.419492 L92.4194915,247 Z M100.99773,262 L86,247 L100.99773,232 L116,247 L100.99773,262 Z" id="Fill-19"></path>
                        </g>
                        <g id="Group">
                            <g id="Group-6" opacity="0.100000001">
                                <g id="Page-1" transform="translate(2120.241572, 0.000000)">
                                    <path d="M256.852735,32.3857431 C249.566884,32.3857431 243.642224,38.3157501 243.642224,45.6031746 C243.642224,52.8905991 249.566884,58.8206062 256.852735,58.8206062 C264.136343,58.8206062 270.063245,52.8905991 270.063245,45.6031746 C270.063245,38.3157501 264.136343,32.3857431 256.852735,32.3857431 M256.852735,63.3079365 C247.095659,63.3079365 239.157244,55.3653618 239.157244,45.6031746 C239.157244,35.8409874 247.095659,27.8984127 256.852735,27.8984127 C266.60981,27.8984127 274.548226,35.8409874 274.548226,45.6031746 C274.548226,55.3653618 266.60981,63.3079365 256.852735,63.3079365" id="Fill-1" fill="#6786AC"></path>
                                    <mask id="mask-2" fill="white">
                                        <use xlink:href="#path-1"></use>
                                    </mask>
                                    <g id="Clip-8"></g>
                                    <path d="M599.492701,448.519498 L608.081422,457.113369 L616.670143,448.519498 L608.081422,439.927901 L599.492701,448.519498 Z M608.081422,463.542857 L593.067066,448.519498 L608.081422,433.498413 L623.095778,448.519498 L608.081422,463.542857 Z" id="Fill-21" fill="#6786AC" mask="url(#mask-2)"></path>
                                    <path d="M560.893446,8.58412698 L567.634585,8.58412698 L567.634585,3.21904762 L560.893446,3.21904762 L560.893446,8.58412698 Z M574.375725,8.58412698 L581.116864,8.58412698 L581.116864,3.21904762 L574.375725,3.21904762 L574.375725,8.58412698 Z M587.858004,8.58412698 L594.599143,8.58412698 L594.599143,3.21904762 L587.858004,3.21904762 L587.858004,8.58412698 Z M601.340283,8.58412698 L608.081422,8.58412698 L608.081422,3.21904762 L601.340283,3.21904762 L601.340283,8.58412698 Z" id="Fill-27" fill="#6786AC" mask="url(#mask-2)"></path>
                                    <polygon id="Fill-28" fill="#6786AC" mask="url(#mask-2)" points="470.807309 8.58412698 555.531176 8.58412698 555.531176 3.21904762 470.807309 3.21904762"></polygon>
                                    <path d="M451.536602,4.82857143 L455.255582,8.54908236 L458.97685,4.82857143 L455.255582,1.1080605 L451.536602,4.82857143 Z M455.255582,15.0222222 L445.068413,4.82857143 L455.255582,-5.36507937 L465.445039,4.82857143 L455.255582,15.0222222 Z" id="Fill-29" fill="#6786AC" mask="url(#mask-2)"></path>
                                    <path d="M158.723193,238.209524 L165.464333,238.209524 L165.464333,232.844444 L158.723193,232.844444 L158.723193,238.209524 Z M172.205472,238.209524 L178.946611,238.209524 L178.946611,232.844444 L172.205472,232.844444 L172.205472,238.209524 Z M185.687751,238.209524 L192.42889,238.209524 L192.42889,232.844444 L185.687751,232.844444 L185.687751,238.209524 Z M199.17003,238.209524 L205.911169,238.209524 L205.911169,232.844444 L199.17003,232.844444 L199.17003,238.209524 Z" id="Fill-30" fill="#6786AC" mask="url(#mask-2)"></path>
                                    <polygon id="Fill-31" fill="#6786AC" mask="url(#mask-2)" points="69.7095105 238.209524 154.433377 238.209524 154.433377 232.844444 69.7095105 232.844444"></polygon>
                                    <path d="M49.3663496,235.528128 L53.0853298,239.248221 L56.8065971,235.528128 L53.0853298,231.808035 L49.3663496,235.528128 Z M53.0853298,245.720635 L42.8981603,235.528128 L53.0853298,225.333333 L63.2747864,235.528128 L53.0853298,245.720635 Z" id="Fill-32" fill="#6786AC" mask="url(#mask-2)"></path>
                                    <path d="M295.600306,475.346032 L294.924852,470.863037 C302.544249,469.732661 316.377367,466.377778 323.421715,456.637062 C332.243693,444.438515 328.186405,425.546057 326.68717,419.891911 C322.385714,420.177337 310.882456,421.439099 301.576706,426.878043 L299.260537,422.974961 C311.95725,415.553895 327.695788,415.284326 328.359832,415.275265 L330.03934,415.257143 L330.55734,416.842841 C330.904195,417.902993 338.904675,442.997795 327.129866,459.278382 C319.51047,469.818742 305.777757,473.832823 295.600306,475.346032" id="Fill-33" fill="#6786AC" mask="url(#mask-2)"></path>
                                    <polygon id="Fill-34" fill="#6786AC" mask="url(#mask-2)" points="304.999267 454.95873 301.359576 452.295321 326.676144 416.330159 330.315834 418.993568"></polygon>
                                    <path d="M258.504737,400.102401 C255.492232,405.938979 245.437159,427.633855 252.615847,444.677566 C259.807924,461.748425 282.203111,469.363123 288.446807,471.18875 C291.459312,465.352172 301.514385,443.659559 294.335696,426.615847 C287.143619,409.542726 264.748433,401.928028 258.504737,400.102401 Z M290.651514,476.419048 L289.051539,476.038991 C287.777361,475.735851 257.734874,468.345115 248.512146,446.453424 C239.289417,424.561734 254.800471,397.448794 255.465454,396.304101 L256.300029,394.869841 L257.900004,395.249897 C259.174182,395.5553 289.216669,402.946036 298.439398,424.839989 C307.662127,446.73168 292.151072,473.842357 291.48609,474.98705 L290.651514,476.419048 Z" id="Fill-35" fill="#6786AC" mask="url(#mask-2)"></path>
                                    <polygon id="Fill-36" fill="#6786AC" mask="url(#mask-2)" points="287.582981 473.2 255.244054 397.698193 259.368562 395.942857 291.70749 471.444664"></polygon>
                                    <path d="M474.023559,585.866667 C458.387636,585.866667 446.140867,552.166611 446.140867,509.143776 C446.140867,466.123197 458.387636,432.425397 474.023559,432.425397 C489.659483,432.425397 501.908475,466.123197 501.908475,509.143776 C501.908475,526.106588 500.007079,542.140055 496.408882,555.518571 L492.116842,554.329821 C495.612742,541.337028 497.460766,525.709586 497.460766,509.143776 C497.460766,465.951764 485.340757,436.936783 474.023559,436.936783 C462.706362,436.936783 450.588577,465.951764 450.588577,509.143776 C450.588577,552.3403 462.706362,581.35528 474.023559,581.35528 C478.375643,581.35528 482.01387,577.103299 484.297769,573.537048 L488.027173,575.995754 C483.890803,582.451547 479.047247,585.866667 474.023559,585.866667" id="Fill-37" fill="#6786AC" mask="url(#mask-2)"></path>
                                    <path d="M491.720162,559.382158 C488.654406,559.382158 486.162901,561.877002 486.162901,564.941699 C486.162901,568.008713 488.654406,570.503557 491.720162,570.503557 C494.785918,570.503557 497.277424,568.008713 497.277424,564.941699 C497.277424,561.877002 494.785918,559.382158 491.720162,559.382158 M491.720162,575.136508 C486.102697,575.136508 481.531849,570.563785 481.531849,564.941699 C481.531849,559.321929 486.102697,554.749206 491.720162,554.749206 C497.337628,554.749206 501.908475,559.321929 501.908475,564.941699 C501.908475,570.563785 497.337628,575.136508 491.720162,575.136508" id="Fill-38" fill="#6786AC" mask="url(#mask-2)"></path>
                                    <path d="M426.087907,554.749206 C417.111556,554.749206 410.85408,552.237743 408.024554,547.356467 C400.086976,533.665959 423.086757,506.14779 460.385469,484.707047 C475.088618,476.255311 489.956616,469.926065 503.381623,466.411816 L504.528789,470.760221 C491.487676,474.175541 477.003573,480.345151 462.641412,488.601276 C425.193659,510.127458 406.190894,535.199368 411.935759,545.108067 C414.855613,550.144483 424.242956,551.576714 437.681512,549.040519 C452.093353,546.319954 469.409242,539.430857 486.440596,529.639074 C503.469693,519.851789 518.120903,508.364713 527.693419,497.298088 C536.620089,486.975683 540.066104,478.166451 537.14625,473.132283 C534.935471,469.321245 529.402877,468.255504 525.152942,468.035161 L525.390053,463.542857 C533.088262,463.943072 538.505687,466.483764 541.057454,470.883883 C545.054471,477.777478 541.524902,488.198812 531.114594,500.23225 C521.221414,511.672109 506.156952,523.498694 488.698798,533.533303 C471.238385,543.570161 453.421176,550.645876 438.523821,553.458625 C433.948705,554.32201 429.78684,554.749206 426.087907,554.749206" id="Fill-39" fill="#6786AC" mask="url(#mask-2)"></path>
                                    <path d="M515.305536,461.738588 C514.342808,461.738588 513.393966,461.990959 512.537694,462.486438 C511.253285,463.229658 510.332214,464.426681 509.948049,465.859868 C509.566197,467.293054 509.760594,468.793385 510.503468,470.078391 C511.246343,471.361081 512.44281,472.282581 513.877644,472.666925 C515.307851,473.051269 516.80517,472.854466 518.091893,472.108932 C519.376301,471.368027 520.295058,470.171004 520.679224,468.735502 C521.063389,467.302316 520.866678,465.806615 520.126118,464.519294 C519.383244,463.234289 518.184463,462.315104 516.751942,461.93076 C516.272893,461.801102 515.7869,461.738588 515.305536,461.738588 M515.330993,477.492063 C514.44695,477.492063 513.555964,477.373982 512.678863,477.137819 C510.049876,476.436275 507.855967,474.748403 506.495188,472.393717 C505.134409,470.036715 504.773386,467.290739 505.476918,464.662844 C506.182764,462.032635 507.867538,459.837706 510.223444,458.476295 C512.577036,457.112568 515.319422,456.751377 517.950724,457.457551 C520.577397,458.16141 522.77362,459.849283 524.132084,462.203969 C525.492863,464.56097 525.8562,467.304631 525.150354,469.934841 C524.446822,472.565051 522.762048,474.759979 520.406142,476.121391 C518.837081,477.028998 517.094451,477.492063 515.330993,477.492063" id="Fill-40" fill="#6786AC" mask="url(#mask-2)"></path>
                                    <path d="M523.000235,554.749206 C519.30013,554.749206 515.141744,554.321855 510.567972,553.458155 C495.674992,550.644383 477.860758,543.566092 460.40773,533.525581 C445.706641,525.073018 432.773205,515.412624 423.007094,505.592536 L426.212798,502.423387 C435.703489,511.966821 448.307325,521.373053 462.665268,529.629934 C479.691621,539.425281 497.002425,546.316886 511.410033,549.038441 C524.849159,551.580057 534.22923,550.142807 537.145969,545.104557 C540.067224,540.068557 536.62222,531.256119 527.698172,520.932206 C518.128467,509.861553 503.481559,498.372545 486.455206,488.577198 C449.01845,467.04318 417.717682,463.192518 411.974505,473.102575 C409.764375,476.91725 411.602011,482.220907 413.534464,485.999594 L409.511531,488.041884 C406.012346,481.197512 405.513431,475.255077 408.062191,470.853357 C416.001953,457.155616 451.427243,463.233004 488.712744,484.681552 C506.165772,494.722063 521.22581,506.552952 531.118342,517.994727 C541.523336,530.032544 545.054126,540.457672 541.058283,547.353776 C538.22733,552.236829 531.971692,554.749206 523.000235,554.749206" id="Fill-41" fill="#6786AC" mask="url(#mask-2)"></path>
                                    <path d="M414.939724,501.089518 C417.592894,502.62527 421.000804,501.712621 422.531123,499.053431 C423.271973,497.767847 423.471076,496.269156 423.08676,494.835325 C422.702444,493.401493 421.781012,492.201614 420.4961,491.460376 C419.211188,490.716822 417.715597,490.522247 416.2802,490.904448 C414.844803,491.288965 413.647867,492.208563 412.907016,493.496464 C411.374383,496.148705 412.286554,499.556083 414.939724,501.089518 M417.699391,506.463492 C415.972284,506.463492 414.224341,506.025699 412.624567,505.101468 C407.760423,502.291713 406.086565,496.044469 408.89485,491.180096 C410.256162,488.822033 412.453246,487.135717 415.080949,486.429225 C417.715597,485.722733 420.454427,486.084086 422.811257,487.446111 C425.165771,488.808135 426.85352,491.004052 427.557328,493.635446 C428.261135,496.264524 427.902286,499.014053 426.540974,501.369799 C424.656436,504.635878 421.223059,506.463492 417.699391,506.463492" id="Fill-42" fill="#6786AC" mask="url(#mask-2)"></path>
                                    <path d="M473.466961,497.049964 C471.41593,497.049964 469.340024,497.570477 467.440502,498.670345 C464.64323,500.2862 462.641948,502.895556 461.805254,506.018636 C460.970821,509.141717 461.400475,512.402846 463.015069,515.202303 C466.348277,520.982265 473.760935,522.971532 479.536386,519.633457 C482.333658,518.019865 484.33494,515.408246 485.169373,512.285165 C486.006067,509.164348 485.576413,505.900955 483.96182,503.101498 C481.723098,499.222542 477.650432,497.049964 473.466961,497.049964 M473.516711,525.777778 C467.768396,525.777778 462.17159,522.797273 459.098435,517.465405 C456.880065,513.618132 456.289857,509.139454 457.438615,504.84635 C458.585112,500.557772 461.337158,496.970756 465.179167,494.74839 C469.023437,492.528287 473.500882,491.937617 477.788374,493.089536 C482.075866,494.239192 485.660083,496.991123 487.878453,500.838396 C490.096823,504.683406 490.687032,509.166611 489.538273,513.457452 C488.389515,517.748293 485.639731,521.333046 481.797722,523.555412 C479.18814,525.062638 476.334335,525.777778 473.516711,525.777778" id="Fill-43" fill="#6786AC" mask="url(#mask-2)"></path>
                                    <path d="M471.009404,354.966053 L578.923069,354.966053 L578.923069,246.995851 L471.009404,246.995851 L471.009404,354.966053 Z M581.169024,359.460317 L468.763449,359.460317 C467.523681,359.460317 466.517493,358.453602 466.517493,357.213185 L466.517493,244.748719 C466.517493,243.508302 467.523681,242.501587 468.763449,242.501587 L581.169024,242.501587 C582.411038,242.501587 583.41498,243.508302 583.41498,244.748719 L583.41498,357.213185 C583.41498,358.453602 582.411038,359.460317 581.169024,359.460317 Z" id="Fill-44" fill="#6786AC" mask="url(#mask-2)"></path>
                                    <path d="M480.710281,346.333004 L569.219921,346.333004 L569.219921,257.774933 L480.710281,257.774933 L480.710281,346.333004 Z M571.492543,350.87619 L478.43993,350.87619 C477.186696,350.87619 476.169579,349.860788 476.169579,348.604597 L476.169579,255.503339 C476.169579,254.24942 477.186696,253.231746 478.43993,253.231746 L571.492543,253.231746 C572.745777,253.231746 573.762894,254.24942 573.762894,255.503339 L573.762894,348.604597 C573.762894,349.860788 572.745777,350.87619 571.492543,350.87619 Z" id="Fill-45" fill="#6786AC" mask="url(#mask-2)"></path>
                                    <polygon id="Fill-46" fill="#6786AC" mask="url(#mask-2)" points="459.010315 255.377778 468.662401 255.377778 468.662401 250.012698 459.010315 250.012698"></polygon>
                                    <polygon id="Fill-47" fill="#6786AC" mask="url(#mask-2)" points="459.010315 268.253968 468.662401 268.253968 468.662401 262.888889 459.010315 262.888889"></polygon>
                                    <polygon id="Fill-48" fill="#6786AC" mask="url(#mask-2)" points="459.010315 278.984127 468.662401 278.984127 468.662401 273.619048 459.010315 273.619048"></polygon>
                                    <polygon id="Fill-49" fill="#6786AC" mask="url(#mask-2)" points="459.010315 291.860317 468.662401 291.860317 468.662401 286.495238 459.010315 286.495238"></polygon>
                                    <polygon id="Fill-50" fill="#6786AC" mask="url(#mask-2)" points="459.010315 304.736508 468.662401 304.736508 468.662401 299.371429 459.010315 299.371429"></polygon>
                                    <polygon id="Fill-51" fill="#6786AC" mask="url(#mask-2)" points="459.010315 316.539683 468.662401 316.539683 468.662401 311.174603 459.010315 311.174603"></polygon>
                                    <polygon id="Fill-52" fill="#6786AC" mask="url(#mask-2)" points="459.010315 328.342857 468.662401 328.342857 468.662401 322.977778 459.010315 322.977778"></polygon>
                                    <polygon id="Fill-53" fill="#6786AC" mask="url(#mask-2)" points="459.010315 340.146032 468.662401 340.146032 468.662401 334.780952 459.010315 334.780952"></polygon>
                                    <polygon id="Fill-54" fill="#6786AC" mask="url(#mask-2)" points="459.010315 353.022222 468.662401 353.022222 468.662401 347.657143 459.010315 347.657143"></polygon>
                                    <polygon id="Fill-55" fill="#6786AC" mask="url(#mask-2)" points="580.197618 353.022222 589.849704 353.022222 589.849704 347.657143 580.197618 347.657143"></polygon>
                                    <polygon id="Fill-56" fill="#6786AC" mask="url(#mask-2)" points="580.197618 340.146032 589.849704 340.146032 589.849704 334.780952 580.197618 334.780952"></polygon>
                                    <polygon id="Fill-57" fill="#6786AC" mask="url(#mask-2)" points="580.197618 328.342857 589.849704 328.342857 589.849704 322.977778 580.197618 322.977778"></polygon>
                                    <polygon id="Fill-58" fill="#6786AC" mask="url(#mask-2)" points="580.197618 316.539683 589.849704 316.539683 589.849704 311.174603 580.197618 311.174603"></polygon>
                                    <polygon id="Fill-59" fill="#6786AC" mask="url(#mask-2)" points="580.197618 304.736508 589.849704 304.736508 589.849704 299.371429 580.197618 299.371429"></polygon>
                                    <polygon id="Fill-60" fill="#6786AC" mask="url(#mask-2)" points="580.197618 291.860317 589.849704 291.860317 589.849704 286.495238 580.197618 286.495238"></polygon>
                                    <polygon id="Fill-61" fill="#6786AC" mask="url(#mask-2)" points="580.197618 278.984127 589.849704 278.984127 589.849704 273.619048 580.197618 273.619048"></polygon>
                                    <polygon id="Fill-62" fill="#6786AC" mask="url(#mask-2)" points="580.197618 268.253968 589.849704 268.253968 589.849704 262.888889 580.197618 262.888889"></polygon>
                                    <polygon id="Fill-63" fill="#6786AC" mask="url(#mask-2)" points="580.197618 255.377778 589.849704 255.377778 589.849704 250.012698 580.197618 250.012698"></polygon>
                                    <polygon id="Fill-64" fill="#6786AC" mask="url(#mask-2)" points="474.024671 366.971429 479.386941 366.971429 479.386941 357.314286 474.024671 357.314286"></polygon>
                                    <polygon id="Fill-65" fill="#6786AC" mask="url(#mask-2)" points="484.749211 366.971429 490.111481 366.971429 490.111481 357.314286 484.749211 357.314286"></polygon>
                                    <polygon id="Fill-66" fill="#6786AC" mask="url(#mask-2)" points="497.618659 366.971429 502.980929 366.971429 502.980929 357.314286 497.618659 357.314286"></polygon>
                                    <polygon id="Fill-67" fill="#6786AC" mask="url(#mask-2)" points="509.415653 366.971429 514.777923 366.971429 514.777923 357.314286 509.415653 357.314286"></polygon>
                                    <polygon id="Fill-68" fill="#6786AC" mask="url(#mask-2)" points="522.285101 366.971429 527.647372 366.971429 527.647372 357.314286 522.285101 357.314286"></polygon>
                                    <polygon id="Fill-69" fill="#6786AC" mask="url(#mask-2)" points="533.009642 366.971429 538.371912 366.971429 538.371912 357.314286 533.009642 357.314286"></polygon>
                                    <polygon id="Fill-70" fill="#6786AC" mask="url(#mask-2)" points="545.87909 366.971429 551.24136 366.971429 551.24136 357.314286 545.87909 357.314286"></polygon>
                                    <polygon id="Fill-71" fill="#6786AC" mask="url(#mask-2)" points="558.748538 366.971429 564.110808 366.971429 564.110808 357.314286 558.748538 357.314286"></polygon>
                                    <polygon id="Fill-72" fill="#6786AC" mask="url(#mask-2)" points="570.545532 366.971429 575.907802 366.971429 575.907802 357.314286 570.545532 357.314286"></polygon>
                                    <polygon id="Fill-73" fill="#6786AC" mask="url(#mask-2)" points="474.024671 244.647619 479.386941 244.647619 479.386941 234.990476 474.024671 234.990476"></polygon>
                                    <polygon id="Fill-74" fill="#6786AC" mask="url(#mask-2)" points="484.749211 244.647619 490.111481 244.647619 490.111481 234.990476 484.749211 234.990476"></polygon>
                                    <polygon id="Fill-75" fill="#6786AC" mask="url(#mask-2)" points="497.618659 244.647619 502.980929 244.647619 502.980929 234.990476 497.618659 234.990476"></polygon>
                                    <polygon id="Fill-76" fill="#6786AC" mask="url(#mask-2)" points="509.415653 244.647619 514.777923 244.647619 514.777923 234.990476 509.415653 234.990476"></polygon>
                                    <polygon id="Fill-77" fill="#6786AC" mask="url(#mask-2)" points="522.285101 244.647619 527.647372 244.647619 527.647372 234.990476 522.285101 234.990476"></polygon>
                                    <polygon id="Fill-78" fill="#6786AC" mask="url(#mask-2)" points="533.009642 244.647619 538.371912 244.647619 538.371912 234.990476 533.009642 234.990476"></polygon>
                                    <polygon id="Fill-79" fill="#6786AC" mask="url(#mask-2)" points="545.87909 244.647619 551.24136 244.647619 551.24136 234.990476 545.87909 234.990476"></polygon>
                                    <polygon id="Fill-80" fill="#6786AC" mask="url(#mask-2)" points="558.748538 244.647619 564.110808 244.647619 564.110808 234.990476 558.748538 234.990476"></polygon>
                                    <polygon id="Fill-81" fill="#6786AC" mask="url(#mask-2)" points="570.545532 244.647619 575.907802 244.647619 575.907802 234.990476 570.545532 234.990476"></polygon>
                                    <path d="M690.746568,171.68254 L604.618056,171.68254 C590.590332,171.68254 581.443285,165.593284 578.164749,154.072522 L582.491876,152.831616 C585.198862,162.340709 592.642511,167.161934 604.618056,167.161934 L690.746568,167.161934 C701.227983,167.161934 709.753976,158.593127 709.753976,148.062378 C709.753976,137.533888 701.227983,128.969601 690.746568,128.969601 C689.290691,128.969601 687.843815,129.139124 686.450944,129.471389 L684.090488,130.036464 L683.707954,127.629242 C681.068474,111.009237 666.968744,98.946002 650.18003,98.946002 C636.42458,98.946002 624.116007,107.189326 618.816794,119.946473 L617.878463,122.209036 L615.707023,121.083406 C612.266473,119.297767 608.535648,118.393646 604.618056,118.393646 C590.817602,118.393646 580.408194,128.180756 580.408194,141.161674 L575.907802,141.161674 C575.907802,125.604011 588.250128,113.87304 604.618056,113.87304 C608.398386,113.87304 612.162964,114.625721 615.628266,116.067794 C622.068328,102.845024 635.38724,94.4253968 650.18003,94.4253968 C668.420121,94.4253968 683.858718,107.00172 687.722305,124.645643 C688.721392,124.514545 689.73173,124.448996 690.746568,124.448996 C703.709949,124.448996 714.254369,135.043035 714.254369,148.062378 C714.254369,161.086241 703.709949,171.68254 690.746568,171.68254" id="Fill-82" fill="#6786AC" mask="url(#mask-2)"></path>
                                    <path d="M641.327496,149.149206 L561.860564,149.149206 C545.951837,149.149206 533.009642,136.18185 533.009642,120.244457 C533.009642,104.307063 545.951837,91.3397071 561.860564,91.3397071 C565.650505,91.3397071 569.420142,92.0923878 572.898766,93.5344609 C579.352944,80.3116907 592.705717,71.8920635 607.536116,71.8920635 C623.153829,71.8920635 633.73408,78.2638565 639.881453,91.3713513 L635.795988,93.2948688 C630.395323,81.7763668 621.416773,76.4126687 607.536116,76.4126687 C593.747951,76.4126687 581.405829,84.6559923 576.0954,97.4108798 C575.854017,97.9940379 575.378019,98.4483587 574.786968,98.6653478 C574.195918,98.8845971 573.539446,98.8416514 572.979979,98.5500724 C569.573544,96.7892966 565.729462,95.8603123 561.860564,95.8603123 C548.440114,95.8603123 537.521476,106.797917 537.521476,120.244457 C537.521476,133.690997 548.440114,144.628601 561.860564,144.628601 L641.327496,144.628601 L641.327496,149.149206 Z" id="Fill-83" fill="#6786AC" mask="url(#mask-2)"></path>
                                    <path d="M650.978451,138.654043 C646.969577,138.654043 643.707277,141.918053 643.707277,145.93129 C643.707277,149.942265 646.969577,153.206274 650.978451,153.206274 C654.987325,153.206274 658.251888,149.942265 658.251888,145.93129 C658.251888,141.918053 654.987325,138.654043 650.978451,138.654043 M650.978451,157.733333 C644.474211,157.733333 639.182588,152.438938 639.182588,145.93129 C639.182588,139.42138 644.474211,134.126984 650.978451,134.126984 C657.482691,134.126984 662.776576,139.42138 662.776576,145.93129 C662.776576,152.438938 657.482691,157.733333 650.978451,157.733333" id="Fill-84" fill="#6786AC" mask="url(#mask-2)"></path>
                                    <path d="M572.943063,642.422313 L624.988063,642.422313 L624.988063,631.247529 L572.943063,631.247529 L572.943063,642.422313 Z M627.259283,647.028571 L570.671844,647.028571 C569.415859,647.028571 568.400624,645.999073 568.400624,644.725442 L568.400624,628.944399 C568.400624,627.670769 569.415859,626.64127 570.671844,626.64127 L627.259283,626.64127 C628.512996,626.64127 629.530502,627.670769 629.530502,628.944399 L629.530502,644.725442 C629.530502,645.999073 628.512996,647.028571 627.259283,647.028571 Z" id="Fill-116" fill="#6786AC" mask="url(#mask-2)"></path>
                                    <path d="M517.175455,640.455298 L569.220454,640.455298 L569.220454,633.214544 L517.175455,633.214544 L517.175455,640.455298 Z M571.491674,644.88254 L514.904235,644.88254 C513.648251,644.88254 512.633015,643.890837 512.633015,642.668919 L512.633015,631.000923 C512.633015,629.77679 513.648251,628.787302 514.904235,628.787302 L571.491674,628.787302 C572.745387,628.787302 573.762894,629.77679 573.762894,631.000923 L573.762894,642.668919 C573.762894,643.890837 572.745387,644.88254 571.491674,644.88254 Z" id="Fill-117" fill="#6786AC" mask="url(#mask-2)"></path>
                                    <path d="M628.503022,639.330849 L635.687935,639.330849 C636.40751,639.330849 636.992707,638.723988 636.992707,637.980528 L636.992707,636.762329 C636.992707,636.016629 636.40751,635.412008 635.687935,635.412008 L628.503022,635.412008 L628.503022,639.330849 Z M635.687935,643.809524 L626.335627,643.809524 C625.139225,643.809524 624.168232,642.80854 624.168232,641.570186 L624.168232,633.172671 C624.168232,631.934317 625.139225,630.933333 626.335627,630.933333 L635.687935,630.933333 C638.798147,630.933333 641.327496,633.54888 641.327496,636.762329 L641.327496,637.980528 C641.327496,641.193978 638.798147,643.809524 635.687935,643.809524 Z" id="Fill-118" fill="#6786AC" mask="url(#mask-2)"></path>
                                    <path d="M621.894216,654.539683 L573.892002,654.539683 C572.634471,654.539683 571.617986,653.480099 571.617986,652.16925 C571.617986,650.858401 572.634471,649.798817 573.892002,649.798817 L619.620199,649.798817 L619.620199,644.033925 C619.620199,642.725446 620.638959,641.663492 621.894216,641.663492 C623.149473,641.663492 624.168232,642.725446 624.168232,644.033925 L624.168232,652.16925 C624.168232,653.480099 623.149473,654.539683 621.894216,654.539683" id="Fill-119" fill="#6786AC" mask="url(#mask-2)"></path>
                                    <path d="M499.801878,636.834214 L512.284264,639.831308 L512.284264,633.839333 L499.801878,636.834214 Z M514.603548,644.88254 C514.415686,644.88254 514.225504,644.860405 514.039962,644.813921 L489.722271,638.981319 C488.69019,638.733406 487.966573,637.848002 487.966573,636.834214 C487.966573,635.820426 488.69019,634.935021 489.722271,634.687108 L514.039962,628.854506 C514.731108,628.686279 515.466321,628.839012 516.029907,629.255152 C516.593493,629.677932 516.922831,630.319851 516.922831,631.001612 L516.922831,642.669029 C516.922831,643.35079 516.593493,643.992708 516.029907,644.415489 C515.619394,644.720953 515.116109,644.88254 514.603548,644.88254 Z" id="Fill-120" fill="#6786AC" mask="url(#mask-2)"></path>
                                    <path d="M83.9040359,332.320725 L135.949036,332.320725 L135.949036,321.145941 L83.9040359,321.145941 L83.9040359,332.320725 Z M138.220255,336.926984 L81.6328162,336.926984 C80.379103,336.926984 79.3615965,335.895182 79.3615965,334.623855 L79.3615965,318.842812 C79.3615965,317.569181 80.379103,316.539683 81.6328162,316.539683 L138.220255,316.539683 C139.473969,316.539683 140.491475,317.569181 140.491475,318.842812 L140.491475,334.623855 C140.491475,335.895182 139.473969,336.926984 138.220255,336.926984 Z" id="Fill-126" fill="#6786AC" mask="url(#mask-2)"></path>
                                    <path d="M28.1364276,330.35371 L80.1814272,330.35371 L80.1814272,323.112956 L28.1364276,323.112956 L28.1364276,330.35371 Z M82.4526469,334.780952 L25.8652079,334.780952 C24.6114946,334.780952 23.5939882,333.78925 23.5939882,332.567331 L23.5939882,320.899335 C23.5939882,319.675203 24.6114946,318.685714 25.8652079,318.685714 L82.4526469,318.685714 C83.7063601,318.685714 84.7238666,319.675203 84.7238666,320.899335 L84.7238666,332.567331 C84.7238666,333.78925 83.7063601,334.780952 82.4526469,334.780952 Z" id="Fill-127" fill="#6786AC" mask="url(#mask-2)"></path>
                                    <path d="M140.536448,328.156246 L147.721362,328.156246 C148.440937,328.156246 149.026134,327.551625 149.026134,326.808165 L149.026134,325.589965 C149.026134,324.844266 148.440937,324.239644 147.721362,324.239644 L140.536448,324.239644 L140.536448,328.156246 Z M147.721362,332.634921 L138.369054,332.634921 C137.172652,332.634921 136.201659,331.633937 136.201659,330.395583 L136.201659,322.000307 C136.201659,320.761953 137.172652,319.75873 138.369054,319.75873 L147.721362,319.75873 C150.831573,319.75873 153.360923,322.376516 153.360923,325.589965 L153.360923,326.808165 C153.360923,330.021614 150.831573,332.634921 147.721362,332.634921 Z" id="Fill-128" fill="#6786AC" mask="url(#mask-2)"></path>
                                    <path d="M132.855188,345.511111 L84.852975,345.511111 C83.5954439,345.511111 82.5789586,344.451333 82.5789586,343.140242 C82.5789586,341.829151 83.5954439,340.769373 84.852975,340.769373 L130.581172,340.769373 L130.581172,335.00579 C130.581172,333.69707 131.599931,332.634921 132.855188,332.634921 C134.110446,332.634921 135.129205,333.69707 135.129205,335.00579 L135.129205,343.140242 C135.129205,344.451333 134.110446,345.511111 132.855188,345.511111" id="Fill-129" fill="#6786AC" mask="url(#mask-2)"></path>
                                    <path d="M11.8353052,326.735016 L24.3176906,329.729831 L24.3176906,323.737987 L11.8353052,326.735016 Z M26.6369744,334.780952 C26.4491124,334.780952 26.2589311,334.758818 26.0733884,334.712335 L1.75569783,328.882074 C0.723616544,328.634166 0,327.748781 0,326.735016 C0,325.72125 0.723616544,324.835865 1.75569783,324.587957 L26.0733884,318.753269 C26.764535,318.585046 27.5020673,318.735561 28.0633339,319.153906 C28.6269199,319.574464 28.9562582,320.216368 28.9562582,320.900328 L28.9562582,332.56749 C28.9562582,333.249236 28.6269199,333.89114 28.0633339,334.313912 C27.6528207,334.61937 27.1495361,334.780952 26.6369744,334.780952 Z" id="Fill-130" fill="#6786AC" mask="url(#mask-2)"></path>
                                    <path d="M685.880245,587.43247 C689.029271,587.885495 692.29149,587.885495 695.440516,587.43247 L695.617097,582.136598 C695.651055,581.135411 696.339267,580.274662 697.305934,580.020968 C699.590167,579.422973 701.781581,578.512392 703.816789,577.318669 C704.681582,576.813545 705.777289,576.935862 706.508515,577.619931 L710.377448,581.239607 C712.953718,579.316512 715.217575,577.051383 717.137327,574.473667 L713.517418,570.604826 C712.833733,569.87319 712.711485,568.779132 713.218589,567.913853 C714.411642,565.868442 715.319449,563.678062 715.914844,561.397077 C716.166132,560.427602 717.028662,559.739003 718.03155,559.707291 L723.326713,559.530611 C723.553099,557.954081 723.668556,556.35037 723.668556,554.746659 C723.668556,553.140682 723.553099,551.536971 723.326713,549.962706 L718.033814,549.786026 C717.030925,549.752049 716.17066,549.06798 715.917107,548.098505 C715.317185,545.810725 714.409378,543.61808 713.218589,541.583994 C712.711485,540.718715 712.833733,539.622392 713.517418,538.888491 L717.135063,535.021916 C715.217575,532.444199 712.953718,530.176805 710.377448,528.255975 L706.508515,531.877917 C705.779553,532.55972 704.681582,532.686568 703.816789,532.174648 C701.781581,530.980925 699.590167,530.072609 697.308198,529.47688 C696.339267,529.223185 695.651055,528.362436 695.617097,527.358984 L695.440516,522.063113 C692.29149,521.603292 689.029271,521.603292 685.880245,522.063113 L685.703664,527.356719 C685.67197,528.355641 684.983758,529.21639 684.017091,529.470084 C681.730594,530.072609 679.53918,530.980925 677.503972,532.174648 C676.639179,532.679772 675.543472,532.557455 674.812246,531.875651 L670.945577,528.25371 C668.369307,530.17454 666.103186,532.441934 664.185698,535.01965 L667.801079,538.890756 C668.484764,539.624658 668.607012,540.718715 668.099908,541.583994 C666.909119,543.620345 666.001312,545.810725 665.405918,548.09624 C665.150102,549.065715 664.289836,549.752049 663.289211,549.786026 L657.994048,549.962706 C657.767662,551.536971 657.652205,553.140682 657.652205,554.746659 C657.652205,556.35037 657.767662,557.954081 657.994048,559.530611 L663.286947,559.707291 C664.287572,559.739003 665.147838,560.425337 665.40139,561.397077 C665.999048,563.680327 666.909119,565.870707 668.102172,567.913853 C668.607012,568.779132 668.484764,569.87319 667.801079,570.604826 L664.183435,574.473667 C666.100922,577.053649 668.367043,579.321043 670.945577,581.244137 L674.812246,577.622196 C675.541208,576.938127 676.636915,576.81581 677.501709,577.320934 C679.548236,578.516922 681.73965,579.427504 684.012563,580.020968 C684.983758,580.274662 685.67197,581.135411 685.703664,582.136598 L685.880245,587.43247 Z M690.659249,592.304762 C688.157686,592.304762 685.658387,592.057863 683.233796,591.57086 C682.201477,591.362468 681.449876,590.476803 681.415918,589.425783 L681.232546,583.92605 C679.681803,583.423191 678.167283,582.798016 676.709358,582.050523 L672.695539,585.808372 C671.928091,586.524153 670.77126,586.623818 669.895147,586.04168 C665.704747,583.253307 662.170865,579.715175 659.38632,575.524687 C658.806773,574.648082 658.901855,573.490601 659.619498,572.722722 L663.375237,568.706648 C662.628164,567.25017 662.001076,565.734799 661.500763,564.178656 L656.001853,563.99518 C654.951423,563.963468 654.063991,563.20918 653.85798,562.180812 C653.371251,559.750328 653.12449,557.251891 653.12449,554.746659 C653.12449,552.241426 653.371251,549.740724 653.85798,547.312505 C654.063991,546.284137 654.951423,545.529849 656.001853,545.495872 L661.498499,545.312396 C662.00334,543.756253 662.628164,542.243147 663.375237,540.786669 L659.619498,536.770595 C658.904119,536.004982 658.809037,534.84297 659.388584,533.968631 C662.175393,529.778142 665.709275,526.240011 669.895147,523.456167 C670.773524,522.871764 671.930355,522.973695 672.695539,523.68721 L676.709358,527.447324 C678.162755,526.699832 679.677276,526.072391 681.232546,525.567267 L681.415918,520.069799 C681.449876,519.018779 682.201477,518.130849 683.233796,517.922457 C688.085243,516.948452 693.237782,516.952982 698.089229,517.922457 C699.119284,518.130849 699.870885,519.018779 699.907107,520.069799 L700.088215,525.567267 C701.645749,526.072391 703.158006,526.699832 704.613667,527.447324 L708.627486,523.68721 C709.390406,522.973695 710.554029,522.869499 711.430142,523.458432 C715.616014,526.246806 719.15216,529.784937 721.929913,533.970896 C722.511725,534.847501 722.414379,536.007247 721.699,536.775125 L717.945524,540.786669 C718.690333,542.243147 719.317422,543.758518 719.819998,545.312396 L725.316644,545.495872 C726.367074,545.529849 727.254506,546.284137 727.462781,547.312505 C727.94951,549.740724 728.196271,552.241426 728.196271,554.746659 C728.196271,557.251891 727.94951,559.750328 727.462781,562.180812 C727.254506,563.20918 726.367074,563.963468 725.316644,563.99518 L719.819998,564.178656 C719.317422,565.734799 718.692597,567.25017 717.945524,568.706648 L721.701264,572.722722 C722.416643,573.490601 722.513988,574.650347 721.932177,575.524687 C719.15216,579.710645 715.616014,583.246511 711.430142,586.034885 C710.554029,586.621553 709.394934,586.524153 708.627486,585.803842 L704.613667,582.048258 C703.155742,582.795751 701.643486,583.420926 700.088215,583.923785 L699.907107,589.425783 C699.870885,590.476803 699.119284,591.362468 698.089229,591.57086 C695.664638,592.057863 693.163075,592.304762 690.659249,592.304762 Z" id="Fill-145" fill="#6786AC" mask="url(#mask-2)"></path>
                                    <path d="M643.07037,576.209524 C640.490439,570.081253 639.182588,563.573473 639.182588,556.865835 C639.182588,531.775628 657.852438,510.568082 682.612177,507.536508 L683.153203,511.991799 C660.633577,514.751655 643.653873,534.043695 643.653873,556.865835 C643.653873,562.969404 644.840999,568.888833 647.188424,574.460193 L643.07037,576.209524 Z" id="Fill-151" fill="#6786AC" mask="url(#mask-2)"></path>
                                    <path d="M282.055404,325.12381 C270.819112,325.12381 261.678778,315.891852 261.678778,304.547936 L261.678778,201.726984 L302.43203,201.726984 L302.43203,216.139981 L297.982013,216.139981 L297.982013,206.220514 L266.128794,206.220514 L266.128794,304.547936 C266.128794,313.415917 273.273296,320.63028 282.055404,320.63028 C290.837512,320.63028 297.982013,313.415917 297.982013,304.547936 L297.982013,292.972603 L302.43203,292.972603 L302.43203,304.547936 C302.43203,315.891852 293.291696,325.12381 282.055404,325.12381" id="Fill-170" fill="#6786AC" mask="url(#mask-2)"></path>
                                    <path d="M257.715511,192.145735 C256.543884,192.145735 255.444775,192.58253 254.61761,193.377498 C253.794978,194.172466 253.341737,195.231696 253.341737,196.362997 C253.341737,198.68675 255.30427,200.578075 257.715511,200.578075 L307.467751,200.578075 C308.639378,200.578075 309.738487,200.141279 310.565652,199.346311 C311.388284,198.553527 311.841524,197.492114 311.841524,196.362997 C311.841524,194.03706 309.878992,192.145735 307.467751,192.145735 L257.715511,192.145735 Z M307.467751,204.946032 L257.715511,204.946032 C252.804647,204.946032 248.80933,201.095678 248.80933,196.362997 C248.80933,194.065452 249.733941,191.909865 251.413198,190.289353 C253.094721,188.668841 255.333731,187.777778 257.715511,187.777778 L307.467751,187.777778 C312.378615,187.777778 316.373932,191.628132 316.373932,196.362997 C316.373932,198.658358 315.449321,200.816129 313.767798,202.434457 C312.086274,204.054969 309.849531,204.946032 307.467751,204.946032 Z" id="Fill-171" fill="#6786AC" mask="url(#mask-2)"></path>
                                    <polygon id="Fill-172" fill="#6786AC" mask="url(#mask-2)" points="269.185956 216.749206 276.693134 216.749206 276.693134 211.384127 269.185956 211.384127"></polygon>
                                    <polygon id="Fill-173" fill="#6786AC" mask="url(#mask-2)" points="269.185956 230.698413 276.693134 230.698413 276.693134 225.333333 269.185956 225.333333"></polygon>
                                    <polygon id="Fill-174" fill="#6786AC" mask="url(#mask-2)" points="269.185956 245.720635 276.693134 245.720635 276.693134 240.355556 269.185956 240.355556"></polygon>
                                    <polygon id="Fill-175" fill="#6786AC" mask="url(#mask-2)" points="269.185956 259.669841 276.693134 259.669841 276.693134 254.304762 269.185956 254.304762"></polygon>
                                    <polygon id="Fill-176" fill="#6786AC" mask="url(#mask-2)" points="269.185956 273.619048 276.693134 273.619048 276.693134 268.253968 269.185956 268.253968"></polygon>
                                    <polygon id="Fill-177" fill="#6786AC" mask="url(#mask-2)" points="269.185956 286.495238 276.693134 286.495238 276.693134 281.130159 269.185956 281.130159"></polygon>
                                    <path d="M320.678921,228.70183 C314.667723,228.70183 308.656526,230.990209 304.078152,235.56919 C294.934734,244.71382 294.934734,259.594951 304.078152,268.739581 C307.396973,272.061063 311.582153,274.289456 316.178298,275.182591 C317.668879,275.475859 319.152796,275.575836 320.703357,275.613606 C322.231703,275.613606 323.753384,275.46475 325.23508,275.16926 C328.718287,274.482746 332.041551,272.991967 334.851663,270.852444 C335.689144,270.21703 336.497745,269.512742 337.255254,268.752911 C337.997213,268.010854 338.708071,267.197702 339.370058,266.337893 C346.420886,257.055516 345.516763,243.818464 337.257475,235.555859 C332.687988,230.985766 326.683454,228.70183 320.678921,228.70183 M320.605614,280.057061 C318.846239,280.057061 317.066871,279.885988 315.327489,279.543842 C309.860542,278.479634 304.884532,275.829113 300.937046,271.881103 C290.06091,261.003526 290.06091,243.305245 300.937046,232.427667 C311.819846,221.543424 329.522446,221.536759 340.398582,232.414337 C350.221758,242.238816 351.296932,257.981976 342.899915,269.035071 C342.113528,270.059287 341.273826,271.016852 340.398582,271.892212 C339.498901,272.794233 338.537021,273.636268 337.539597,274.391656 C334.194119,276.935533 330.237747,278.712915 326.096996,279.526068 C324.3043,279.885988 322.449403,280.061504 320.605614,280.057061" id="Fill-178" fill="#6786AC" mask="url(#mask-2)"></path>
                                    <path d="M348.727766,281.405249 L349.495815,282.173949 L351.737446,279.930418 L350.967165,279.161719 C350.609932,279.559476 350.24377,279.943826 349.873141,280.314768 C349.50028,280.69018 349.116256,281.054418 348.727766,281.405249 M349.495815,287.568254 C348.924244,287.568254 348.352673,287.351499 347.917296,286.913519 L343.838153,282.833153 C343.380449,282.377297 343.146016,281.744907 343.19067,281.09911 C343.233091,280.455548 343.5546,279.863381 344.068121,279.472327 C344.983528,278.777369 345.874375,277.997496 346.716103,277.155055 C347.531039,276.339429 348.314717,275.443358 349.047042,274.491421 C349.437765,273.981934 350.02943,273.666857 350.672448,273.6244 C351.30207,273.579708 351.940622,273.816575 352.39386,274.272431 L356.473003,278.348327 C356.892751,278.768431 357.127184,279.336017 357.127184,279.928184 C357.127184,280.522585 356.892751,281.090172 356.473003,281.510275 L351.074334,286.913519 C350.636725,287.351499 350.067386,287.568254 349.495815,287.568254" id="Fill-179" fill="#6786AC" mask="url(#mask-2)"></path>
                                    <path d="M380.556313,320.831746 C378.315529,320.831746 376.074746,319.987049 374.370935,318.295408 L368.924178,312.894739 L372.127887,309.718139 L377.574644,315.118809 C379.219546,316.747546 381.895345,316.749793 383.537982,315.118809 C385.182884,313.487824 385.182884,310.836914 383.537982,309.205929 L377.905437,303.621044 L381.109145,300.444444 L386.74169,306.029329 C390.153843,309.412611 390.153843,314.914374 386.74169,318.295408 C385.037879,319.987049 382.797096,320.831746 380.556313,320.831746" id="Fill-180" fill="#6786AC" mask="url(#mask-2)"></path>
                                    <path d="M369.575992,313.320635 L346.188012,290.039935 C346.047162,289.899731 345.894953,289.736913 345.77682,289.578618 C345.106645,288.678596 345.199788,287.423542 345.994911,286.632066 L355.16836,277.500694 C355.965755,276.709218 357.224322,276.614241 358.12849,277.283604 C358.287515,277.401195 358.453355,277.552706 358.591933,277.690649 L381.793627,300.788178 L378.581329,303.985741 L356.785868,282.287993 L350.797455,288.246677 L372.788289,310.123072 L369.575992,313.320635 Z" id="Fill-181" fill="#6786AC" mask="url(#mask-2)"></path>
                                    <path d="M321.736202,218.04119 C302.342161,218.04119 286.564073,233.827544 286.564073,253.231746 C286.564073,272.635948 302.342161,288.422302 321.736202,288.422302 C341.130243,288.422302 356.908331,272.635948 356.908331,253.231746 C356.908331,233.827544 341.130243,218.04119 321.736202,218.04119 M321.736202,292.933333 C299.85563,292.933333 282.055404,275.123781 282.055404,253.231746 C282.055404,231.339711 299.85563,213.530159 321.736202,213.530159 C343.616774,213.530159 361.417,231.339711 361.417,253.231746 C361.417,275.123781 343.616774,292.933333 321.736202,292.933333" id="Fill-182" fill="#6786AC" mask="url(#mask-2)"></path>
                                    <path d="M324.54542,113.021511 C319.181563,113.536596 302.624355,115.962621 295.278153,126.609927 C287.911608,137.281761 291.702248,153.345257 293.187311,158.451505 C298.551169,157.93642 315.108377,155.510395 322.454578,144.863089 C329.818863,134.191255 326.030483,118.127759 324.54542,113.021511 Z M289.982107,163.098413 L289.430577,161.55093 C289.100563,160.625562 281.455993,138.711064 291.539502,124.099169 C301.625271,109.489504 325.09469,108.470485 326.086992,108.434808 L327.750624,108.374603 L328.304415,109.922086 C328.634429,110.847454 336.276739,132.761952 326.19323,147.373846 C316.10746,161.983512 292.640302,163.002531 291.645739,163.038208 L289.982107,163.098413 Z" id="Fill-183" fill="#6786AC" mask="url(#mask-2)"></path>
                                    <path d="M284.302816,186.704762 L279.910496,185.988663 C282.726029,168.081648 288.230329,161.525714 289.497986,160.222685 L323.422267,109.447619 L327.098472,111.999289 L292.664905,163.399809 C292.633769,163.431535 287.127245,168.750158 284.302816,186.704762" id="Fill-184" fill="#6786AC" mask="url(#mask-2)"></path>
                                    <path d="M249.420898,137.626696 C248.348847,141.761705 246.207056,152.809131 251.553447,160.017066 C256.897528,167.225001 268.4498,168.880337 272.865078,169.253621 C273.937129,165.118613 276.07661,154.073408 270.732529,146.865474 C265.372275,139.633097 253.831555,137.993314 249.420898,137.626696 Z M276.256825,173.828571 L274.556331,173.80413 C273.793881,173.790799 255.804683,173.406405 247.789717,162.596725 C239.777061,151.789266 245.25977,135.307003 245.497746,134.609318 L246.029151,133.053968 L247.729645,133.080631 C248.492095,133.091741 266.481293,133.478357 274.496259,144.285815 C282.508915,155.095495 277.023896,171.577758 276.78592,172.273222 L276.256825,173.828571 Z" id="Fill-185" fill="#6786AC" mask="url(#mask-2)"></path>
                                    <path d="M279.740832,185.631746 C278.749087,177.940019 272.753639,174.426124 272.499519,174.279335 L272.067739,174.033182 L271.773139,173.624432 L245.591968,136.748856 L249.255353,134.126984 L275.16891,170.627684 C276.945505,171.777153 283.078133,176.32986 284.200312,185.051366 L279.740832,185.631746 Z" id="Fill-186" fill="#6786AC" mask="url(#mask-2)"></path>
                                </g>
                                <g id="Page-1-Copy">
                                    <path d="M1128.22051,576.349121 C1123.56567,576.349121 1119.78113,580.135975 1119.78113,584.793651 C1119.78113,589.44911 1123.56567,593.23818 1128.22051,593.23818 C1132.87534,593.23818 1136.6621,589.44911 1136.6621,584.793651 C1136.6621,580.135975 1132.87534,576.349121 1128.22051,576.349121 M1128.22051,597.669841 C1121.12532,597.669841 1115.35217,591.893171 1115.35217,584.793651 C1115.35217,577.691914 1121.12532,571.91746 1128.22051,571.91746 C1135.3157,571.91746 1141.09106,577.691914 1141.09106,584.793651 C1141.09106,591.893171 1135.3157,597.669841 1128.22051,597.669841" id="Fill-3" fill="#6786AC"></path>
                                    <path d="M1215.09039,82.8219575 C1208.69473,82.8219575 1203.49334,88.0257065 1203.49334,94.4242739 C1203.49334,100.822841 1208.69473,106.028836 1215.09039,106.028836 C1221.48605,106.028836 1226.68744,100.822841 1226.68744,94.4242739 C1226.68744,88.0257065 1221.48605,82.8219575 1215.09039,82.8219575 M1215.09039,110.520635 C1206.22087,110.520635 1199.00358,103.300068 1199.00358,94.4242739 C1199.00358,85.5507253 1206.22087,78.3301587 1215.09039,78.3301587 C1223.95991,78.3301587 1231.1772,85.5507253 1231.1772,94.4242739 C1231.1772,103.300068 1223.95991,110.520635 1215.09039,110.520635" id="Fill-5" fill="#6786AC"></path>
                                    <mask id="mask-4" fill="white">
                                        <use xlink:href="#path-3"></use>
                                    </mask>
                                    <g id="Clip-8"></g>
                                    <polygon id="Fill-10" fill="#6786AC" mask="url(#mask-4)" points="1400.62493 554.749206 1405.9872 554.749206 1405.9872 531.142857 1400.62493 531.142857"></polygon>
                                    <polygon id="Fill-11" fill="#6786AC" mask="url(#mask-4)" points="1390.97285 546.165079 1414.56684 546.165079 1414.56684 540.8 1390.97285 540.8"></polygon>
                                    <polygon id="Fill-12" fill="#6786AC" mask="url(#mask-4)" points="925.527808 471.053968 930.890078 471.053968 930.890078 447.447619 925.527808 447.447619"></polygon>
                                    <polygon id="Fill-13" fill="#6786AC" mask="url(#mask-4)" points="915.875722 462.469841 939.46971 462.469841 939.46971 457.104762 915.875722 457.104762"></polygon>
                                    <polygon id="Fill-14" fill="#6786AC" mask="url(#mask-4)" points="1052.07738 -11.8790607 1042.50114 -11.8790607 1042.50114 -21.4603175 1038.05741 -21.4603175 1038.05741 -11.8790607 1028.48339 -11.8790607 1028.48339 -7.43300194 1038.05741 -7.43300194 1038.05741 2.14603175 1042.50114 2.14603175 1042.50114 -7.43300194 1052.07738 -7.43300194"></polygon>
                                    <polygon id="Fill-15" fill="#6786AC" mask="url(#mask-4)" points="1337.35015 141.638095 1342.71242 141.638095 1342.71242 118.031746 1337.35015 118.031746"></polygon>
                                    <polygon id="Fill-16" fill="#6786AC" mask="url(#mask-4)" points="1328.77051 131.980952 1352.3645 131.980952 1352.3645 126.615873 1328.77051 126.615873"></polygon>
                                    <path d="M1459.6099,131.980952 L1466.35104,131.980952 L1466.35104,126.615873 L1459.6099,126.615873 L1459.6099,131.980952 Z M1473.09218,131.980952 L1479.83332,131.980952 L1479.83332,126.615873 L1473.09218,126.615873 L1473.09218,131.980952 Z M1486.57446,131.980952 L1493.3156,131.980952 L1493.3156,126.615873 L1486.57446,126.615873 L1486.57446,131.980952 Z M1500.05674,131.980952 L1506.79788,131.980952 L1506.79788,126.615873 L1500.05674,126.615873 L1500.05674,131.980952 Z" id="Fill-17" fill="#6786AC" mask="url(#mask-4)"></path>
                                    <polygon id="Fill-18" fill="#6786AC" mask="url(#mask-4)" points="1369.52377 131.980952 1454.24763 131.980952 1454.24763 126.615873 1369.52377 126.615873"></polygon>
                                    <path d="M1005.96186,632.006349 L1012.703,632.006349 L1012.703,626.64127 L1005.96186,626.64127 L1005.96186,632.006349 Z M1019.44414,632.006349 L1026.18528,632.006349 L1026.18528,626.64127 L1019.44414,626.64127 L1019.44414,632.006349 Z M1032.92642,632.006349 L1039.66756,632.006349 L1039.66756,626.64127 L1032.92642,626.64127 L1032.92642,632.006349 Z M1046.4087,632.006349 L1053.14984,632.006349 L1053.14984,626.64127 L1046.4087,626.64127 L1046.4087,632.006349 Z" id="Fill-24" fill="#6786AC" mask="url(#mask-4)"></path>
                                    <polygon id="Fill-25" fill="#6786AC" mask="url(#mask-4)" points="916.948176 632.006349 1001.67204 632.006349 1001.67204 626.64127 916.948176 626.64127"></polygon>
                                    <path d="M896.605015,628.249649 L900.323995,631.972866 L904.045263,628.249649 L900.323995,624.528721 L896.605015,628.249649 Z M900.323995,638.444444 L890.136826,628.249649 L900.323995,618.057143 L910.513452,628.249649 L900.323995,638.444444 Z" id="Fill-26" fill="#6786AC" mask="url(#mask-4)"></path>
                                    <polygon id="Fill-85" fill="#6786AC" mask="url(#mask-4)" points="1240.82929 238.209524 1271.93045 238.209524 1271.93045 232.844444 1240.82929 232.844444"></polygon>
                                    <path d="M1294.45199,226.406349 L1290.08547,226.406349 C1290.08547,221.820246 1286.51148,218.088909 1282.12095,218.088909 C1277.72605,218.088909 1274.15206,221.820246 1274.15206,226.406349 L1269.78554,226.406349 C1269.78554,219.306095 1275.31792,213.530159 1282.12095,213.530159 C1288.91961,213.530159 1294.45199,219.306095 1294.45199,226.406349" id="Fill-86" fill="#6786AC" mask="url(#mask-4)"></path>
                                    <path d="M1392.0453,226.406349 L1387.55693,226.406349 C1387.55693,221.820246 1383.8832,218.088909 1379.3679,218.088909 L1283.72745,218.088909 L1283.72745,213.530159 L1379.3679,213.530159 C1386.35854,213.530159 1392.0453,219.306095 1392.0453,226.406349" id="Fill-87" fill="#6786AC" mask="url(#mask-4)"></path>
                                    <polygon id="Fill-88" fill="#6786AC" mask="url(#mask-4)" points="1386.68303 253.231746 1392.0453 253.231746 1392.0453 225.333333 1386.68303 225.333333"></polygon>
                                    <path d="M1324.4807,353.022222 L1293.44793,353.022222 C1292.22619,353.022222 1291.23462,352.013725 1291.23462,350.766075 L1291.23462,225.333333 L1295.66124,225.333333 L1295.66124,348.509928 L1324.4807,348.509928 L1324.4807,353.022222 Z" id="Fill-89" fill="#6786AC" mask="url(#mask-4)"></path>
                                    <path d="M1252.62628,318.685714 L1231.32319,318.685714 C1230.05632,318.685714 1229.03229,317.672767 1229.03229,316.419612 L1229.03229,244.647619 L1233.61409,244.647619 L1233.61409,314.15351 L1252.62628,314.15351 L1252.62628,318.685714 Z" id="Fill-90" fill="#6786AC" mask="url(#mask-4)"></path>
                                    <polygon id="Fill-91" fill="#6786AC" mask="url(#mask-4)" points="1262.27837 334.780952 1293.37953 334.780952 1293.37953 329.415873 1262.27837 329.415873"></polygon>
                                    <polygon id="Fill-92" fill="#6786AC" mask="url(#mask-4)" points="1269.78554 321.904762 1275.14781 321.904762 1275.14781 225.333333 1269.78554 225.333333"></polygon>
                                    <path d="M1253.69873,245.720635 L1249.33261,245.720635 C1249.33261,241.134532 1245.75893,237.403195 1241.3666,237.403195 C1236.9721,237.403195 1233.39842,241.134532 1233.39842,245.720635 L1229.03229,245.720635 C1229.03229,238.620381 1234.56418,232.844444 1241.3666,232.844444 C1248.16685,232.844444 1253.69873,238.620381 1253.69873,245.720635" id="Fill-93" fill="#6786AC" mask="url(#mask-4)"></path>
                                    <path d="M1261.74105,334.780952 C1254.94178,334.780952 1249.40892,329.034248 1249.40892,321.96766 L1249.40892,245.720635 L1253.77582,245.720635 L1253.77582,321.96766 C1253.77582,326.532821 1257.34794,330.245274 1261.74105,330.245274 C1266.13633,330.245274 1269.70846,326.532821 1269.70846,321.96766 L1274.07536,321.96766 C1274.07536,329.034248 1268.5425,334.780952 1261.74105,334.780952" id="Fill-94" fill="#6786AC" mask="url(#mask-4)"></path>
                                    <polygon id="Fill-95" fill="#6786AC" mask="url(#mask-4)" points="1306.24898 247.866667 1375.95849 247.866667 1375.95849 242.501587 1306.24898 242.501587"></polygon>
                                    <polygon id="Fill-96" fill="#6786AC" mask="url(#mask-4)" points="1306.24898 268.253968 1324.4807 268.253968 1324.4807 262.888889 1306.24898 262.888889"></polygon>
                                    <polygon id="Fill-97" fill="#6786AC" mask="url(#mask-4)" points="1306.24898 286.495238 1324.4807 286.495238 1324.4807 281.130159 1306.24898 281.130159"></polygon>
                                    <polygon id="Fill-98" fill="#6786AC" mask="url(#mask-4)" points="1306.24898 306.88254 1324.4807 306.88254 1324.4807 301.51746 1306.24898 301.51746"></polygon>
                                    <polygon id="Fill-99" fill="#6786AC" mask="url(#mask-4)" points="1306.24898 325.12381 1324.4807 325.12381 1324.4807 319.75873 1306.24898 319.75873"></polygon>
                                    <path d="M1334.33136,373.202733 L1422.94565,373.202733 L1422.94565,258.803616 L1334.33136,258.803616 L1334.33136,373.202733 Z M1425.19209,377.701587 L1332.08716,377.701587 C1330.84837,377.701587 1329.84297,376.696093 1329.84297,375.45216 L1329.84297,256.554189 C1329.84297,255.312505 1330.84837,254.304762 1332.08716,254.304762 L1425.19209,254.304762 C1426.43088,254.304762 1427.43628,255.312505 1427.43628,256.554189 L1427.43628,375.45216 C1427.43628,376.696093 1426.43088,377.701587 1425.19209,377.701587 Z" id="Fill-100" fill="#6786AC" mask="url(#mask-4)"></path>
                                    <path d="M1343.95651,291.67697 L1412.25029,291.67697 L1412.25029,267.366538 L1343.95651,267.366538 L1343.95651,291.67697 Z M1414.48101,296.152381 L1341.72578,296.152381 C1340.49219,296.152381 1339.49505,295.149889 1339.49505,293.914675 L1339.49505,265.126594 C1339.49505,263.891381 1340.49219,262.888889 1341.72578,262.888889 L1414.48101,262.888889 C1415.71461,262.888889 1416.71174,263.891381 1416.71174,265.126594 L1416.71174,293.914675 C1416.71174,295.149889 1415.71461,296.152381 1414.48101,296.152381 Z" id="Fill-101" fill="#6786AC" mask="url(#mask-4)"></path>
                                    <path d="M1344.13771,317.260201 L1355.22902,317.260201 L1355.22902,306.162022 L1344.13771,306.162022 L1344.13771,317.260201 Z M1357.55035,321.904762 L1341.81638,321.904762 C1340.53269,321.904762 1339.49505,320.866702 1339.49505,319.582481 L1339.49505,303.839741 C1339.49505,302.557842 1340.53269,301.51746 1341.81638,301.51746 L1357.55035,301.51746 C1358.83405,301.51746 1359.87168,302.557842 1359.87168,303.839741 L1359.87168,319.582481 C1359.87168,320.866702 1358.83405,321.904762 1357.55035,321.904762 Z" id="Fill-102" fill="#6786AC" mask="url(#mask-4)"></path>
                                    <path d="M1402.0497,317.260201 L1413.14207,317.260201 L1413.14207,306.162022 L1402.0497,306.162022 L1402.0497,317.260201 Z M1415.46313,321.904762 L1399.72864,321.904762 C1398.44509,321.904762 1397.40757,320.866702 1397.40757,319.582481 L1397.40757,303.839741 C1397.40757,302.557842 1398.44509,301.51746 1399.72864,301.51746 L1415.46313,301.51746 C1416.74668,301.51746 1417.7842,302.557842 1417.7842,303.839741 L1417.7842,319.582481 C1417.7842,320.866702 1416.74668,321.904762 1415.46313,321.904762 Z" id="Fill-103" fill="#6786AC" mask="url(#mask-4)"></path>
                                    <path d="M1373.09397,317.260201 L1384.18528,317.260201 L1384.18528,306.162022 L1373.09397,306.162022 L1373.09397,317.260201 Z M1386.50661,321.904762 L1370.77264,321.904762 C1369.48895,321.904762 1368.45131,320.866702 1368.45131,319.582481 L1368.45131,303.839741 C1368.45131,302.557842 1369.48895,301.51746 1370.77264,301.51746 L1386.50661,301.51746 C1387.79031,301.51746 1388.82794,302.557842 1388.82794,303.839741 L1388.82794,319.582481 C1388.82794,320.866702 1387.79031,321.904762 1386.50661,321.904762 Z" id="Fill-104" fill="#6786AC" mask="url(#mask-4)"></path>
                                    <path d="M1344.13771,340.86655 L1355.22902,340.86655 L1355.22902,329.770693 L1344.13771,329.770693 L1344.13771,340.86655 Z M1357.55035,345.511111 L1341.81638,345.511111 C1340.53269,345.511111 1339.49505,344.470729 1339.49505,343.18883 L1339.49505,327.44609 C1339.49505,326.164191 1340.53269,325.12381 1341.81638,325.12381 L1357.55035,325.12381 C1358.83405,325.12381 1359.87168,326.164191 1359.87168,327.44609 L1359.87168,343.18883 C1359.87168,344.470729 1358.83405,345.511111 1357.55035,345.511111 Z" id="Fill-105" fill="#6786AC" mask="url(#mask-4)"></path>
                                    <path d="M1402.0497,340.86655 L1413.14207,340.86655 L1413.14207,329.770693 L1402.0497,329.770693 L1402.0497,340.86655 Z M1415.46313,345.511111 L1399.72864,345.511111 C1398.44509,345.511111 1397.40757,344.470729 1397.40757,343.18883 L1397.40757,327.44609 C1397.40757,326.164191 1398.44509,325.12381 1399.72864,325.12381 L1415.46313,325.12381 C1416.74668,325.12381 1417.7842,326.164191 1417.7842,327.44609 L1417.7842,343.18883 C1417.7842,344.470729 1416.74668,345.511111 1415.46313,345.511111 Z" id="Fill-106" fill="#6786AC" mask="url(#mask-4)"></path>
                                    <path d="M1373.09397,340.86655 L1384.18528,340.86655 L1384.18528,329.770693 L1373.09397,329.770693 L1373.09397,340.86655 Z M1386.50661,345.511111 L1370.77264,345.511111 C1369.48895,345.511111 1368.45131,344.470729 1368.45131,343.18883 L1368.45131,327.44609 C1368.45131,326.164191 1369.48895,325.12381 1370.77264,325.12381 L1386.50661,325.12381 C1387.79031,325.12381 1388.82794,326.164191 1388.82794,327.44609 L1388.82794,343.18883 C1388.82794,344.470729 1387.79031,345.511111 1386.50661,345.511111 Z" id="Fill-107" fill="#6786AC" mask="url(#mask-4)"></path>
                                    <path d="M1344.13771,363.399354 L1355.22902,363.399354 L1355.22902,352.302233 L1344.13771,352.302233 L1344.13771,363.399354 Z M1357.55035,368.044444 L1341.81638,368.044444 C1340.53269,368.044444 1339.49505,367.006267 1339.49505,365.721899 L1339.49505,349.979688 C1339.49505,348.695321 1340.53269,347.657143 1341.81638,347.657143 L1357.55035,347.657143 C1358.83405,347.657143 1359.87168,348.695321 1359.87168,349.979688 L1359.87168,365.721899 C1359.87168,367.006267 1358.83405,368.044444 1357.55035,368.044444 Z" id="Fill-108" fill="#6786AC" mask="url(#mask-4)"></path>
                                    <path d="M1402.0497,363.399354 L1413.14207,363.399354 L1413.14207,352.302233 L1402.0497,352.302233 L1402.0497,363.399354 Z M1415.46313,368.044444 L1399.72864,368.044444 C1398.44509,368.044444 1397.40757,367.006267 1397.40757,365.721899 L1397.40757,349.979688 C1397.40757,348.695321 1398.44509,347.657143 1399.72864,347.657143 L1415.46313,347.657143 C1416.74668,347.657143 1417.7842,348.695321 1417.7842,349.979688 L1417.7842,365.721899 C1417.7842,367.006267 1416.74668,368.044444 1415.46313,368.044444 Z" id="Fill-109" fill="#6786AC" mask="url(#mask-4)"></path>
                                    <path d="M1373.09397,363.399354 L1384.18528,363.399354 L1384.18528,352.302233 L1373.09397,352.302233 L1373.09397,363.399354 Z M1386.50661,368.044444 L1370.77264,368.044444 C1369.48895,368.044444 1368.45131,367.006267 1368.45131,365.721899 L1368.45131,349.979688 C1368.45131,348.695321 1369.48895,347.657143 1370.77264,347.657143 L1386.50661,347.657143 C1387.79031,347.657143 1388.82794,348.695321 1388.82794,349.979688 L1388.82794,365.721899 C1388.82794,367.006267 1387.79031,368.044444 1386.50661,368.044444 Z" id="Fill-110" fill="#6786AC" mask="url(#mask-4)"></path>
                                    <path d="M1450.27185,303.410736 L1461.44078,303.410736 L1461.44078,251.33847 L1450.27185,251.33847 L1450.27185,303.410736 Z M1463.7427,307.955556 L1447.96993,307.955556 C1446.69696,307.955556 1445.668,306.937516 1445.668,305.683146 L1445.668,249.06606 C1445.668,247.809418 1446.69696,246.793651 1447.96993,246.793651 L1463.7427,246.793651 C1465.01337,246.793651 1466.04463,247.809418 1466.04463,249.06606 L1466.04463,305.683146 C1466.04463,306.937516 1465.01337,307.955556 1463.7427,307.955556 Z" id="Fill-111" fill="#6786AC" mask="url(#mask-4)"></path>
                                    <path d="M1451.16538,359.207562 L1458.40234,359.207562 L1458.40234,307.133023 L1451.16538,307.133023 L1451.16538,359.207562 Z M1460.6148,363.752381 L1448.95292,363.752381 C1447.72943,363.752381 1446.74046,362.736614 1446.74046,361.479971 L1446.74046,304.862886 C1446.74046,303.606243 1447.72943,302.590476 1448.95292,302.590476 L1460.6148,302.590476 C1461.83608,302.590476 1462.82727,303.606243 1462.82727,304.862886 L1462.82727,361.479971 C1462.82727,362.736614 1461.83608,363.752381 1460.6148,363.752381 Z" id="Fill-112" fill="#6786AC" mask="url(#mask-4)"></path>
                                    <path d="M1453.36169,246.748654 L1457.27848,246.748654 L1457.27848,239.559976 C1457.27848,238.840024 1456.67194,238.254521 1455.92887,238.254521 L1454.71131,238.254521 C1453.96824,238.254521 1453.36169,238.840024 1453.36169,239.559976 L1453.36169,246.748654 Z M1459.51665,251.085714 L1451.12353,251.085714 C1449.88582,251.085714 1448.88536,250.114213 1448.88536,248.917184 L1448.88536,239.559976 C1448.88536,236.448135 1451.49954,233.91746 1454.71131,233.91746 L1455.92887,233.91746 C1459.14064,233.91746 1461.75481,236.448135 1461.75481,239.559976 L1461.75481,248.917184 C1461.75481,250.114213 1460.75435,251.085714 1459.51665,251.085714 Z" id="Fill-113" fill="#6786AC" mask="url(#mask-4)"></path>
                                    <path d="M1471.18218,305.809524 C1469.87177,305.809524 1468.81255,304.790275 1468.81255,303.534414 L1468.81255,257.781965 L1463.05199,257.781965 C1461.74395,257.781965 1460.68236,256.762716 1460.68236,255.506855 C1460.68236,254.250995 1461.74395,253.231746 1463.05199,253.231746 L1471.18218,253.231746 C1472.49258,253.231746 1473.55181,254.250995 1473.55181,255.506855 L1473.55181,303.534414 C1473.55181,304.790275 1472.49258,305.809524 1471.18218,305.809524" id="Fill-114" fill="#6786AC" mask="url(#mask-4)"></path>
                                    <path d="M1451.79019,364.101315 L1454.78607,376.592561 L1457.77753,364.101315 L1451.79019,364.101315 Z M1454.78607,388.431746 C1453.7727,388.431746 1452.88544,387.710071 1452.63984,386.677449 L1446.80738,362.347018 C1446.64144,361.653189 1446.78747,360.917591 1447.20787,360.35371 C1447.62826,359.789828 1448.26992,359.460317 1448.95362,359.460317 L1460.6141,359.460317 C1461.2978,359.460317 1461.93946,359.789828 1462.35986,360.35371 C1462.78025,360.917591 1462.92628,361.653189 1462.76034,362.347018 L1456.9301,386.677449 C1456.6845,387.710071 1455.79945,388.431746 1454.78607,388.431746 Z" id="Fill-115" fill="#6786AC" mask="url(#mask-4)"></path>
                                    <path d="M861.225541,221.927674 L868.408287,221.927674 C869.127862,221.927674 869.715226,221.320814 869.715226,220.577354 L869.715226,219.359154 C869.715226,218.615694 869.127862,218.008834 868.408287,218.008834 L861.225541,218.008834 L861.225541,221.927674 Z M868.408287,226.406349 L859.058146,226.406349 C857.859577,226.406349 856.890752,225.403126 856.890752,224.167012 L856.890752,215.769496 C856.890752,214.533382 857.859577,213.530159 859.058146,213.530159 L868.408287,213.530159 C871.518499,213.530159 874.050016,216.145705 874.050016,219.359154 L874.050016,220.577354 C874.050016,223.793042 871.518499,226.406349 868.408287,226.406349 Z" id="Fill-123" fill="#6786AC" mask="url(#mask-4)"></path>
                                    <path d="M1224.74248,512.901587 L1035.026,512.901587 C1033.78021,512.901587 1032.77321,511.888838 1032.77321,510.635929 L1032.77321,384.139683 L1037.27879,384.139683 L1037.27879,508.37027 L1224.74248,508.37027 L1224.74248,512.901587 Z" id="Fill-131" fill="#6786AC" mask="url(#mask-4)"></path>
                                    <path d="M1059.04718,474.588996 C1055.37687,474.588996 1052.39272,477.577312 1052.39272,481.249923 C1052.39272,484.92023 1055.37687,487.906242 1059.04718,487.906242 C1062.71749,487.906242 1065.70394,484.92023 1065.70394,481.249923 C1065.70394,477.577312 1062.71749,474.588996 1059.04718,474.588996 M1059.04718,492.514286 C1052.83943,492.514286 1047.78757,487.461566 1047.78757,481.249923 C1047.78757,475.035976 1052.83943,469.980952 1059.04718,469.980952 C1065.25494,469.980952 1070.3091,475.035976 1070.3091,481.249923 C1070.3091,487.461566 1065.25494,492.514286 1059.04718,492.514286" id="Fill-132" fill="#6786AC" mask="url(#mask-4)"></path>
                                    <path d="M1111.59858,435.960425 C1107.92789,435.960425 1104.94344,438.946437 1104.94344,442.619048 C1104.94344,446.289354 1107.92789,449.277671 1111.59858,449.277671 C1115.26927,449.277671 1118.25371,446.289354 1118.25371,442.619048 C1118.25371,438.946437 1115.26927,435.960425 1111.59858,435.960425 M1111.59858,453.885714 C1105.39019,453.885714 1100.33781,448.83069 1100.33781,442.619048 C1100.33781,436.405101 1105.39019,431.352381 1111.59858,431.352381 C1117.80697,431.352381 1122.85935,436.405101 1122.85935,442.619048 C1122.85935,448.83069 1117.80697,453.885714 1111.59858,453.885714" id="Fill-133" fill="#6786AC" mask="url(#mask-4)"></path>
                                    <path d="M1168.43979,450.982647 C1164.76948,450.982647 1161.78303,453.968659 1161.78303,457.64127 C1161.78303,461.311577 1164.76948,464.299893 1168.43979,464.299893 C1172.1101,464.299893 1175.09425,461.311577 1175.09425,457.64127 C1175.09425,453.968659 1172.1101,450.982647 1168.43979,450.982647 M1168.43979,468.907937 C1162.23204,468.907937 1157.17787,463.852913 1157.17787,457.64127 C1157.17787,451.427323 1162.23204,446.374603 1168.43979,446.374603 C1174.64755,446.374603 1179.69941,451.427323 1179.69941,457.64127 C1179.69941,463.852913 1174.64755,468.907937 1168.43979,468.907937" id="Fill-134" fill="#6786AC" mask="url(#mask-4)"></path>
                                    <path d="M1214.55416,402.697404 C1210.88348,402.697404 1207.89903,405.683721 1207.89903,409.356708 C1207.89903,413.02739 1210.88348,416.013707 1214.55416,416.013707 C1218.22485,416.013707 1221.2093,413.02739 1221.2093,409.356708 C1221.2093,405.683721 1218.22485,402.697404 1214.55416,402.697404 M1214.55416,420.622222 C1208.34577,420.622222 1203.2934,415.568986 1203.2934,409.356708 C1203.2934,403.142125 1208.34577,398.088889 1214.55416,398.088889 C1220.76255,398.088889 1225.81493,403.142125 1225.81493,409.356708 C1225.81493,415.568986 1220.76255,420.622222 1214.55416,420.622222" id="Fill-135" fill="#6786AC" mask="url(#mask-4)"></path>
                                    <polygon id="Fill-136" fill="#6786AC" mask="url(#mask-4)" points="1070.99052 475.346032 1068.16419 472.026822 1083.56958 459.250794 1086.39591 462.570003"></polygon>
                                    <polygon id="Fill-137" fill="#6786AC" mask="url(#mask-4)" points="1154.11839 456.031746 1141.09106 450.120999 1143.07584 446.374603 1156.10542 452.285351"></polygon>
                                    <polygon id="Fill-138" fill="#6786AC" mask="url(#mask-4)" points="1180.91622 449.593651 1177.5545 446.714256 1204.22149 416.330159 1207.58321 419.209554"></polygon>
                                    <path d="M1111.07896,426.207193 C1107.01159,426.207193 1102.94648,427.75547 1099.84689,430.854282 C1096.84881,433.856045 1095.1975,437.839588 1095.1975,442.078167 C1095.1975,446.316746 1096.84881,450.304803 1099.84689,453.304308 C1102.09375,455.552245 1104.92264,457.059897 1108.03351,457.664764 C1109.03738,457.863377 1109.96455,457.967197 1111.09475,457.955912 C1112.13245,457.955912 1113.16114,457.854349 1114.15599,457.655736 C1116.5179,457.193058 1118.76477,456.181938 1120.66874,454.735224 C1121.2282,454.310915 1121.77412,453.832438 1122.29974,453.311079 C1122.79829,452.810033 1123.26752,452.275133 1123.72998,451.672523 C1128.49892,445.395905 1127.88532,436.438013 1122.29749,430.847512 C1119.20466,427.75547 1115.14181,426.207193 1111.07896,426.207193 M1111.02933,462.469841 C1109.7367,462.469841 1108.43731,462.345708 1107.1695,462.095185 C1103.17432,461.318789 1099.54009,459.380057 1096.65706,456.495656 C1092.80626,452.643018 1090.68573,447.521965 1090.68573,442.078167 C1090.68573,436.634369 1092.80626,431.515573 1096.65706,427.662935 C1104.60907,419.707135 1117.53982,419.707135 1125.48731,427.656164 C1132.66104,434.833311 1133.44834,446.339316 1127.31233,454.416992 C1126.72805,455.173075 1126.11896,455.872734 1125.48731,456.504684 C1124.81731,457.172746 1124.11348,457.78664 1123.39611,458.328311 C1120.95298,460.192564 1118.05867,461.490319 1115.03578,462.0839 C1113.73188,462.343451 1112.38737,462.469841 1111.02933,462.469841" id="Fill-139" fill="#6786AC" mask="url(#mask-4)"></path>
                                    <path d="M1130.98295,469.980952 C1130.45061,469.980952 1129.91827,469.776918 1129.51278,469.370932 L1126.68681,466.543605 C1126.26052,466.118881 1126.0401,465.527599 1126.08169,464.927989 C1126.12328,464.328379 1126.42272,463.774572 1126.90099,463.412308 C1127.52067,462.939698 1128.11955,462.417122 1128.67892,461.857069 C1129.22581,461.307427 1129.75399,460.705735 1130.24682,460.060321 C1130.61073,459.587712 1131.16386,459.292071 1131.76066,459.252513 C1132.35539,459.229611 1132.94179,459.435727 1133.366,459.856287 L1136.19197,462.679451 C1136.58083,463.070863 1136.80125,463.601768 1136.80125,464.15141 C1136.80125,464.705217 1136.58083,465.236122 1136.19197,465.625452 L1132.45312,469.370932 C1132.04763,469.776918 1131.51529,469.980952 1130.98295,469.980952" id="Fill-140" fill="#6786AC" mask="url(#mask-4)"></path>
                                    <path d="M1137.1585,462.665724 L1137.16509,462.659132 L1137.1585,462.665724 Z M1133.51297,469.132623 L1152.85403,488.473991 C1153.7764,489.401286 1155.42567,489.401286 1156.35462,488.473991 C1157.3209,487.509339 1157.3209,485.936013 1156.35242,484.966967 L1137.02234,465.623402 L1133.51297,469.132623 Z M1154.60433,493.587302 C1152.76399,493.587302 1151.04005,492.875349 1149.74655,491.581091 L1129.00438,470.826805 C1128.94508,470.767476 1128.74963,470.55433 1128.69473,470.488408 C1128.00515,469.611652 1128.07543,468.356947 1128.86602,467.568086 L1135.46311,460.969344 C1136.25371,460.176089 1137.50329,460.10797 1138.37953,460.797948 C1138.44541,460.852883 1138.65844,461.046252 1138.71773,461.105582 L1159.4599,481.859867 C1162.13695,484.542872 1162.13695,488.90248 1159.4599,491.581091 C1158.1664,492.875349 1156.44246,493.587302 1154.60433,493.587302 Z" id="Fill-141" fill="#6786AC" mask="url(#mask-4)"></path>
                                    <path d="M1112.13481,417.613163 C1098.05857,417.613163 1086.60545,429.070886 1086.60545,443.155556 C1086.60545,457.240225 1098.05857,468.697948 1112.13481,468.697948 C1126.21105,468.697948 1137.66416,457.240225 1137.66416,443.155556 C1137.66416,429.070886 1126.21105,417.613163 1112.13481,417.613163 M1112.13481,473.2 C1095.57717,473.2 1082.10609,459.723107 1082.10609,443.155556 C1082.10609,426.588004 1095.57717,413.111111 1112.13481,413.111111 C1128.69244,413.111111 1142.16352,426.588004 1142.16352,443.155556 C1142.16352,459.723107 1128.69244,473.2 1112.13481,473.2" id="Fill-142" fill="#6786AC" mask="url(#mask-4)"></path>
                                    <path d="M1046.71566,398.088889 L1034.38075,386.191739 L1022.04812,398.088889 L1018.83131,394.986239 L1032.77235,381.537764 C1033.62546,380.714925 1035.13604,380.714925 1035.98916,381.537764 L1049.93247,394.986239 L1046.71566,398.088889 Z" id="Fill-143" fill="#6786AC" mask="url(#mask-4)"></path>
                                    <path d="M1211.75234,524.704762 L1208.65567,521.486264 L1220.5277,509.144894 L1208.65567,496.8058 L1211.75234,493.587302 L1225.17271,507.535645 C1226.029,508.425625 1226.029,509.864162 1225.17271,510.754143 L1211.75234,524.704762 Z" id="Fill-144" fill="#6786AC" mask="url(#mask-4)"></path>
                                    <path d="M829.013895,394.533089 L864.155037,429.693695 C864.710856,430.249752 865.673536,430.254201 866.229355,429.693695 L873.466127,422.451607 C874.039733,421.87998 874.039733,420.945804 873.466127,420.374177 L838.324986,385.218019 L829.013895,394.533089 Z M865.191084,434.571429 C863.612557,434.571429 862.125183,433.955317 861.009097,432.838754 L824.296098,396.103394 C823.878122,395.687463 823.644678,395.120285 823.644678,394.530864 C823.644678,393.93922 823.878122,393.374266 824.298321,392.956111 L836.753128,380.498206 C837.62243,379.630757 839.029765,379.630757 839.899067,380.498206 L876.612066,417.229118 C878.915383,419.535643 878.915383,423.290141 876.61429,425.596666 L876.612066,425.596666 L869.373071,432.838754 C868.256985,433.957541 866.769612,434.571429 865.191084,434.571429 Z" id="Fill-157" fill="#6786AC" mask="url(#mask-4)"></path>
                                    <path d="M987.168014,151.295238 L986.04196,149.363669 C981.533239,141.639625 979.150509,132.832562 979.150509,123.898217 C979.150509,114.939308 981.533239,106.125546 986.037456,98.4104343 L989.935856,100.647928 C985.825758,107.6842 983.654725,115.723101 983.654725,123.898217 C983.654725,131.302938 985.447404,138.611639 988.859348,145.170042 L1028.26899,122.609759 L1028.26899,77.4847282 C1014.77661,78.1166751 1002.33146,84.4071152 993.85002,94.9626389 L990.32547,92.1802859 C1000.14016,79.9700884 1014.79012,72.9650794 1030.5211,72.9650794 L1032.77321,72.9650794 L1032.77321,125.186674 L987.168014,151.295238 Z" id="Fill-161" fill="#6786AC" mask="url(#mask-4)"></path>
                                    <path d="M1082.91828,145.930159 C1082.53541,145.930159 1082.14803,145.833126 1081.79443,145.627778 L1039.26158,121.024364 C1038.56565,120.622694 1038.13548,119.878025 1038.13548,119.070171 L1038.13548,69.8565729 C1038.13548,68.6109447 1039.14221,67.6 1040.38768,67.6 C1055.95266,67.6 1070.50639,74.5570143 1080.32149,86.6883502 L1076.81932,89.5293755 C1068.34203,79.0475944 1055.98644,72.799144 1042.63988,72.1673036 L1042.63988,117.768129 L1082.05118,140.566285 C1085.46102,133.940987 1087.25377,126.55748 1087.25377,119.070171 C1087.25377,111.553527 1085.53534,104.373112 1082.14578,97.7297614 L1086.15695,95.6762801 C1089.87309,102.962754 1091.75818,110.83368 1091.75818,119.070171 C1091.75818,128.103233 1089.37535,137.0009 1084.86869,144.804129 C1084.45429,145.526232 1083.69754,145.930159 1082.91828,145.930159" id="Fill-162" fill="#6786AC" mask="url(#mask-4)"></path>
                                    <path d="M1031.16453,175.974603 C1012.9076,175.974603 995.872758,166.191012 986.715037,150.440999 L985.585233,148.502191 L1031.16453,122.32381 L1076.74382,148.502191 L1075.61402,150.440999 C1070.58841,159.080558 1063.20642,166.020863 1054.26926,170.516389 L1052.23696,166.517878 C1059.72248,162.754442 1066.01293,157.110407 1070.5434,150.111894 L1031.16453,127.495456 L991.785655,150.111894 C1000.37172,163.356682 1015.26174,171.496987 1031.16453,171.496987 C1035.41142,171.496987 1039.62006,170.930569 1043.67565,169.815643 L1044.87523,174.129825 C1040.42803,175.354453 1035.81428,175.974603 1031.16453,175.974603" id="Fill-163" fill="#6786AC" mask="url(#mask-4)"></path>
                                    <polygon id="Fill-164" fill="#6786AC" mask="url(#mask-4)" points="1066.00118 109.447619 1062.80192 106.213087 1087.19686 81.5492063 1091.75818 81.5492063 1091.75818 86.1242166 1089.07026 86.1242166"></polygon>
                                    <polygon id="Fill-165" fill="#6786AC" mask="url(#mask-4)" points="1071.38155 182.412698 1057.8906 182.412698 1030.6283 155.521906 1033.82579 152.368254 1059.76296 177.952088 1071.38155 177.952088"></polygon>
                                    <polygon id="Fill-166" fill="#6786AC" mask="url(#mask-4)" points="1003.89033 112.666667 983.881313 92.4748668 978.078055 92.4748668 978.078055 87.9873016 985.722347 87.9873016 1007.03431 109.493958"></polygon>
                                    <path d="M1084.78835,171.870709 C1080.45599,171.870709 1076.93189,175.396653 1076.93189,179.729039 C1076.93189,184.063664 1080.45599,187.589608 1084.78835,187.589608 C1089.1207,187.589608 1092.64256,184.063664 1092.64256,179.729039 C1092.64256,175.396653 1089.1207,171.870709 1084.78835,171.870709 M1084.78835,192.069841 C1077.98868,192.069841 1072.45401,186.534513 1072.45401,179.729039 C1072.45401,172.925804 1077.98868,167.390476 1084.78835,167.390476 C1091.58802,167.390476 1097.12045,172.925804 1097.12045,179.729039 C1097.12045,186.534513 1091.58802,192.069841 1084.78835,192.069841" id="Fill-167" fill="#6786AC" mask="url(#mask-4)"></path>
                                    <path d="M964.67126,82.810392 C960.338904,82.810392 956.817046,86.3363356 956.817046,90.6687212 C956.817046,95.0033469 960.338904,98.5292905 964.67126,98.5292905 C969.003616,98.5292905 972.527713,95.0033469 972.527713,90.6687212 C972.527713,86.3363356 969.003616,82.810392 964.67126,82.810392 M964.67126,103.009524 C957.871588,103.009524 952.339158,97.4741956 952.339158,90.6687212 C952.339158,83.865487 957.871588,78.3301587 964.67126,78.3301587 C971.470932,78.3301587 977.005601,83.865487 977.005601,90.6687212 C977.005601,97.4741956 971.470932,103.009524 964.67126,103.009524" id="Fill-168" fill="#6786AC" mask="url(#mask-4)"></path>
                                    <path d="M1106.23743,76.3722968 C1101.90507,76.3722968 1098.38097,79.8982404 1098.38097,84.2328661 C1098.38097,88.5652517 1101.90507,92.0911953 1106.23743,92.0911953 C1110.56978,92.0911953 1114.09164,88.5652517 1114.09164,84.2328661 C1114.09164,79.8982404 1110.56978,76.3722968 1106.23743,76.3722968 M1106.23743,96.5714286 C1099.43776,96.5714286 1093.90309,91.0361003 1093.90309,84.2328661 C1093.90309,77.4273917 1099.43776,71.8920635 1106.23743,71.8920635 C1113.0371,71.8920635 1118.56953,77.4273917 1118.56953,84.2328661 C1118.56953,91.0361003 1113.0371,96.5714286 1106.23743,96.5714286" id="Fill-169" fill="#6786AC" mask="url(#mask-4)"></path>
                                </g>
                            </g>
                            <g id="button-secondary" opacity="0.200000003" transform="translate(1533.609230, 544.019048)">
                                <g id="Group">
                                    <rect id="Rectangle" stroke="#FFFFFF" x="0.5" y="0.5" width="196" height="51" rx="4"></rect>
                                    <text id="Learn-More" font-family=".AppleSystemUIFont" font-size="14" font-weight="normal" line-spacing="18" fill="#FFFFFF">
                                        <tspan x="69.4335938" y="31.3333333">Continue</tspan>
                                    </text>
                                </g>
                            </g>
                        </g>
                        <polygon id="Fill-10" fill="#7BCCA8" points="1400.62493 554.749206 1405.9872 554.749206 1405.9872 531.142857 1400.62493 531.142857"></polygon>
                        <polygon id="Fill-11" fill="#7BCCA8" points="1390.97285 546.165079 1414.56684 546.165079 1414.56684 540.8 1390.97285 540.8"></polygon>
                        <polygon id="Fill-7" fill="#7BCCA8" points="2504.18011 59.015873 2509.54238 59.015873 2509.54238 35.4095238 2504.18011 35.4095238"></polygon>
                        <polygon id="Fill-9" fill="#7BCCA8" points="2495.60047 50.431746 2519.19446 50.431746 2519.19446 45.0666667 2495.60047 45.0666667"></polygon>
                        <path d="M2719.73427,448.519498 L2728.32299,457.113369 L2736.91171,448.519498 L2728.32299,439.927901 L2719.73427,448.519498 Z M2728.32299,463.542857 L2713.30864,448.519498 L2728.32299,433.498413 L2743.33735,448.519498 L2728.32299,463.542857 Z" id="Fill-21" fill="#7BCCA8"></path>
                        <path d="M2377.09431,31.3127272 C2369.80846,31.3127272 2363.8838,37.2427342 2363.8838,44.5301587 C2363.8838,51.8175832 2369.80846,57.7475903 2377.09431,57.7475903 C2384.37792,57.7475903 2390.30482,51.8175832 2390.30482,44.5301587 C2390.30482,37.2427342 2384.37792,31.3127272 2377.09431,31.3127272 M2377.09431,62.2349206 C2367.33723,62.2349206 2359.39882,54.2923459 2359.39882,44.5301587 C2359.39882,34.7679715 2367.33723,26.8253968 2377.09431,26.8253968 C2386.85138,26.8253968 2394.7898,34.7679715 2394.7898,44.5301587 C2394.7898,54.2923459 2386.85138,62.2349206 2377.09431,62.2349206" id="Fill-1" fill="#7BCCA8"></path>
                    </g>
                </g>
            </g>
        </g>
    </g>
</svg>