
<svg width="17px" height="14px" viewBox="0 0 17 14" version="1.1" xmlns="http://www.w3.org/2000/svg" xmlns:xlink="http://www.w3.org/1999/xlink">
    <!-- Generator: Sketch 50.2 (55047) - http://www.bohemiancoding.com/sketch -->
    <desc>Created with Sketch.</desc>
    <defs></defs>
    <g id="Symbols" stroke="none" stroke-width="1" fill="none" fill-rule="evenodd">
        <g id="footer-/-light" transform="translate(-1169.000000, -118.000000)" fill="#FFFFFF">
            <g id="Group-12">
                <g id="Twitter" transform="translate(1160.000000, 107.000000)">
                    <path d="M25.5160667,11.3065667 C25.0221222,11.6229556 23.8880333,12.0827111 23.3287333,12.0827111 L23.3287333,12.0836556 C22.6901,11.4165 21.7909889,11 20.7938444,11 C18.8571667,11 17.2867444,12.5704222 17.2867444,14.5063444 C17.2867444,14.7753222 17.3179111,15.0376889 17.3755222,15.2892889 L17.3749556,15.2892889 C14.7478889,15.2203444 11.8747,13.9036 10.1450444,11.6499667 C9.0816,13.4906889 10.0018667,15.5378667 11.2086778,16.2837889 C10.7955778,16.3149556 10.0351111,16.2361889 9.67716667,15.8869333 C9.65317778,17.1086667 10.2406222,18.7274444 12.3826222,19.3147 C11.9700889,19.5366444 11.2398444,19.4729889 10.9223222,19.4257667 C11.0337667,20.4571 12.4780111,21.8053889 14.0573111,21.8053889 C13.4944222,22.4564889 11.3766,23.6374222 9,23.2617222 C10.6140556,24.2437556 12.4952,24.8125 14.4862778,24.8125 C20.1444444,24.8125 24.5385667,20.2268444 24.3020778,14.5698111 C24.3011333,14.5635778 24.3011333,14.5573444 24.3005667,14.5505444 C24.3011333,14.536 24.3020778,14.5214556 24.3020778,14.5063444 C24.3020778,14.4887778 24.3005667,14.4721556 24.3,14.4551556 C24.8151,14.1028778 25.5062444,13.4797333 26,12.6595778 C25.7136444,12.8173 24.8545778,13.1331222 24.0552,13.2115111 C24.5682222,12.9346 25.3283111,12.0277444 25.5160667,11.3065667" id="Fill-1"></path>
                </g>
            </g>
        </g>
    </g>
</svg>