
<svg width="124px" height="126px" viewBox="0 0 124 126" version="1.1" xmlns="http://www.w3.org/2000/svg" xmlns:xlink="http://www.w3.org/1999/xlink">
    <!-- Generator: Sketch 50.2 (55047) - http://www.bohemiancoding.com/sketch -->
    <desc>Created with Sketch.</desc>
    <defs>
        <polygon id="path-1" points="0.228741538 0.0711384615 39.8795415 0.0711384615 39.8795415 34.2811015 0.228741538 34.2811015"></polygon>
        <polygon id="path-3" points="0.000313846154 0.175728829 55.8008 0.175728829 55.8008 30.8615385 0.000313846154 30.8615385"></polygon>
    </defs>
    <g id="Symbols" stroke="none" stroke-width="1" fill="none" fill-rule="evenodd">
        <g id="Alternative-/-story_card" transform="translate(-129.000000, -118.000000)">
            <g id="Group-6">
                <g id="Alternative-/-icon-ROI" transform="translate(121.000000, 112.000000)">
                    <path d="M70.0923077,131.292308 C133.254028,131.292308 131.815385,103.657945 131.815385,69.5692308 C131.815385,35.4805167 125.428889,-1.23107449 70.0923077,7.84615385 C14.7557263,16.9233822 8.36923077,35.4805167 8.36923077,69.5692308 C8.36923077,103.657945 6.93058695,131.292308 70.0923077,131.292308 Z" id="Oval" fill="#FFFFFF" opacity="0.2"></path>
                    <g id="Page-1" stroke-width="1" transform="translate(39.753846, 34.523077)">
                        <g id="Group-3" transform="translate(7.846154, 0.452043)">
                            <mask id="mask-2" fill="white">
                                <use xlink:href="#path-1"></use>
                            </mask>
                            <g id="Clip-2"></g>
                            <path d="M1.44149538,32.6637477 C1.55134154,33.5958708 2.34118769,34.2811015 3.25657231,34.2811015 C3.32875692,34.2811015 3.40094154,34.2758708 3.47312615,34.2685477 C4.47743385,34.1492862 5.19509538,33.2391323 5.07688,32.2358708 C4.49521846,27.3063938 4.37909538,25.6827631 4.20334154,23.2232554 C4.12592615,22.1363015 4.03700308,20.8913785 3.89158769,19.1422092 C3.97841846,14.1478708 5.45454154,10.29384 8.27915692,7.68368615 C12.4355262,3.84430154 18.3954646,3.71353231 19.7732492,3.73759385 C19.8590338,3.74491692 19.9448185,3.75328615 20.0337415,3.74700923 C20.1843877,3.75537846 20.2921415,3.74805538 20.3978031,3.73654769 C21.8958954,3.71667077 27.7386646,3.90393231 31.8291262,7.68368615 C34.6537415,10.29384 36.1298646,14.1478708 36.2166954,19.1422092 C36.0723262,20.8913785 35.9834031,22.1363015 35.9049415,23.2232554 C35.7291877,25.6827631 35.6130646,27.3063938 35.0314031,32.2358708 C34.9131877,33.2391323 35.6308492,34.1492862 36.6351569,34.2685477 C36.7083877,34.2758708 36.7795262,34.2811015 36.8517108,34.2811015 C37.7670954,34.2811015 38.5579877,33.5958708 38.6678338,32.6637477 C39.2589108,27.6505785 39.3781723,25.9934708 39.5570646,23.4847938 C39.6355262,22.3894708 39.7254954,21.1340862 39.8730031,19.3545785 C39.8782338,19.2949477 39.8803262,19.2353169 39.87928,19.1767323 C39.7934954,13.0828862 37.9114646,8.30196308 34.2865415,4.96996308 C28.9051262,0.0195630769 21.5391569,0.0247938462 20.0567569,0.0812861538 C18.5827262,0.0247938462 11.2094338,0.0143323077 5.82174154,4.96996308 C2.19681846,8.30196308 0.314787692,13.0828862 0.229003077,19.1767323 C0.227956923,19.2353169 0.230049231,19.2949477 0.23528,19.3545785 C0.382787692,21.1340862 0.472756923,22.3894708 0.551218462,23.4847938 C0.730110769,25.9934708 0.849372308,27.6505785 1.44149538,32.6637477 Z" id="Fill-1" fill="#F9FDFF" mask="url(#mask-2)"></path>
                        </g>
                        <path d="M35.9900985,20.2641046 C35.9472062,20.4178892 35.9179138,20.5769046 35.9179138,20.7453354 C35.9179138,27.1321046 31.9467138,33.4027508 27.9001908,33.4027508 C24.0095446,33.4027508 20.0582215,27.2722892 19.89816,21.1292738 C25.31096,20.6909354 28.5780985,18.43752 30.5249908,16.12552 C31.70296,17.5137662 33.5420985,19.2388738 35.9900985,20.2641046 M31.7657292,8.53881231 C30.7656062,8.37979692 29.8282523,9.05665846 29.6681908,10.0536431 C29.6127446,10.3957354 28.18056,18.4040431 16.0912062,17.4761046 C15.0806215,17.3955508 14.2018523,18.15192 14.1254831,19.1604123 C14.0470215,20.1689046 14.8012985,21.0497662 15.8097908,21.1261354 C15.9583446,21.1376431 16.0912062,21.1334585 16.2366215,21.1428738 C16.4040062,28.7421354 21.3303446,37.0642892 27.9001908,37.0642892 C34.4804985,37.0642892 39.4120677,28.7180738 39.5648062,21.1093969 C39.6338523,21.1135815 39.6976677,21.1271815 39.76776,21.1292738 C39.7960062,21.1313662 39.8242523,21.1324123 39.8514523,21.1324123 C40.8243754,21.1324123 41.6351446,20.3666277 41.6790831,19.3842892 C41.7251138,18.3737046 40.9436369,17.5179508 39.9330523,17.47192 C36.1721292,17.3013969 33.5452369,14.1660738 32.5785908,12.80712 C33.1184062,11.5580123 33.2774215,10.6677354 33.2826523,10.6373969 C33.4427138,9.63832 32.7648062,8.69782769 31.7657292,8.53881231" id="Fill-4" fill="#FFFFFF"></path>
                        <path d="M44.5877046,54.9108369 C44.5877046,53.9002523 43.76752,53.0800677 42.7569354,53.0800677 C41.7463508,53.0800677 40.9261662,53.9002523 40.9261662,54.9108369 L40.9261662,59.41976 L33.7736123,59.41976 L33.7736123,63.0812985 L47.9228431,63.0812985 L47.9228431,59.41976 L44.5877046,59.41976 L44.5877046,54.9108369 Z" id="Fill-6" fill="#FFFFFF"></path>
                        <g id="Group-10" transform="translate(0.000000, 36.021274)">
                            <mask id="mask-4" fill="white">
                                <use xlink:href="#path-3"></use>
                            </mask>
                            <g id="Clip-9"></g>
                            <path d="M54.7131138,9.84807385 L54.70056,9.70893538 C53.84376,3.06481231 45.5592677,1.41188923 45.2067138,1.34388923 L39.2070215,0.199396923 L39.2059754,0.203581538 C38.46216,0.0728123077 37.68696,0.407581538 37.2946523,1.10118154 L27.9001908,17.7538585 L18.5057292,1.10118154 C18.1134215,0.406535385 17.3361292,0.0749046154 16.5944062,0.203581538 L16.59336,0.199396923 L10.5936677,1.34388923 C10.24216,1.41188923 1.95662154,3.06481231 1.09982154,9.70893538 L0.000313846154,30.8621662 L3.66603692,30.8621662 L4.73939077,10.1137969 C5.31059077,6.15515077 11.2234523,4.95207385 11.2788985,4.94161231 L15.9635754,4.04715077 L26.0694215,21.9614892 L26.0694215,30.8621662 L29.73096,30.8621662 L29.73096,21.9614892 L39.8368062,4.04715077 L44.5214831,4.94161231 C44.5811138,4.95207385 50.4929292,6.18653538 51.0609908,10.1137969 L52.1343446,30.8621662 L55.8011138,30.8621662 L54.7131138,9.84807385 Z" id="Fill-8" fill="#FFFFFF" mask="url(#mask-4)"></path>
                        </g>
                    </g>
                </g>
            </g>
        </g>
    </g>
</svg>